STARTFONT 2.1
COMMENT
COMMENT Converted from OpenType font "Q:\font stuff\winfont\Astute Caps.ttf" by "otf2bdf 3.0".
COMMENT
FONT -FreeType-Astute Caps-Medium-R-Normal--179-1800-72-72-P-370-ISO10646-1
SIZE 180 72 72
FONTBOUNDINGBOX 222 186 -13 -27
STARTPROPERTIES 19
FOUNDRY "FreeType"
FAMILY_NAME "Astute Caps"
WEIGHT_NAME "Medium"
SLANT "R"
SETWIDTH_NAME "Normal"
ADD_STYLE_NAME ""
PIXEL_SIZE 179
POINT_SIZE 1800
RESOLUTION_X 72
RESOLUTION_Y 72
SPACING "P"
AVERAGE_WIDTH 370
CHARSET_REGISTRY "ISO10646"
CHARSET_ENCODING "1"
FONT_ASCENT 127
FONT_DESCENT 3
COPYRIGHT "From the WSI-FONTS Collection.  Copyright (c)1992 W.S.I.  All Rights Reserved.  Redistribution strictly prohibited."
_OTF_FONTFILE "Q:\font stuff\winfont\Astute Caps.ttf"
_OTF_PSNAME "AstuteCaps"
ENDPROPERTIES
CHARS 226
STARTCHAR 0020
ENCODING 32
SWIDTH 138 0
DWIDTH 25 0
BBX 0 0 0 0
BITMAP
ENDCHAR
STARTCHAR 0021
ENCODING 33
SWIDTH 138 0
DWIDTH 25 0
BBX 11 127 7 -1
BITMAP
0E00
1F00
3F80
3F80
3F80
3F80
3F80
3F80
3F80
3F80
3F80
3F80
3F80
3F80
3F80
3F80
3F80
3F80
3F80
3F80
3F80
3F80
3F80
3F80
3F80
3F80
3F80
3F80
3F80
3F80
3F80
3F80
3F80
3F80
3F80
3F80
3F80
3F80
3F80
3F80
3F80
3F80
3F80
3F80
3F80
3F80
3F80
3F80
3F80
3F80
3F80
3F80
3F80
3F80
3F80
3F80
3F80
3F80
3F80
3F80
3F80
3F80
3F80
3F80
3F80
3F80
3F80
3F80
3F80
3F80
3F80
3F80
3F80
3F80
3F80
3F80
3F80
3F80
3F80
3F80
3F80
3F80
3F80
3F80
3F80
3F80
3F80
3F80
3F80
3F80
3F80
3F80
3F80
3F80
3F80
3F80
3F80
3F80
3F80
3F80
3F80
3F80
3F80
3F80
3F80
3F80
3F80
3F80
3F80
3F80
3F80
3F80
1F00
1F00
0000
0400
3F80
7FC0
FFE0
FFE0
FFE0
FFE0
FFE0
FFE0
7FC0
7FC0
1F00
ENDCHAR
STARTCHAR 0022
ENCODING 34
SWIDTH 211 0
DWIDTH 38 0
BBX 20 37 9 88
BITMAP
3801C0
7C03E0
FE07F0
FE07F0
FE07F0
FE07F0
FE07F0
FE07F0
FE07F0
FE07F0
FE07F0
FE07F0
FE07F0
FE07F0
FE07F0
FE07F0
FE07F0
FE07F0
FE07F0
FE07F0
FE07F0
FE07F0
FE07F0
FE07F0
FE07F0
FE07F0
FE07F0
FE07F0
FE07F0
FE07F0
FE07F0
FE07F0
FE07F0
FE07F0
FE07F0
FE07F0
7C03E0
ENDCHAR
STARTCHAR 0023
ENCODING 35
SWIDTH 238 0
DWIDTH 43 0
BBX 40 127 2 -1
BITMAP
00070001E0
000F8003E0
001FC003F0
001FC003F0
001FC003F0
001F8003F0
001F8003F0
001F8003F0
003F8007F0
003F8007F0
003F8007F0
003F8007F0
003F8007F0
003F8007F0
003F8007F0
003F8007F0
003F8007F0
003F8007F0
007F8007F0
007F000FE0
007F000FE0
007F000FE0
007F000FE0
007F000FE0
007F000FE0
007F000FE0
007F000FE0
007F000FE0
007F000FE0
00FF000FE0
00FF001FE0
00FF001FC0
00FF001FC0
00FE001FC0
00FE001FC0
00FE001FC0
00FE001FC0
00FE001FC0
0FFFFFFFFC
1FFFFFFFFF
1FFFFFFFFF
1FFFFFFFFF
1FFFFFFFFF
1FFFFFFFFE
0FFFFFFFF8
01FE003FC0
01FC003F80
01FC003F80
01FC003F80
01FC003F80
01FC003F80
01FC003F80
01FC003F80
03FC007F80
03FC007F80
03FC007F80
03F8007F80
03F8007F00
03F8007F00
03F8007F00
03F8007F00
03F8007F00
03F8007F00
07F8007F00
07F800FF00
07F800FF00
07F800FF00
3FFFFFFFE0
FFFFFFFFF8
FFFFFFFFF8
FFFFFFFFF8
FFFFFFFFF8
FFFFFFFFF8
7FFFFFFFE0
07F000FE00
07F000FE00
07F000FE00
0FF000FE00
0FF000FE00
0FF000FE00
0FF001FE00
0FE001FE00
0FE001FE00
0FE001FC00
0FE001FC00
0FE001FC00
0FE001FC00
0FE001FC00
0FE001FC00
0FE001FC00
1FE001FC00
1FE001FC00
1FE001FC00
1FC003FC00
1FC003FC00
1FC003F800
1FC003F800
1FC003F800
1FC003F800
1FC003F800
1FC003F800
1FC003F800
1FC003F800
1FC003F800
3FC003F800
3F8007F800
3F8007F800
3F8007F800
3F8007F000
3F8007F000
3F8007F000
3F8007F000
3F8007F000
3F8007F000
3F8007F000
3F8007F000
3F8007F000
7F0007F000
7F000FF000
7F000FF000
7F000FE000
7F000FE000
7F000FE000
7F000FE000
7F0007E000
3E0007C000
1C00038000
ENDCHAR
STARTCHAR 0024
ENCODING 36
SWIDTH 238 0
DWIDTH 43 0
BBX 34 135 5 -6
BITMAP
0001C00000
0003C00000
0007E00000
000FFE0000
007FFF8000
00FFFFE000
03FFFFF000
07FFFFF800
0FFFFFFC00
0FFFFFFE00
1FFFE7FE00
3FE7E1FF00
3FC7E0FF00
3F87E07F00
7F07E07F80
7F07E07F80
7F07E03F80
7E07E03F80
FE07E03F80
FE07E03FC0
FE07E03FC0
FE07E03FC0
FE07E03FC0
FE07E03FC0
FE07E03FC0
FE07E03FC0
FE07E03FC0
FE07E03FC0
FE07E03FC0
FE07E03FC0
FE07E03FC0
FE07E03F80
FE07E01F80
FE07E00E00
FE07E00000
FE07E00000
FE07E00000
FE07E00000
FE07E00000
FE07E00000
FE07E00000
FE07E00000
FE07E00000
FE07E00000
FE07E00000
FE07E00000
FE07E00000
FE07E00000
FE07E00000
FE07E00000
FE07E00000
FE07E00000
FE07E00000
FE07E00000
FE07E00000
FE07E00000
FE07E00000
FE07E00000
FE07E00000
FE07E00000
FE07E00000
FE07E00000
FE07E00000
FE07E00000
FE07E00000
FE07E00000
FE07E00000
FE07E00000
7E07E00000
7E07E00000
7F07E00000
7F07E00000
7F87E00000
3FF7E00000
3FFFE00000
3FFFFC0000
1FFFFF8000
0FFFFFE000
07FFFFF000
01FFFFF800
003FFFFC00
0007FFFE00
0007EFFE00
0007E3FF00
0007E0FF00
0007E07F00
0007E07F00
0007E07F80
0007E03F80
0007E03F80
0007E03F80
0007E03F80
0007E03F80
0007E03F80
0007E03F80
0007E03F80
0007E03F80
0007E03F80
3007E03F80
7C07E03F80
FC07E03F80
FE07E03F80
FE07E03F80
FE07E03F80
FE07E03F80
FE07E03F80
FE07E03F80
FE07E03F80
FE07E03F80
FE07E03F80
FE07E03F80
FE07E03F80
FE07E03F80
FE07E03F80
FE07E03F80
FE07E03F80
FE07E03F80
7E07E07F00
7F07E07F00
7F07E07F00
7F87E0FF00
3FC7E1FE00
3FF7E3FE00
1FFFFFFC00
0FFFFFFC00
07FFFFF800
03FFFFF000
01FFFFE000
007FFFC000
000FFE0000
0007E00000
0007E00000
0007E00000
0007E00000
0003C00000
ENDCHAR
STARTCHAR 0025
ENCODING 37
SWIDTH 505 0
DWIDTH 91 0
BBX 67 129 12 -2
BITMAP
01FC0000000F000000
0FFF8000000F800000
1FFFC000001F800000
3FFFE000001F800000
3FFFE000001F800000
7FFFF000001F800000
7F03F000003F800000
7E01F000003F000000
FE01F800003F000000
FC01F800003F000000
FC01F800003F000000
FC01F800007F000000
FC01F800007E000000
FC01F800007E000000
FC01F800007E000000
FC01F800007E000000
FC01F80000FE000000
FC01F80000FC000000
FC01F80000FC000000
FC01F80000FC000000
FC01F80000FC000000
FC01F80001FC000000
FC01F80001F8000000
FC01F80001F8000000
FC01F80001F8000000
FC01F80001F8000000
FC01F80003F8000000
FC01F80003F0000000
FC01F80003F0000000
FC01F80003F0000000
FC01F80003F0000000
FC01F80007F0000000
FC01F80007E0000000
FC01F80007E0000000
FC01F80007E0000000
FC01F80007E0000000
FC01F8000FE0000000
FC01F8000FC0000000
FC01F8000FC0000000
FC01F8000FC0000000
FC01F8000FC0000000
FC01F8001FC0000000
FC01F8001F80000000
FC01F8001F80000000
FC01F8001F80000000
FC01F8001F80000000
FC01F8003F80000000
FC01F8003F00000000
FC01F8003F00000000
FC01F8003F00000000
FC01F8007F00000000
FC01F8007F00000000
FC01F8007E0007F000
FC01F8007E001FFC00
FC01F8007E003FFF00
FC01F800FE007FFF80
FC01F800FE00FFFF80
FC01F800FC01FFFFC0
FC01F800FC01FC1FC0
FC01F800FC01F80FC0
FC01F801FC03F80FE0
FC01F801F803F007E0
FC01F801F803F007E0
FC01F801F803F007E0
FC01F801F803F007E0
FC01F803F803F007E0
FC01F803F003F007E0
FC01F803F003F007E0
FC03F803F003F007E0
7E03F003F003F007E0
7F07F007F003F007E0
7FFFF007E003F007E0
3FFFE007E003F007E0
3FFFE007E003F007E0
1FFFC007E003F007E0
0FFF800FE003F007E0
01FC000FC003F007E0
0000000FC003F007E0
0000000FC003F007E0
0000000FC003F007E0
0000001FC003F007E0
0000001F8003F007E0
0000001F8003F007E0
0000001F8003F007E0
0000001F8003F007E0
0000003F8003F007E0
0000003F0003F007E0
0000003F0003F007E0
0000003F0003F007E0
0000003F0003F007E0
0000007F0003F007E0
0000007E0003F007E0
0000007E0003F007E0
0000007E0003F007E0
000000FE0003F007E0
000000FE0003F007E0
000000FC0003F007E0
000000FC0003F007E0
000000FC0003F007E0
000001FC0003F007E0
000001FC0003F007E0
000001F80003F007E0
000001F80003F007E0
000001F80003F007E0
000003F80003F007E0
000003F80003F007E0
000003F00003F007E0
000003F00003F007E0
000003F00003F007E0
000007F00003F007E0
000007E00003F007E0
000007E00003F007E0
000007E00003F007E0
000007E00003F007E0
00000FE00003F007E0
00000FC00003F007E0
00000FC00003F007E0
00000FC00003F007E0
00000FC00003F007E0
00001FC00003F007E0
00001F800003F00FE0
00001F800001F80FC0
00001F800001F81FC0
00001F800001FFFFC0
00003F800000FFFF80
00003F0000007FFF00
00003F0000007FFE00
00001E0000001FFC00
00001E00000007F000
ENDCHAR
STARTCHAR 0026
ENCODING 38
SWIDTH 238 0
DWIDTH 43 0
BBX 39 129 4 -2
BITMAP
000FFC0000
007FFF8000
01FFFFE000
07FFFFF000
0FFFFFF800
1FFFFFFC00
1FFFFFFE00
3FE001FF00
3FC000FF00
7F80007F00
7F00003F80
7F00003F80
7F00003F80
FE00001FC0
FE00001FC0
FE00001FC0
FE00001FC0
FE00001FC0
FE00001FC0
FE00001FC0
FE00001FC0
FE00001FC0
FE00001FC0
FE00001FC0
FE00001FC0
FE00001FC0
FE00001FC0
FE00001FC0
FE00001FC0
FE00000F80
FE00000200
FE00000000
FE00000000
FE00000000
FE00000000
FE00000000
FE00000000
FE00000000
FE00000000
FE00000000
FE00000000
FE00000000
FE00000000
FE00000000
FE00000000
FE00000000
FE00000000
FE00000000
FE00000000
FE00000000
FE00000000
FE00000000
FE00000000
FE00000000
FE00000000
FE00000000
FE00000000
7F00000000
7F80000000
7FC0000000
3FF0000000
1FFFFF8000
0FFFFFE000
07FFFFE000
07FFFFE000
1FFFFFE000
3FFFFFE000
7FFFFFC000
7FF8000000
7FE0000000
FF80000000
FF80000000
FF00000000
FF00000000
FF00000000
FE00000000
FE00000000
FE00000000
FE00000000
FE00000000
FE00000000
FE00000000
FE00000000
FE00000000
FE00000000
FE00000000
FE00000000
FE00000000
FE00000000
FE003FFFF8
FE007FFFFC
FE00FFFFFE
FE00FFFFFE
FE00FFFFFE
FE007FFFFC
FE001FFFF0
FE00001FC0
FE00001FC0
FE00001FC0
FE00001FC0
FE00001FC0
FE00001FC0
FE00001FC0
FE00001FC0
FE00001FC0
FE00001FC0
FE00001FC0
FE00001FC0
FE00001FC0
FE00001FC0
FE00001FC0
FE00001FC0
FE00001FC0
FE00001FC0
FE00001FC0
FE00001FC0
7E00003F80
7F00003F80
7F00003F80
7F80007F80
3F8000FF00
3FE003FF00
1FFFFFFE00
0FFFFFFC00
0FFFFFF800
03FFFFF000
01FFFFE000
007FFF8000
000FFC0000
ENDCHAR
STARTCHAR 0027
ENCODING 39
SWIDTH 138 0
DWIDTH 25 0
BBX 7 37 9 88
BITMAP
38
7C
FE
FE
FE
FE
FE
FE
FE
FE
FE
FE
FE
FE
FE
FE
FE
FE
FE
FE
FE
FE
FE
FE
FE
FE
FE
FE
FE
FE
FE
FE
FE
FE
FE
FE
7C
ENDCHAR
STARTCHAR 0028
ENCODING 40
SWIDTH 138 0
DWIDTH 25 0
BBX 23 127 2 -2
BITMAP
000078
0000FC
0001FE
0003FC
0003FC
0007F8
0007F8
000FF8
000FF0
001FF0
001FE0
001FE0
003FE0
003FC0
007FC0
007FC0
007F80
00FF80
00FF80
00FF00
00FF00
01FF00
01FE00
01FE00
03FE00
03FC00
03FC00
03FC00
07F800
07F800
07F800
07F800
0FF000
0FF000
0FF000
0FF000
1FE000
1FE000
1FE000
1FE000
1FC000
3FC000
3FC000
3FC000
3F8000
3F8000
7F8000
7F8000
7F8000
7F8000
7F0000
7F0000
7F0000
7F0000
FF0000
FF0000
FF0000
FE0000
FE0000
FE0000
FE0000
FE0000
FE0000
FE0000
FE0000
FE0000
FE0000
FE0000
FE0000
FE0000
FE0000
FE0000
FE0000
7E0000
7F0000
7F0000
7F0000
7F0000
7F0000
7F0000
7F8000
3F8000
3F8000
3F8000
3FC000
3FC000
1FC000
1FC000
1FE000
1FE000
0FE000
0FF000
0FF000
0FF000
07F800
07F800
07F800
07FC00
03FC00
03FC00
03FE00
01FE00
01FE00
01FF00
00FF00
00FF00
00FF80
007F80
007F80
007FC0
003FC0
003FC0
003FE0
001FE0
001FE0
000FF0
000FF0
000FF8
0007F8
0007F8
0003FC
0003FC
0001FC
0001FE
0000FE
00007E
00003C
ENDCHAR
STARTCHAR 0029
ENCODING 41
SWIDTH 138 0
DWIDTH 25 0
BBX 23 127 1 -2
BITMAP
3C0000
7E0000
FF0000
7F0000
7F8000
7FC000
3FC000
3FE000
3FE000
1FF000
1FF000
1FF000
0FF800
0FF800
0FFC00
07FC00
07FC00
03FE00
03FE00
03FE00
01FF00
01FF00
01FF00
00FF00
00FF80
00FF80
007F80
007FC0
007FC0
003FC0
003FC0
003FE0
001FE0
001FE0
001FE0
000FE0
000FF0
000FF0
000FF0
0007F0
0007F8
0007F8
0007F8
0007F8
0003F8
0003F8
0003FC
0003FC
0003FC
0001FC
0001FC
0001FC
0001FC
0001FC
0001FE
0001FE
0001FE
0000FE
0000FE
0000FE
0000FE
0000FE
0000FE
0000FE
0000FE
0000FE
0000FE
0000FE
0000FE
0000FE
0000FE
0000FE
0000FE
0000FC
0001FC
0001FC
0001FC
0001FC
0001FC
0001FC
0003FC
0003F8
0003F8
0003F8
0003F8
0007F8
0007F0
0007F0
000FF0
000FF0
000FE0
000FE0
001FE0
001FE0
001FC0
003FC0
003FC0
003FC0
007F80
007F80
007F80
00FF00
00FF00
00FF00
01FF00
01FE00
01FE00
03FE00
03FC00
07FC00
07F800
07F800
0FF800
0FF000
0FF000
1FF000
1FE000
1FE000
3FC000
3FC000
7F8000
7F8000
7F0000
FF0000
FE0000
FC0000
780000
ENDCHAR
STARTCHAR 002A
ENCODING 42
SWIDTH 238 0
DWIDTH 43 0
BBX 41 40 1 86
BITMAP
00001C000000
00003E000000
00003E000000
00007F000000
00007F000000
00007F000000
00007F000000
00007F000000
00007F000000
00007F000000
00007F000000
00007F000000
00007F000000
7E007F003F00
FFC07F03FF00
FFFC7F1FFF00
FFFFFFFFFF80
7FFFFFFFFF00
7FFFFFFFFF00
1FFFFFFFFC00
07FFFFFFF000
00FFFFFF8000
001FFFFC0000
0003FFE00000
0003FFE00000
0007FFE00000
000FFFF00000
000FFFF80000
001FF7F80000
003FE3FC0000
003FC3FE0000
007FC1FE0000
00FF80FF0000
00FF00FF8000
01FF007F8000
01FE003FC000
01FC003FC000
01FC001FC000
01F8000F8000
006000020000
ENDCHAR
STARTCHAR 002B
ENCODING 43
SWIDTH 505 0
DWIDTH 91 0
BBX 83 86 4 -1
BITMAP
0000000000F00000000000
0000000001F80000000000
0000000003FC0000000000
0000000003FC0000000000
0000000003FC0000000000
0000000003FC0000000000
0000000003FC0000000000
0000000003FC0000000000
0000000003FC0000000000
0000000003FC0000000000
0000000003FC0000000000
0000000003FC0000000000
0000000003FC0000000000
0000000003FC0000000000
0000000003FC0000000000
0000000003FC0000000000
0000000003FC0000000000
0000000003FC0000000000
0000000003FC0000000000
0000000003FC0000000000
0000000003FC0000000000
0000000003FC0000000000
0000000003FC0000000000
0000000003FC0000000000
0000000003FC0000000000
0000000003FC0000000000
0000000003FC0000000000
0000000003FC0000000000
0000000003FC0000000000
0000000003FC0000000000
0000000003FC0000000000
0000000003FC0000000000
0000000003FC0000000000
0000000003FC0000000000
0000000003FC0000000000
0000000003FC0000000000
0000000003FC0000000000
0000000003FC0000000000
0000000003FC0000000000
0000000003FC0000000000
1FFFFFFFFFFFFFFFFFFFC0
7FFFFFFFFFFFFFFFFFFFC0
7FFFFFFFFFFFFFFFFFFFE0
FFFFFFFFFFFFFFFFFFFFE0
FFFFFFFFFFFFFFFFFFFFE0
7FFFFFFFFFFFFFFFFFFFC0
3FFFFFFFFFFFFFFFFFFF80
0000000003FC0000000000
0000000003FC0000000000
0000000003FC0000000000
0000000003FC0000000000
0000000003FC0000000000
0000000003FC0000000000
0000000003FC0000000000
0000000003FC0000000000
0000000003FC0000000000
0000000003FC0000000000
0000000003FC0000000000
0000000003FC0000000000
0000000003FC0000000000
0000000003FC0000000000
0000000003FC0000000000
0000000003FC0000000000
0000000003FC0000000000
0000000003FC0000000000
0000000003FC0000000000
0000000003FC0000000000
0000000003FC0000000000
0000000003FC0000000000
0000000003FC0000000000
0000000003FC0000000000
0000000003FC0000000000
0000000003FC0000000000
0000000003FC0000000000
0000000003FC0000000000
0000000003FC0000000000
0000000003FC0000000000
0000000003FC0000000000
0000000003FC0000000000
0000000003FC0000000000
0000000003FC0000000000
0000000003FC0000000000
0000000003FC0000000000
0000000003FC0000000000
0000000001F80000000000
0000000000F00000000000
ENDCHAR
STARTCHAR 002C
ENCODING 44
SWIDTH 138 0
DWIDTH 25 0
BBX 17 31 4 -8
BITMAP
000E00
001F00
003F80
007F80
007F80
007F80
00FF00
00FF00
01FE00
01FE00
03FE00
03FC00
03FC00
07F800
07F800
0FF000
0FF000
0FE000
1FE000
1FE000
3FC000
3FC000
7F8000
7F8000
7F0000
FF0000
FF0000
FE0000
FE0000
FC0000
780000
ENDCHAR
STARTCHAR 002D
ENCODING 45
SWIDTH 138 0
DWIDTH 25 0
BBX 17 7 4 48
BITMAP
3FFF00
7FFF80
FFFF80
FFFF80
FFFF80
7FFF00
3FFE00
ENDCHAR
STARTCHAR 002E
ENCODING 46
SWIDTH 138 0
DWIDTH 25 0
BBX 11 12 7 -1
BITMAP
0600
3F80
7FC0
7FE0
FFE0
FFE0
FFE0
FFE0
FFE0
7FC0
7FC0
1F80
ENDCHAR
STARTCHAR 002F
ENCODING 47
SWIDTH 138 0
DWIDTH 25 0
BBX 21 127 2 -1
BITMAP
0000F0
0001F8
0003F8
0003F8
0003F8
0003F8
0003F8
0007F8
0007F0
0007F0
0007F0
0007F0
0007F0
0007F0
0007F0
0007F0
000FE0
000FE0
000FE0
000FE0
000FE0
000FE0
000FE0
000FE0
000FE0
001FC0
001FC0
001FC0
001FC0
001FC0
001FC0
001FC0
001FC0
003F80
003F80
003F80
003F80
003F80
003F80
003F80
003F80
003F80
007F00
007F00
007F00
007F00
007F00
007F00
007F00
007F00
00FF00
00FE00
00FE00
00FE00
00FE00
00FE00
00FE00
00FE00
00FE00
01FC00
01FC00
01FC00
01FC00
01FC00
01FC00
01FC00
01FC00
03FC00
03F800
03F800
03F800
03F800
03F800
03F800
03F800
03F800
07F000
07F000
07F000
07F000
07F000
07F000
07F000
07F000
07F000
0FE000
0FE000
0FE000
0FE000
0FE000
0FE000
0FE000
0FE000
1FC000
1FC000
1FC000
1FC000
1FC000
1FC000
1FC000
1FC000
1FC000
3F8000
3F8000
3F8000
3F8000
3F8000
3F8000
3F8000
3F8000
7F0000
7F0000
7F0000
7F0000
7F0000
7F0000
7F0000
7F0000
7F0000
FE0000
FE0000
FE0000
FE0000
FE0000
FE0000
FC0000
780000
ENDCHAR
STARTCHAR 0030
ENCODING 48
SWIDTH 238 0
DWIDTH 43 0
BBX 33 129 5 -2
BITMAP
001FF80000
00FFFF0000
03FFFFC000
07FFFFF000
0FFFFFF800
1FFFFFF800
1FFFFFFC00
3FF007FE00
3FC001FE00
7F8000FE00
7F0000FF00
7F00007F00
7F00007F00
FE00003F80
FE00003F80
FE00003F80
FE00003F80
FE00003F80
FE00003F80
FE00003F80
FE00003F80
FE00003F80
FE00003F80
FE00003F80
FE00003F80
FE00003F80
FE00003F80
FE00003F80
FE00003F80
FE00003F80
FE00003F80
FE00003F80
FE00003F80
FE00003F80
FE00003F80
FE00003F80
FE00003F80
FE00003F80
FE00003F80
FE00003F80
FE00003F80
FE00003F80
FE00003F80
FE00003F80
FE00003F80
FE00003F80
FE00003F80
FE00003F80
FE00003F80
FE00003F80
FE00003F80
FE00003F80
FE00003F80
FE00003F80
FE00003F80
FE00003F80
FE00003F80
FE00003F80
FE00003F80
FE00003F80
FE00003F80
FE00003F80
FE00003F80
FE00003F80
FE00003F80
FE00003F80
FE00003F80
FE00003F80
FE00003F80
FE00003F80
FE00003F80
FE00003F80
FE00003F80
FE00003F80
FE00003F80
FE00003F80
FE00003F80
FE00003F80
FE00003F80
FE00003F80
FE00003F80
FE00003F80
FE00003F80
FE00003F80
FE00003F80
FE00003F80
FE00003F80
FE00003F80
FE00003F80
FE00003F80
FE00003F80
FE00003F80
FE00003F80
FE00003F80
FE00003F80
FE00003F80
FE00003F80
FE00003F80
FE00003F80
FE00003F80
FE00003F80
FE00003F80
FE00003F80
FE00003F80
FE00003F80
FE00003F80
FE00003F80
FE00003F80
FE00003F80
FE00003F80
FE00003F80
FE00003F80
FE00003F80
FE00003F80
FE00003F80
FE00003F80
7F00007F00
7F00007F00
7F00007F00
7F8000FF00
3FC001FE00
3FF00FFE00
1FFFFFFC00
1FFFFFFC00
0FFFFFF800
07FFFFF000
01FFFFC000
00FFFF0000
000FF80000
ENDCHAR
STARTCHAR 0031
ENCODING 49
SWIDTH 111 0
DWIDTH 20 0
BBX 7 127 7 -1
BITMAP
38
7C
FE
FE
FE
FE
FE
FE
FE
FE
FE
FE
FE
FE
FE
FE
FE
FE
FE
FE
FE
FE
FE
FE
FE
FE
FE
FE
FE
FE
FE
FE
FE
FE
FE
FE
FE
FE
FE
FE
FE
FE
FE
FE
FE
FE
FE
FE
FE
FE
FE
FE
FE
FE
FE
FE
FE
FE
FE
FE
FE
FE
FE
FE
FE
FE
FE
FE
FE
FE
FE
FE
FE
FE
FE
FE
FE
FE
FE
FE
FE
FE
FE
FE
FE
FE
FE
FE
FE
FE
FE
FE
FE
FE
FE
FE
FE
FE
FE
FE
FE
FE
FE
FE
FE
FE
FE
FE
FE
FE
FE
FE
FE
FE
FE
FE
FE
FE
FE
FE
FE
FE
FE
FE
FE
7C
38
ENDCHAR
STARTCHAR 0032
ENCODING 50
SWIDTH 238 0
DWIDTH 43 0
BBX 33 128 5 -1
BITMAP
000FF80000
007FFF8000
01FFFFC000
03FFFFF000
07FFFFF800
0FFFFFFC00
1FFFFFFC00
3FF003FE00
3FC001FE00
3F8000FF00
7F80007F00
7F00007F00
7F00007F00
7F00003F80
FF00003F80
FF00003F80
FF00003F80
FF00003F80
FE00003F80
FE00003F80
FE00003F80
FE00003F80
FE00003F80
FE00003F80
FE00003F80
FE00003F80
FE00003F80
FE00003F80
7E00003F80
7E00003F80
3C00003F80
0000003F80
0000003F80
0000003F80
0000003F80
0000003F80
0000003F80
0000003F80
0000003F80
0000003F80
0000003F80
0000003F80
0000003F80
0000003F80
0000003F80
0000003F80
0000003F80
0000003F80
0000003F80
0000003F80
0000003F80
0000003F80
0000003F80
0000003F80
0000003F80
0000003F80
0000003F80
0000003F80
0000003F80
0000003F80
0000003F80
0000003F80
0000003F80
0000003F80
0000003F80
0000003F80
0000003F80
0000003F80
0000003F80
0000003F80
0000007F80
0000007F00
000000FF00
000001FF00
000003FE00
000007FE00
00001FFC00
0000FFFC00
000FFFF800
007FFFF000
01FFFFE000
03FFFF8000
07FFFE0000
0FFFE00000
0FFF000000
1FFC000000
3FF0000000
3FE0000000
3FC0000000
3F80000000
7F80000000
7F00000000
7F00000000
7F00000000
7F00000000
7F00000000
7F00000000
7F00000000
7F00000000
7F00000000
7F00000000
7F00000000
7F00000000
7F00000000
7F00000000
7F00000000
7F00000000
7F00000000
7F00000000
7F00000000
7F00000000
7F00000000
7F00000000
7F00000000
7F00000000
7F00000000
7F00000000
7F00000000
7F00000000
7F00000000
7F00000000
7FFFFFFE00
7FFFFFFF00
7FFFFFFF80
7FFFFFFF80
7FFFFFFF80
3FFFFFFF00
1FFFFFFE00
ENDCHAR
STARTCHAR 0033
ENCODING 51
SWIDTH 238 0
DWIDTH 43 0
BBX 33 129 5 -2
BITMAP
000FF80000
00FFFF0000
01FFFFC000
07FFFFF000
0FFFFFF800
1FFFFFFC00
1FFFFFFC00
3FE007FE00
3FC001FE00
7F8000FF00
7F00007F00
7F00007F00
FF00007F00
FE00003F80
FE00003F80
FE00003F80
FE00003F80
FE00003F80
FE00003F80
FE00003F80
FE00003F80
FE00003F80
FE00003F80
FE00003F80
FE00003F80
FE00003F80
FE00003F80
FE00003F80
FE00003F80
FE00003F80
FC00003F80
7C00003F80
0000003F80
0000003F80
0000003F80
0000003F80
0000003F80
0000003F80
0000003F80
0000003F80
0000003F80
0000003F80
0000003F80
0000003F80
0000003F80
0000003F80
0000003F80
0000003F80
0000003F80
0000003F80
0000003F80
0000003F80
0000003F80
0000003F80
0000007F80
0000007F00
0000007F00
000000FF00
000001FF00
000003FE00
00000FFE00
3FFFFFFC00
7FFFFFF800
FFFFFFF000
FFFFFFF800
FFFFFFFC00
7FFFFFFC00
3FFFFFFE00
00000FFE00
000001FF00
000000FF00
0000007F00
0000007F00
0000007F80
0000003F80
0000003F80
0000003F80
0000003F80
0000003F80
0000003F80
0000003F80
0000003F80
0000003F80
0000003F80
0000003F80
0000003F80
0000003F80
0000003F80
0000003F80
0000003F80
0000003F80
0000003F80
0000003F80
0000003F80
0000003F80
0000003F80
0000003F80
7C00003F80
FC00003F80
FE00003F80
FE00003F80
FE00003F80
FE00003F80
FE00003F80
FE00003F80
FE00003F80
FE00003F80
FE00003F80
FE00003F80
FE00003F80
FE00003F80
FE00003F80
FE00003F80
FE00003F80
FE00003F80
FE00007F80
FF00007F00
7F00007F00
7F0000FF00
7F8000FF00
3FC003FE00
3FF00FFE00
1FFFFFFC00
1FFFFFFC00
0FFFFFF800
07FFFFF000
01FFFFC000
00FFFF8000
000FF80000
ENDCHAR
STARTCHAR 0034
ENCODING 52
SWIDTH 238 0
DWIDTH 43 0
BBX 39 127 4 -1
BITMAP
0000F03800
0001F87C00
0001F8FE00
0001F8FE00
0003F8FE00
0003F8FE00
0003F8FE00
0003F8FE00
0003F8FE00
0003F0FE00
0007F0FE00
0007F0FE00
0007F0FE00
0007F0FE00
0007F0FE00
000FE0FE00
000FE0FE00
000FE0FE00
000FE0FE00
000FE0FE00
001FC0FE00
001FC0FE00
001FC0FE00
001FC0FE00
001FC0FE00
001FC0FE00
003F80FE00
003F80FE00
003F80FE00
003F80FE00
003F80FE00
007F80FE00
007F00FE00
007F00FE00
007F00FE00
007F00FE00
007F00FE00
00FE00FE00
00FE00FE00
00FE00FE00
00FE00FE00
00FE00FE00
01FE00FE00
01FC00FE00
01FC00FE00
01FC00FE00
01FC00FE00
01FC00FE00
03F800FE00
03F800FE00
03F800FE00
03F800FE00
03F800FE00
07F800FE00
07F000FE00
07F000FE00
07F000FE00
07F000FE00
0FF000FE00
0FE000FE00
0FE000FE00
0FE000FE00
0FE000FE00
0FE000FE00
1FE000FE00
1FC000FE00
1FC000FE00
1FC000FE00
1FC000FE00
3FC000FE00
3FC000FE00
3F8000FE00
3F8000FE00
3F8000FE00
3F8000FE00
7F8000FE00
7F0000FE00
7F0000FE00
7F0000FE00
7F0000FE00
FF0000FE00
FFFFFFFFF8
FFFFFFFFFC
FFFFFFFFFE
FFFFFFFFFE
FFFFFFFFFE
FFFFFFFFFC
3FFFFFFFF8
000000FE00
000000FE00
000000FE00
000000FE00
000000FE00
000000FE00
000000FE00
000000FE00
000000FE00
000000FE00
000000FE00
000000FE00
000000FE00
000000FE00
000000FE00
000000FE00
000000FE00
000000FE00
000000FE00
000000FE00
000000FE00
000000FE00
000000FE00
000000FE00
000000FE00
000000FE00
000000FE00
000000FE00
000000FE00
000000FE00
000000FE00
000000FE00
000000FE00
000000FE00
000000FE00
000000FE00
000000FE00
0000007C00
0000003800
ENDCHAR
STARTCHAR 0035
ENCODING 53
SWIDTH 238 0
DWIDTH 43 0
BBX 33 128 5 -2
BITMAP
1FFFFFFE00
3FFFFFFF00
7FFFFFFF80
7FFFFFFF80
7FFFFFFF80
7FFFFFFF00
7FFFFFFE00
7F00000000
7F00000000
7F00000000
7F00000000
7F00000000
7F00000000
7F00000000
7F00000000
7F00000000
7F00000000
7F00000000
7F00000000
7F00000000
7F00000000
7F00000000
7F00000000
7F00000000
7F00000000
7F00000000
7F00000000
7F00000000
7F00000000
7F00000000
7F00000000
7F00000000
7F00000000
7F00000000
7F00000000
7F00000000
7F00000000
7F00000000
7F00000000
7F00000000
7F00000000
7F00000000
7F00000000
7F00000000
7F00000000
7F00000000
7F00000000
7F00000000
7FFFFF0000
7FFFFFE000
7FFFFFF000
7FFFFFF800
7FFFFFFC00
7FFFFFFE00
000003FE00
000000FF00
000000FF00
0000007F00
0000007F00
0000003F80
0000003F80
0000003F80
0000003F80
0000003F80
0000003F80
0000003F80
0000003F80
0000003F80
0000003F80
0000003F80
0000003F80
0000003F80
0000003F80
0000003F80
0000003F80
0000003F80
0000003F80
0000003F80
0000003F80
0000003F80
0000003F80
0000003F80
0000003F80
0000003F80
0000003F80
0000003F80
0000003F80
0000003F80
0000003F80
0000003F80
0000003F80
0000003F80
0000003F80
0000003F80
0000003F80
0000003F80
0000003F80
1000003F80
7C00003F80
7E00003F80
FE00003F80
FE00003F80
FE00003F80
FE00003F80
FE00003F80
FE00003F80
FE00003F80
FE00003F80
FE00003F80
FE00003F80
FE00003F80
FF00003F80
FF00003F80
7F00003F80
7F00003F80
7F00007F00
7F00007F00
7F80007F00
3F8000FF00
3FC001FE00
1FE003FE00
1FFC1FFC00
0FFFFFFC00
07FFFFF800
03FFFFF000
01FFFFC000
007FFF8000
000FF80000
ENDCHAR
STARTCHAR 0036
ENCODING 54
SWIDTH 238 0
DWIDTH 43 0
BBX 33 129 5 -2
BITMAP
001FF80000
00FFFF0000
03FFFFC000
07FFFFF000
0FFFFFF800
1FFFFFF800
3FFFFFFC00
3FF007FE00
7FC001FE00
7F8000FF00
7F00007F00
7F00007F00
FF00007F00
FE00003F80
FE00003F80
FE00003F80
FE00003F80
FE00003F80
FE00003F80
FE00003F80
FE00003F80
FE00003F80
FE00003F80
FE00003F80
FE00003F80
FE00003F80
FE00003F80
FE00003F80
FE00003F80
FE00003F80
FE00003F00
FE00001E00
FE00000000
FE00000000
FE00000000
FE00000000
FE00000000
FE00000000
FE00000000
FE00000000
FE00000000
FE00000000
FE00000000
FE00000000
FE00000000
FE00000000
FE00000000
FE00000000
FE00000000
FE0FF80000
FE7FFF0000
FFFFFFC000
FFFFFFE000
FFFFFFF800
FFFFFFF800
FFFFFFFC00
FFF007FE00
FFC001FE00
FF8000FE00
FF00007F00
FF00007F00
FE00003F00
FE00003F80
FE00003F80
FE00003F80
FE00003F80
FE00003F80
FE00003F80
FE00003F80
FE00003F80
FE00003F80
FE00003F80
FE00003F80
FE00003F80
FE00003F80
FE00003F80
FE00003F80
FE00003F80
FE00003F80
FE00003F80
FE00003F80
FE00003F80
FE00003F80
FE00003F80
FE00003F80
FE00003F80
FE00003F80
FE00003F80
FE00003F80
FE00003F80
FE00003F80
FE00003F80
FE00003F80
FE00003F80
FE00003F80
FE00003F80
FE00003F80
FE00003F80
FE00003F80
FE00003F80
FE00003F80
FE00003F80
FE00003F80
FE00003F80
FE00003F80
FE00003F80
FE00003F80
FE00003F80
FE00003F80
FE00003F80
FE00003F80
FE00003F80
FE00003F80
FE00003F80
FE00003F80
FE00007F80
7E00007F00
7F00007F00
7F0000FF00
7F8000FF00
3FC001FE00
3FF00FFE00
1FFFFFFC00
1FFFFFFC00
0FFFFFF800
07FFFFF000
01FFFFC000
00FFFF0000
000FF80000
ENDCHAR
STARTCHAR 0037
ENCODING 55
SWIDTH 238 0
DWIDTH 43 0
BBX 32 127 7 -1
BITMAP
3FFFFFFC
7FFFFFFE
FFFFFFFF
FFFFFFFF
FFFFFFFF
7FFFFFFF
3FFFFFFF
000000FF
000000FE
000000FE
000001FE
000001FE
000001FE
000001FC
000001FC
000003FC
000003FC
000003FC
000003F8
000003F8
000007F8
000007F8
000007F8
000007F0
000007F0
00000FF0
00000FF0
00000FE0
00000FE0
00000FE0
00001FE0
00001FE0
00001FC0
00001FC0
00001FC0
00003FC0
00003FC0
00003F80
00003F80
00003F80
00007F80
00007F80
00007F00
00007F00
00007F00
0000FF00
0000FF00
0000FE00
0000FE00
0000FE00
0001FE00
0001FE00
0001FC00
0001FC00
0003FC00
0003FC00
0003FC00
0003F800
0003F800
0007F800
0007F800
0007F800
0007F000
0007F000
000FF000
000FF000
000FF000
000FE000
000FE000
001FE000
001FE000
001FC000
001FC000
001FC000
003FC000
003FC000
003F8000
003F8000
003F8000
007F8000
007F8000
007F0000
007F0000
007F0000
00FF0000
00FF0000
00FE0000
00FE0000
00FE0000
01FE0000
01FE0000
01FC0000
01FC0000
03FC0000
03FC0000
03FC0000
03F80000
03F80000
07F80000
07F80000
07F80000
07F00000
07F00000
0FF00000
0FF00000
0FF00000
0FE00000
0FE00000
1FE00000
1FE00000
1FE00000
1FC00000
1FC00000
3FC00000
3FC00000
3F800000
3F800000
3F800000
7F800000
7F800000
7F000000
7F000000
7F000000
7F000000
7F000000
7E000000
3C000000
ENDCHAR
STARTCHAR 0038
ENCODING 56
SWIDTH 238 0
DWIDTH 43 0
BBX 33 129 5 -2
BITMAP
000FF80000
00FFFF0000
01FFFFC000
07FFFFF000
0FFFFFF800
1FFFFFFC00
1FFFFFFC00
3FF00FFE00
3FC003FE00
7F8000FF00
7F0000FF00
7F00007F00
7F00007F00
FE00003F80
FE00003F80
FE00003F80
FE00003F80
FE00003F80
FE00003F80
FE00003F80
FE00003F80
FE00003F80
FE00003F80
FE00003F80
FE00003F80
FE00003F80
FE00003F80
FE00003F80
FE00003F80
FE00003F80
FE00003F80
FE00003F80
FE00003F80
FE00003F80
FE00003F80
FE00003F80
FE00003F80
FE00003F80
FE00003F80
FE00003F80
FE00003F80
FE00003F80
FE00003F80
FE00003F80
FE00003F80
FE00003F80
FE00003F80
FE00003F80
FE00003F80
FE00003F80
FE00003F80
FE00003F80
FE00003F80
FE00003F80
FF00007F80
FF00007F00
FF00007F00
7F8000FF00
7F8000FF00
7FC003FE00
3FF00FFE00
3FFFFFFC00
1FFFFFF800
07FFFFF000
0FFFFFF800
1FFFFFFC00
3FFFFFFC00
3FFFFFFE00
7FF00FFF00
7FC001FF00
7F8000FF00
FF00007F00
FF00007F80
FF00007F80
FE00003F80
FE00003F80
FE00003F80
FE00003F80
FE00003F80
FE00003F80
FE00003F80
FE00003F80
FE00003F80
FE00003F80
FE00003F80
FE00003F80
FE00003F80
FE00003F80
FE00003F80
FE00003F80
FE00003F80
FE00003F80
FE00003F80
FE00003F80
FE00003F80
FE00003F80
FE00003F80
FE00003F80
FE00003F80
FE00003F80
FE00003F80
FE00003F80
FE00003F80
FE00003F80
FE00003F80
FE00003F80
FE00003F80
FE00003F80
FE00003F80
FE00003F80
FE00003F80
FE00003F80
FE00003F80
FE00003F80
FE00003F80
FE00003F80
7F00007F00
7F00007F00
7F00007F00
3F8000FF00
3F8001FE00
3FE003FE00
1FFC1FFC00
0FFFFFFC00
07FFFFF800
03FFFFF000
01FFFFC000
007FFF8000
000FF80000
ENDCHAR
STARTCHAR 0039
ENCODING 57
SWIDTH 238 0
DWIDTH 43 0
BBX 33 129 5 -2
BITMAP
001FF80000
00FFFF0000
03FFFFC000
07FFFFF000
0FFFFFF800
1FFFFFF800
1FFFFFFC00
3FE003FE00
3FC000FE00
7F8000FF00
7F00007F00
7F00007F00
FF00003F00
FE00003F80
FE00003F80
FE00003F80
FE00003F80
FE00003F80
FE00003F80
FE00003F80
FE00003F80
FE00003F80
FE00003F80
FE00003F80
FE00003F80
FE00003F80
FE00003F80
FE00003F80
FE00003F80
FE00003F80
FE00003F80
FE00003F80
FE00003F80
FE00003F80
FE00003F80
FE00003F80
FE00003F80
FE00003F80
FE00003F80
FE00003F80
FE00003F80
FE00003F80
FE00003F80
FE00003F80
FE00003F80
FE00003F80
FE00003F80
FE00003F80
FE00003F80
FE00003F80
FE00003F80
FE00003F80
FE00003F80
FE00003F80
FE00003F80
FE00003F80
FE00003F80
FE00003F80
FE00003F80
FE00003F80
FE00003F80
FE00003F80
FE00003F80
FE00003F80
FE00003F80
FE00003F80
FE00003F80
7F00003F80
7F00007F80
7F00007F80
7F8000FF80
3FC001FF80
3FF007FF80
1FFFFFFF80
1FFFFFFF80
0FFFFFFF80
07FFFFFF80
01FFFFFF80
00FFFFFF80
001FFC3F80
0000003F80
0000003F80
0000003F80
0000003F80
0000003F80
0000003F80
0000003F80
0000003F80
0000003F80
0000003F80
0000003F80
0000003F80
0000003F80
0000003F80
0000003F80
0000003F80
0000003F80
3800003F80
7C00003F80
FE00003F80
FE00003F80
FE00003F80
FE00003F80
FE00003F80
FE00003F80
FE00003F80
FE00003F80
FE00003F80
FE00003F80
FE00003F80
FE00003F80
FE00003F80
FE00003F80
FE00003F80
FE00003F80
FE00003F80
FF00007F00
7F00007F00
7F80007F00
7F8000FF00
3FC001FE00
3FF807FE00
1FFFFFFC00
1FFFFFFC00
0FFFFFF800
07FFFFF000
03FFFFC000
00FFFF8000
001FF80000
ENDCHAR
STARTCHAR 003A
ENCODING 58
SWIDTH 138 0
DWIDTH 25 0
BBX 11 75 7 0
BITMAP
3F00
7FC0
7FC0
FFE0
FFE0
FFE0
FFE0
FFE0
7FC0
7FC0
1F00
0000
0000
0000
0000
0000
0000
0000
0000
0000
0000
0000
0000
0000
0000
0000
0000
0000
0000
0000
0000
0000
0000
0000
0000
0000
0000
0000
0000
0000
0000
0000
0000
0000
0000
0000
0000
0000
0000
0000
0000
0000
0000
0000
0000
0000
0000
0000
0000
0000
0000
0000
0000
0000
3F00
7FC0
FFC0
FFE0
FFE0
FFE0
FFE0
FFE0
7FC0
7FC0
1F00
ENDCHAR
STARTCHAR 003B
ENCODING 59
SWIDTH 138 0
DWIDTH 25 0
BBX 17 81 4 -7
BITMAP
07E000
0FF000
1FF800
1FF800
1FFC00
1FFC00
1FFC00
1FF800
1FF800
0FF000
07E000
000000
000000
000000
000000
000000
000000
000000
000000
000000
000000
000000
000000
000000
000000
000000
000000
000000
000000
000000
000000
000000
000000
000000
000000
000000
000000
000000
000000
000000
000000
000000
000000
000000
000000
000000
000000
000000
000000
000000
000E00
001F00
003F80
007F80
007F80
007F80
00FF00
00FF00
01FE00
01FE00
03FE00
03FC00
03FC00
07F800
07F800
0FF000
0FF000
0FE000
1FE000
1FE000
3FC000
3FC000
7F8000
7F8000
7F0000
FF0000
FF0000
FE0000
FE0000
FC0000
780000
ENDCHAR
STARTCHAR 003C
ENCODING 60
SWIDTH 277 0
DWIDTH 50 0
BBX 42 66 3 9
BITMAP
000000000F00
000000001F80
000000003FC0
000000007FC0
00000001FFC0
00000003FFC0
00000007FF80
0000000FFF00
0000001FFE00
0000003FFC00
0000007FF800
000000FFF000
000001FFC000
000003FF8000
000007FF0000
00001FFE0000
00003FFC0000
00007FF80000
0000FFF00000
0001FFC00000
0003FF800000
0007FF000000
000FFE000000
001FFC000000
003FF8000000
00FFF0000000
01FFC0000000
03FF80000000
07FF00000000
0FFE00000000
1FFC00000000
3FF800000000
7FF000000000
FFE000000000
7FF000000000
1FF800000000
0FFC00000000
07FE00000000
03FF00000000
01FFC0000000
00FFE0000000
007FF0000000
003FF8000000
001FFC000000
000FFE000000
0003FF000000
0001FFC00000
0000FFE00000
00007FF00000
00003FF80000
00001FFC0000
00000FFE0000
000007FF0000
000003FFC000
000000FFE000
0000007FF000
0000003FF800
0000001FFC00
0000000FFE00
00000007FF00
00000003FF80
00000001FF80
00000000FF80
000000003F80
000000001F80
000000000F00
ENDCHAR
STARTCHAR 003D
ENCODING 61
SWIDTH 505 0
DWIDTH 91 0
BBX 83 32 4 25
BITMAP
3FFFFFFFFFFFFFFFFFFF80
7FFFFFFFFFFFFFFFFFFFC0
FFFFFFFFFFFFFFFFFFFFE0
FFFFFFFFFFFFFFFFFFFFE0
FFFFFFFFFFFFFFFFFFFFE0
7FFFFFFFFFFFFFFFFFFFC0
3FFFFFFFFFFFFFFFFFFF80
0000000000000000000000
0000000000000000000000
0000000000000000000000
0000000000000000000000
0000000000000000000000
0000000000000000000000
0000000000000000000000
0000000000000000000000
0000000000000000000000
0000000000000000000000
0000000000000000000000
0000000000000000000000
0000000000000000000000
0000000000000000000000
0000000000000000000000
0000000000000000000000
0000000000000000000000
0000000000000000000000
3FFFFFFFFFFFFFFFFFFF80
7FFFFFFFFFFFFFFFFFFFC0
FFFFFFFFFFFFFFFFFFFFE0
FFFFFFFFFFFFFFFFFFFFE0
FFFFFFFFFFFFFFFFFFFFE0
7FFFFFFFFFFFFFFFFFFFC0
3FFFFFFFFFFFFFFFFFFF80
ENDCHAR
STARTCHAR 003E
ENCODING 62
SWIDTH 277 0
DWIDTH 50 0
BBX 42 66 5 8
BITMAP
380000000000
7E0000000000
FF0000000000
FF8000000000
FFC000000000
FFE000000000
7FF000000000
3FFC00000000
1FFE00000000
0FFF00000000
07FF80000000
03FFC0000000
01FFE0000000
007FF0000000
003FF8000000
001FFC000000
000FFE000000
0007FF800000
0003FFC00000
0001FFE00000
00007FF00000
00003FF80000
00001FFC0000
00000FFE0000
000007FF0000
000003FF8000
000001FFC000
0000007FE000
0000003FF800
0000001FFC00
0000000FFE00
00000007FF00
00000003FF80
00000001FFC0
00000003FF80
00000007FF00
0000000FFE00
0000001FF800
0000003FF000
0000007FE000
000000FFC000
000003FF8000
000007FF0000
00000FFE0000
00001FFC0000
00003FF80000
00007FF00000
0000FFC00000
0003FF800000
0007FF000000
000FFE000000
001FFC000000
003FF8000000
007FF0000000
00FFE0000000
03FFC0000000
07FF00000000
0FFE00000000
1FFC00000000
3FF800000000
7FF000000000
7FE000000000
7FC000000000
7F8000000000
7F0000000000
3C0000000000
ENDCHAR
STARTCHAR 003F
ENCODING 63
SWIDTH 227 0
DWIDTH 41 0
BBX 33 128 4 -1
BITMAP
000FFC0000
007FFF8000
01FFFFE000
07FFFFF000
0FFFFFF800
0FFFFFFC00
1FFFFFFC00
3FE003FE00
3FC001FE00
7F8000FF00
7F00007F00
7F00007F00
7F00007F00
FE00003F80
FE00003F80
FE00003F80
FE00003F80
FE00003F80
FE00003F80
FE00003F80
FE00003F80
FE00003F80
FE00003F80
FE00003F80
FE00003F80
FE00003F80
FE00003F80
FE00003F80
FE00003F80
FE00003F80
7E00003F80
3800003F80
0000003F80
0000003F80
0000003F80
0000003F80
0000003F80
0000003F80
0000003F80
0000003F80
0000003F80
0000003F80
0000003F80
0000003F80
0000003F80
0000003F80
0000003F80
0000003F80
0000003F80
0000003F80
0000003F80
0000003F80
0000003F80
0000003F80
0000003F80
0000003F80
0000003F80
0000003F80
0000003F80
0000003F80
0000003F80
0000003F80
0000003F80
0000003F80
0000003F80
0000003F80
0000003F80
0000003F80
0000003F80
0000003F80
0000003F80
0000003F80
0000003F80
0000003F80
0000003F80
0000003F80
0000003F80
0000003F80
0000003F80
0000003F80
0000003F80
0000003F80
0000007F80
0000007F00
0000007F00
0000007F00
000000FF00
000001FF00
00000FFE00
0007FFFE00
0007FFFC00
0007FFF800
0007FFF000
0007FFC000
0007FE0000
0007F00000
0007F00000
0007F00000
0007F00000
0007F00000
0007F00000
0007F00000
0007F00000
0007F00000
0007F00000
0007F00000
0007F00000
0007F00000
0007F00000
0007F00000
0007F00000
0007F00000
0007F00000
0003E00000
0003E00000
0000000000
0000800000
0007F00000
000FF80000
000FF80000
001FFC0000
001FFC0000
001FFC0000
001FFC0000
001FFC0000
000FF80000
0007F00000
0003E00000
ENDCHAR
STARTCHAR 0040
ENCODING 64
SWIDTH 566 0
DWIDTH 102 0
BBX 88 117 6 -2
BITMAP
0000007FFFFFFFFE000000
000007FFFFFFFFFFE00000
00003FFFFFFFFFFFFC0000
0000FFFFFFFFFFFFFF0000
0001FFFFFFFFFFFFFF8000
0007FFFFFFFFFFFFFFE000
000FFFFFFFFFFFFFFFF000
001FFFC000000003FFF800
003FFE00000000007FFE00
007FF000000000001FFF00
00FFE0000000000007FF80
01FF80000000000001FF80
03FF00000000000000FFC0
07FE000000000000007FE0
07FC000000000000003FF0
0FF8000000000000001FF0
1FF0000000000000000FF8
1FE0000000000000000FF8
3FE00000000000000007FC
3FC00000000000000003FC
3FC00000000000000003FC
7F800000000000000001FE
7F800000000000000001FE
7F000000000000000000FE
7F000000000000000000FE
FF00000001FFFFF00000FF
FE0000000FFFFFF000007F
FE0000003FFFFFF000007F
FE0000007FFFFFF000007F
FE000000FFFFFFF000007F
FE000001FFFFFFF000007F
FE000003FFFFFFF000007F
FE000007FFFFFFF000007F
FE00000FFF0007F000007F
FE00000FFC0007F000007F
FE00001FF00007F000007F
FE00001FE00007F000007F
FE00001FC00007F000007F
FE00003FC00007F000007F
FE00003F800007F000007F
FE00003F800007F000007F
FE00003F000007F000007F
FE00003F000007F000007F
FE00003F000007F000007F
FE00003F000007F000007F
FE00003F000007F000007F
FE00003F000007F000007F
FE00003F000007F000007F
FE00003F000007F000007F
FE00003F000007F000007F
FE00003F000007F000007F
FE00003F000007F000007F
FE00003F000007F000007F
FE00003F000007F000007F
FE00003F000007F000007F
FE00003F000007F000007F
FE00003F000007F000007F
FE00003F000007F000007F
FE00003F000007F000007F
FE00003F000007F000007F
FE00003F000007F000007F
FE00003F000007F000007F
FE00003F000007F000007F
FE00003F000007F000007F
FE00003F000007F000007F
FE00003F000007F000007F
FE00003F000007F000007F
FE00003F000007F000007F
FE00003F000007F000007F
FE00003F000007F000007F
FE00003F000007F000007F
FE00003F000007F000007F
FE00003F000007F000007F
FE00003F000007F000007F
FE00003F000007F000007F
FE00003F000007F000007F
FE00003F000007F000007F
FE00003F000007F000007F
FE00003F000007F000007F
FE00003F000007F000007F
FE00003F000007F000007F
FE00003F000007F000007F
FE00003F000007F000007F
FE00003F000007F000007F
FE00003F000007F000007F
FE00003F000007F000007F
FE00003F000007F000007F
FE00003F000007F000007F
FE00003F000007F000007F
FE00003F000007F000007F
FE00003F000007F000007F
FE00003F000007F000007F
FE00003F000007F000007F
FE00003F000007F000007F
FE00003F000007F000007F
FE00003F000007F000007F
FE00003F000007F000007F
FE00003F000007F000007F
FE00003F000007F000007F
FE00003F000007F000007F
FE00003F000007F000007F
FE00003F000007F000007F
FE00003F000007F000007F
FF00003F80000FF80000FF
7F00001F80000FF80000FE
7F80001FC0001FFC0001FE
7FC0001FE0003FFE0003FE
3FE0000FF0007FFF0007FC
3FF8000FFC01FFFF801FFC
1FFE0007FF07FFFFF07FF8
0FFF8007FFFFFFFFFFFFF0
07FF8003FFFFFF3FFFFFE0
03FF8001FFFFFE1FFFFFC0
01FF80007FFFF80FFFFF80
00FF80003FFFF003FFFF00
003F80000FFFC000FFFC00
0007800001FE00001FE000
ENDCHAR
STARTCHAR 0041
ENCODING 65
SWIDTH 255 0
DWIDTH 46 0
BBX 41 128 0 -1
BITMAP
00000FF80000
00007FFF8000
0001FFFFE000
0007FFFFF000
000FFFFFF800
000FFFFFFC00
001FFFFFFC00
003FC003FE00
003F8001FE00
007F0000FF00
007F00007F00
007F00007F00
007E00007F00
00FE00003F80
00FE00003F80
00FE00003F80
00FE00003F80
00FE00003F80
00FE00003F80
00FE00003F80
00FE00003F80
00FE00003F80
00FE00003F80
00FE00003F80
00FE00003F80
00FE00003F80
00FE00003F80
00FE00003F80
00FE00003F80
00FE00003F80
00FE00003F80
00FE00003F80
00FE00003F80
00FE00003F80
00FE00003F80
00FE00003F80
00FE00003F80
00FE00003F80
00FE00003F80
00FE00003F80
00FE00003F80
00FE00003F80
00FE00003F80
00FE00003F80
00FE00003F80
00FE00003F80
00FE00003F80
00FE00003F80
00FE00003F80
00FE00003F80
00FE00003F80
00FE00003F80
00FE00003F80
00FE00003F80
00FE00003F80
00FE00003F80
00FE00003F80
00FE00003F80
00FE00003F80
00FE00003F80
00FE00003F80
00FE00003F80
00FE00003F80
00FE00003F80
00FE00003F80
00FE00003F80
00FE00003F80
00FE00003F80
00FE00003F80
00FE00003F80
00FE00003F80
00FE00003F80
3FFFFFFFFF80
7FFFFFFFFF80
FFFFFFFFFF80
FFFFFFFFFF80
FFFFFFFFFF80
7FFFFFFFFF80
3FFFFFFFFF80
00FE00003F80
00FE00003F80
00FE00003F80
00FE00003F80
00FE00003F80
00FE00003F80
00FE00003F80
00FE00003F80
00FE00003F80
00FE00003F80
00FE00003F80
00FE00003F80
00FE00003F80
00FE00003F80
00FE00003F80
00FE00003F80
00FE00003F80
00FE00003F80
00FE00003F80
00FE00003F80
00FE00003F80
00FE00003F80
00FE00003F80
00FE00003F80
00FE00003F80
00FE00003F80
00FE00003F80
00FE00003F80
00FE00003F80
00FE00003F80
00FE00003F80
00FE00003F80
00FE00003F80
00FE00003F80
00FE00003F80
00FE00003F80
00FE00003F80
00FE00003F80
00FE00003F80
00FE00003F80
00FE00003F80
00FE00003F80
00FE00003F80
00FE00003F80
00FE00003F80
00FE00003F80
00FE00003F80
007C00001F00
003800000E00
ENDCHAR
STARTCHAR 0042
ENCODING 66
SWIDTH 255 0
DWIDTH 46 0
BBX 41 126 0 0
BITMAP
00FFFFF80000
00FFFFFF8000
00FFFFFFE000
00FFFFFFF000
00FFFFFFF800
00FFFFFFFC00
00FFFFFFFC00
00FE000FFE00
00FE0001FE00
00FE0000FF00
00FE0000FF00
00FE00007F00
00FE00007F00
00FE00007F80
00FE00003F80
00FE00003F80
00FE00003F80
00FE00003F80
00FE00003F80
00FE00003F80
00FE00003F80
00FE00003F80
00FE00003F80
00FE00003F80
00FE00003F80
00FE00003F80
00FE00003F80
00FE00003F80
00FE00003F80
00FE00003F80
00FE00003F80
00FE00003F80
00FE00003F80
00FE00003F80
00FE00003F80
00FE00003F80
00FE00003F80
00FE00003F80
00FE00003F80
00FE00003F80
00FE00003F80
00FE00003F80
00FE00003F80
00FE00003F80
00FE00003F80
00FE00003F80
00FE00003F80
00FE00003F80
00FE00003F80
00FE00003F80
00FE00003F80
00FE00003F80
00FE00003F80
00FE00003F80
00FE00003F80
00FE00003F80
00FE00003F80
00FE00003F80
00FE00003F80
00FE00003F80
00FE00003F80
00FE00003F80
00FE00003F80
00FE00003F80
00FE00007F80
00FE00007F80
00FE00007F00
00FE0000FF00
00FE0001FF00
00FE0003FE00
00FE000FFE00
7FFFFFFFFC00
FFFFFFFFF800
FFFFFFFFF000
FFFFFFFFF800
FFFFFFFFFC00
FFFFFFFFFC00
7FFFFFFFFE00
00FE0007FF00
00FE0001FF00
00FE0000FF00
00FE00007F00
00FE00007F80
00FE00007F80
00FE00003F80
00FE00003F80
00FE00003F80
00FE00003F80
00FE00003F80
00FE00003F80
00FE00003F80
00FE00003F80
00FE00003F80
00FE00003F80
00FE00003F80
00FE00003F80
00FE00003F80
00FE00003F80
00FE00003F80
00FE00003F80
00FE00003F80
00FE00003F80
00FE00003F80
00FE00003F80
00FE00003F80
00FE00003F80
00FE00003F80
00FE00003F80
00FE00003F80
00FE00003F80
00FE00003F80
00FE00003F80
00FE00003F80
00FE00007F00
00FE00007F00
00FE00007F00
00FE0000FF00
00FE0001FE00
00FE0007FE00
00FFFFFFFC00
00FFFFFFFC00
00FFFFFFF800
00FFFFFFF000
00FFFFFFC000
00FFFFFF0000
00FFFFF80000
ENDCHAR
STARTCHAR 0043
ENCODING 67
SWIDTH 227 0
DWIDTH 41 0
BBX 34 129 4 -2
BITMAP
000FFC0000
00FFFF8000
01FFFFE000
07FFFFF800
0FFFFFFC00
1FFFFFFC00
1FFFFFFE00
3FF807FF00
3FC000FF00
7F80007F80
7F00003F80
7F00003F80
FF00003F80
FE00001FC0
FE00001FC0
FE00001FC0
FE00001FC0
FE00001FC0
FE00001FC0
FE00001FC0
FE00001FC0
FE00001FC0
FE00001FC0
FE00001FC0
FE00001FC0
FE00001FC0
FE00001FC0
FE00001FC0
FE00001FC0
FE00001FC0
FE00001FC0
FE00000F80
FE00000000
FE00000000
FE00000000
FE00000000
FE00000000
FE00000000
FE00000000
FE00000000
FE00000000
FE00000000
FE00000000
FE00000000
FE00000000
FE00000000
FE00000000
FE00000000
FE00000000
FE00000000
FE00000000
FE00000000
FE00000000
FE00000000
FE00000000
FE00000000
FE00000000
FE00000000
FE00000000
FE00000000
FE00000000
FE00000000
FE00000000
FE00000000
FE00000000
FE00000000
FE00000000
FE00000000
FE00000000
FE00000000
FE00000000
FE00000000
FE00000000
FE00000000
FE00000000
FE00000000
FE00000000
FE00000000
FE00000000
FE00000000
FE00000000
FE00000000
FE00000000
FE00000000
FE00000000
FE00000000
FE00000000
FE00000000
FE00000000
FE00000000
FE00000000
FE00000000
FE00000000
FE00000000
FE00000000
FE00000000
FE00000600
FE00000F80
FE00001FC0
FE00001FC0
FE00001FC0
FE00001FC0
FE00001FC0
FE00001FC0
FE00001FC0
FE00001FC0
FE00001FC0
FE00001FC0
FE00001FC0
FE00001FC0
FE00001FC0
FE00001FC0
FE00001FC0
FE00001FC0
FE00001FC0
FE00001FC0
7F00003F80
7F00003F80
7F00007F80
7F80007F80
3FC001FF00
3FF807FF00
1FFFFFFE00
1FFFFFFE00
0FFFFFFC00
07FFFFF800
03FFFFE000
00FFFF8000
000FFC0000
ENDCHAR
STARTCHAR 0044
ENCODING 68
SWIDTH 244 0
DWIDTH 44 0
BBX 33 126 5 0
BITMAP
FFFFF80000
FFFFFF8000
FFFFFFE000
FFFFFFF000
FFFFFFF800
FFFFFFFC00
FFFFFFFC00
FE000FFE00
FE0001FE00
FE0000FF00
FE0000FF00
FE00007F00
FE00007F00
FE00003F80
FE00003F80
FE00003F80
FE00003F80
FE00003F80
FE00003F80
FE00003F80
FE00003F80
FE00003F80
FE00003F80
FE00003F80
FE00003F80
FE00003F80
FE00003F80
FE00003F80
FE00003F80
FE00003F80
FE00003F80
FE00003F80
FE00003F80
FE00003F80
FE00003F80
FE00003F80
FE00003F80
FE00003F80
FE00003F80
FE00003F80
FE00003F80
FE00003F80
FE00003F80
FE00003F80
FE00003F80
FE00003F80
FE00003F80
FE00003F80
FE00003F80
FE00003F80
FE00003F80
FE00003F80
FE00003F80
FE00003F80
FE00003F80
FE00003F80
FE00003F80
FE00003F80
FE00003F80
FE00003F80
FE00003F80
FE00003F80
FE00003F80
FE00003F80
FE00003F80
FE00003F80
FE00003F80
FE00003F80
FE00003F80
FE00003F80
FE00003F80
FE00003F80
FE00003F80
FE00003F80
FE00003F80
FE00003F80
FE00003F80
FE00003F80
FE00003F80
FE00003F80
FE00003F80
FE00003F80
FE00003F80
FE00003F80
FE00003F80
FE00003F80
FE00003F80
FE00003F80
FE00003F80
FE00003F80
FE00003F80
FE00003F80
FE00003F80
FE00003F80
FE00003F80
FE00003F80
FE00003F80
FE00003F80
FE00003F80
FE00003F80
FE00003F80
FE00003F80
FE00003F80
FE00003F80
FE00003F80
FE00003F80
FE00003F80
FE00003F80
FE00003F80
FE00003F80
FE00003F80
FE00003F80
FE00003F80
FE00007F00
FE00007F00
FE00007F00
FE0000FF00
FE0001FE00
FE0007FE00
FFFFFFFC00
FFFFFFF800
FFFFFFF800
FFFFFFF000
FFFFFFC000
FFFFFF0000
FFFFF80000
ENDCHAR
STARTCHAR 0045
ENCODING 69
SWIDTH 227 0
DWIDTH 41 0
BBX 39 127 0 -1
BITMAP
003FFFFFFC
007FFFFFFE
00FFFFFFFE
00FFFFFFFE
00FFFFFFFE
00FFFFFFFE
00FFFFFFFC
00FE000000
00FE000000
00FE000000
00FE000000
00FE000000
00FE000000
00FE000000
00FE000000
00FE000000
00FE000000
00FE000000
00FE000000
00FE000000
00FE000000
00FE000000
00FE000000
00FE000000
00FE000000
00FE000000
00FE000000
00FE000000
00FE000000
00FE000000
00FE000000
00FE000000
00FE000000
00FE000000
00FE000000
00FE000000
00FE000000
00FE000000
00FE000000
00FE000000
00FE000000
00FE000000
00FE000000
00FE000000
00FE000000
00FE000000
00FE000000
00FE000000
00FE000000
00FE000000
00FE000000
00FE000000
00FE000000
00FE000000
00FE000000
00FE000000
00FE000000
00FE000000
00FE000000
00FE000000
00FE000000
00FE000000
00FE000000
00FE000000
00FE000000
00FE000000
00FE000000
00FE000000
00FE000000
00FE000000
00FE000000
3FFFFFFFF8
7FFFFFFFFE
FFFFFFFFFE
FFFFFFFFFE
FFFFFFFFFE
7FFFFFFFFE
3FFFFFFFFC
00FE000000
00FE000000
00FE000000
00FE000000
00FE000000
00FE000000
00FE000000
00FE000000
00FE000000
00FE000000
00FE000000
00FE000000
00FE000000
00FE000000
00FE000000
00FE000000
00FE000000
00FE000000
00FE000000
00FE000000
00FE000000
00FE000000
00FE000000
00FE000000
00FE000000
00FE000000
00FE000000
00FE000000
00FE000000
00FE000000
00FE000000
00FE000000
00FE000000
00FE000000
00FE000000
00FE000000
00FE000000
00FE000000
00FE000000
00FE000000
00FE000000
00FE000000
00FFFFFFFC
00FFFFFFFE
00FFFFFFFE
00FFFFFFFE
00FFFFFFFE
007FFFFFFE
003FFFFFFC
ENDCHAR
STARTCHAR 0046
ENCODING 70
SWIDTH 227 0
DWIDTH 41 0
BBX 39 127 0 -1
BITMAP
003FFFFFFC
007FFFFFFE
00FFFFFFFE
00FFFFFFFE
00FFFFFFFE
00FFFFFFFE
00FFFFFFF8
00FE000000
00FE000000
00FE000000
00FE000000
00FE000000
00FE000000
00FE000000
00FE000000
00FE000000
00FE000000
00FE000000
00FE000000
00FE000000
00FE000000
00FE000000
00FE000000
00FE000000
00FE000000
00FE000000
00FE000000
00FE000000
00FE000000
00FE000000
00FE000000
00FE000000
00FE000000
00FE000000
00FE000000
00FE000000
00FE000000
00FE000000
00FE000000
00FE000000
00FE000000
00FE000000
00FE000000
00FE000000
00FE000000
00FE000000
00FE000000
00FE000000
00FE000000
00FE000000
00FE000000
00FE000000
00FE000000
00FE000000
00FE000000
00FE000000
00FE000000
00FE000000
00FE000000
00FE000000
00FE000000
00FE000000
00FE000000
00FE000000
00FE000000
00FE000000
00FE000000
00FE000000
00FE000000
00FE000000
00FE000000
3FFFFFFFF8
7FFFFFFFFE
FFFFFFFFFE
FFFFFFFFFE
FFFFFFFFFE
7FFFFFFFFE
3FFFFFFFFC
00FE000000
00FE000000
00FE000000
00FE000000
00FE000000
00FE000000
00FE000000
00FE000000
00FE000000
00FE000000
00FE000000
00FE000000
00FE000000
00FE000000
00FE000000
00FE000000
00FE000000
00FE000000
00FE000000
00FE000000
00FE000000
00FE000000
00FE000000
00FE000000
00FE000000
00FE000000
00FE000000
00FE000000
00FE000000
00FE000000
00FE000000
00FE000000
00FE000000
00FE000000
00FE000000
00FE000000
00FE000000
00FE000000
00FE000000
00FE000000
00FE000000
00FE000000
00FE000000
00FE000000
00FE000000
00FE000000
00FE000000
007C000000
0038000000
ENDCHAR
STARTCHAR 0047
ENCODING 71
SWIDTH 244 0
DWIDTH 44 0
BBX 35 129 4 -2
BITMAP
000FFE0000
007FFFC000
01FFFFF000
07FFFFF800
0FFFFFFC00
1FFFFFFE00
1FFFFFFF00
3FF803FF80
3FC000FF80
7F80007F80
7F00003FC0
7F00003FC0
7F00001FC0
FE00001FE0
FE00001FE0
FE00001FE0
FE00001FE0
FE00001FE0
FE00001FE0
FE00001FE0
FE00001FE0
FE00001FE0
FE00001FE0
FE00001FE0
FE00001FE0
FE00001FE0
FE00001FE0
FE00001FE0
FE00001FE0
FE00000FE0
FE00000FE0
FE000007C0
FE00000000
FE00000000
FE00000000
FE00000000
FE00000000
FE00000000
FE00000000
FE00000000
FE00000000
FE00000000
FE00000000
FE00000000
FE00000000
FE00000000
FE00000000
FE00000000
FE00000000
FE00000000
FE00000000
FE00000000
FE00000000
FE00000000
FE00000000
FE00000000
FE00000000
FE00000000
FE00000000
FE00000000
FE00000000
FE00000000
FE00000000
FE00000000
FE00000000
FE00000000
FE00000000
FE00000000
FE00000000
FE00000000
FE00000000
FE00000000
FE001FFF80
FE007FFFC0
FE007FFFE0
FE007FFFE0
FE007FFFE0
FE007FFFE0
FE001FFFE0
FE00000FE0
FE00000FE0
FE00000FE0
FE00000FE0
FE00000FE0
FE00000FE0
FE00000FE0
FE00000FE0
FE00000FE0
FE00000FE0
FE00000FE0
FE00000FE0
FE00000FE0
FE00000FE0
FE00000FE0
FE00000FE0
FE00000FE0
FE00000FE0
FE00000FE0
FE00000FE0
FE00000FE0
FE00000FE0
FE00000FE0
FE00000FE0
FE00000FE0
FE00000FE0
FE00000FE0
FE00000FE0
FE00000FE0
FE00000FE0
FE00000FE0
FE00000FE0
FE00000FE0
FE00000FE0
FE00000FE0
FE00000FE0
FE00000FE0
7F00001FC0
7F00001FC0
7F80001FC0
7F80003FC0
3FE0007F80
3FF803FF80
1FFFFFFF00
0FFFFFFE00
07FFFFFE00
03FFFFFC00
01FFFFF000
007FFFC000
0007FE0000
ENDCHAR
STARTCHAR 0048
ENCODING 72
SWIDTH 255 0
DWIDTH 46 0
BBX 41 127 0 -1
BITMAP
003800000E00
007C00001F00
00FE00003F80
00FE00003F80
00FE00003F80
00FE00003F80
00FE00003F80
00FE00003F80
00FE00003F80
00FE00003F80
00FE00003F80
00FE00003F80
00FE00003F80
00FE00003F80
00FE00003F80
00FE00003F80
00FE00003F80
00FE00003F80
00FE00003F80
00FE00003F80
00FE00003F80
00FE00003F80
00FE00003F80
00FE00003F80
00FE00003F80
00FE00003F80
00FE00003F80
00FE00003F80
00FE00003F80
00FE00003F80
00FE00003F80
00FE00003F80
00FE00003F80
00FE00003F80
00FE00003F80
00FE00003F80
00FE00003F80
00FE00003F80
00FE00003F80
00FE00003F80
00FE00003F80
00FE00003F80
00FE00003F80
00FE00003F80
00FE00003F80
00FE00003F80
00FE00003F80
00FE00003F80
00FE00003F80
00FE00003F80
00FE00003F80
00FE00003F80
00FE00003F80
00FE00003F80
00FE00003F80
00FE00003F80
00FE00003F80
00FE00003F80
00FE00003F80
00FE00003F80
00FE00003F80
00FE00003F80
00FE00003F80
00FE00003F80
00FE00003F80
00FE00003F80
00FE00003F80
00FE00003F80
00FE00003F80
00FE00003F80
00FE00003F80
3FFFFFFFFF80
7FFFFFFFFF80
FFFFFFFFFF80
FFFFFFFFFF80
FFFFFFFFFF80
7FFFFFFFFF80
3FFFFFFFFF80
00FE00003F80
00FE00003F80
00FE00003F80
00FE00003F80
00FE00003F80
00FE00003F80
00FE00003F80
00FE00003F80
00FE00003F80
00FE00003F80
00FE00003F80
00FE00003F80
00FE00003F80
00FE00003F80
00FE00003F80
00FE00003F80
00FE00003F80
00FE00003F80
00FE00003F80
00FE00003F80
00FE00003F80
00FE00003F80
00FE00003F80
00FE00003F80
00FE00003F80
00FE00003F80
00FE00003F80
00FE00003F80
00FE00003F80
00FE00003F80
00FE00003F80
00FE00003F80
00FE00003F80
00FE00003F80
00FE00003F80
00FE00003F80
00FE00003F80
00FE00003F80
00FE00003F80
00FE00003F80
00FE00003F80
00FE00003F80
00FE00003F80
00FE00003F80
00FE00003F80
00FE00003F80
00FE00003F80
007C00001F00
003800000E00
ENDCHAR
STARTCHAR 0049
ENCODING 73
SWIDTH 88 0
DWIDTH 16 0
BBX 7 127 4 -1
BITMAP
38
7C
FE
FE
FE
FE
FE
FE
FE
FE
FE
FE
FE
FE
FE
FE
FE
FE
FE
FE
FE
FE
FE
FE
FE
FE
FE
FE
FE
FE
FE
FE
FE
FE
FE
FE
FE
FE
FE
FE
FE
FE
FE
FE
FE
FE
FE
FE
FE
FE
FE
FE
FE
FE
FE
FE
FE
FE
FE
FE
FE
FE
FE
FE
FE
FE
FE
FE
FE
FE
FE
FE
FE
FE
FE
FE
FE
FE
FE
FE
FE
FE
FE
FE
FE
FE
FE
FE
FE
FE
FE
FE
FE
FE
FE
FE
FE
FE
FE
FE
FE
FE
FE
FE
FE
FE
FE
FE
FE
FE
FE
FE
FE
FE
FE
FE
FE
FE
FE
FE
FE
FE
FE
FE
FE
7C
38
ENDCHAR
STARTCHAR 004A
ENCODING 74
SWIDTH 216 0
DWIDTH 39 0
BBX 34 128 0 -2
BITMAP
0000000700
0000000F80
0000001FC0
0000001FC0
0000001FC0
0000001FC0
0000001FC0
0000001FC0
0000001FC0
0000001FC0
0000001FC0
0000001FC0
0000001FC0
0000001FC0
0000001FC0
0000001FC0
0000001FC0
0000001FC0
0000001FC0
0000001FC0
0000001FC0
0000001FC0
0000001FC0
0000001FC0
0000001FC0
0000001FC0
0000001FC0
0000001FC0
0000001FC0
0000001FC0
0000001FC0
0000001FC0
0000001FC0
0000001FC0
0000001FC0
0000001FC0
0000001FC0
0000001FC0
0000001FC0
0000001FC0
0000001FC0
0000001FC0
0000001FC0
0000001FC0
0000001FC0
0000001FC0
0000001FC0
0000001FC0
0000001FC0
0000001FC0
0000001FC0
0000001FC0
0000001FC0
0000001FC0
0000001FC0
0000001FC0
0000001FC0
0000001FC0
0000001FC0
0000001FC0
0000001FC0
0000001FC0
0000001FC0
0000001FC0
0000001FC0
0000001FC0
0000001FC0
0000001FC0
0000001FC0
0000001FC0
0000001FC0
0000001FC0
0000001FC0
0000001FC0
0000001FC0
0000001FC0
0000001FC0
0000001FC0
0000001FC0
0000001FC0
0000001FC0
0000001FC0
0000001FC0
0000001FC0
0000001FC0
0000001FC0
0000001FC0
0000001FC0
0000001FC0
0000001FC0
0000001FC0
0000001FC0
0000001FC0
0000001FC0
0000001FC0
0000001FC0
3800001FC0
7C00001FC0
FE00001FC0
FE00001FC0
FE00001FC0
FE00001FC0
FE00001FC0
FE00001FC0
FE00001FC0
FE00001FC0
FE00001FC0
FE00001FC0
FE00001FC0
FE00001FC0
FE00001FC0
FE00001FC0
FE00001FC0
FE00001FC0
FE00003FC0
7F00003F80
7F00003F80
7F00007F80
7F80007F80
3FC001FF00
3FF007FF00
1FFFFFFE00
0FFFFFFC00
07FFFFFC00
03FFFFF800
01FFFFE000
007FFF8000
000FFC0000
ENDCHAR
STARTCHAR 004B
ENCODING 75
SWIDTH 288 0
DWIDTH 52 0
BBX 53 127 0 -1
BITMAP
003800001E0000
007C00003F0000
00FE00003F8000
00FE00003F8000
00FE00003F8000
00FE00003F8000
00FE00003F8000
00FE00003F8000
00FE00003F8000
00FE00003F8000
00FE00003F8000
00FE00003F8000
00FE00003F8000
00FE00003F8000
00FE00003F8000
00FE00003F8000
00FE00003F8000
00FE00003F8000
00FE00003F8000
00FE00003F8000
00FE00003F8000
00FE00003F8000
00FE00003F8000
00FE00003F8000
00FE00003F8000
00FE00003F8000
00FE00003F8000
00FE00003F8000
00FE00003F8000
00FE00003F8000
00FE00003F8000
00FE00003F8000
00FE00003F8000
00FE00003F8000
00FE00003F8000
00FE00003F8000
00FE00003F8000
00FE00003F8000
00FE00003F8000
00FE00003F8000
00FE00003F8000
00FE00003F8000
00FE00003F8000
00FE00003F8000
00FE00003F8000
00FE00003F8000
00FE00003F8000
00FE00003F8000
00FE00003F8000
00FE00003F8000
00FE00003F8000
00FE00003F8000
00FE00003F8000
00FE00003F8000
00FE00003F8000
00FE00003F8000
00FE00003F8000
00FE00003F8000
00FE00003F8000
00FE00003F8000
00FE00003F8000
00FE00003F8000
00FE00003F8000
00FE00003F8000
00FE00003F8000
00FE00007F8000
00FE00007F0000
00FE00007F0000
00FE0000FF0000
00FE0001FE0000
00FE0007FE0000
7FFFFFFFFC0000
FFFFFFFFF80000
FFFFFFFFF80000
FFFFFFFFF80000
FFFFFFFFFC0000
7FFFFFFFFC0000
3FFFFFFFFE0000
00FE0007FF0000
00FE0001FF0000
00FE0000FF0000
00FE00007F0000
00FE00007F8000
00FE00007F8000
00FE00003F8000
00FE00003F8000
00FE00003F8000
00FE00003F8000
00FE00003F8000
00FE00003F8000
00FE00003F8000
00FE00003F8000
00FE00003F8000
00FE00003F8000
00FE00003F8000
00FE00003F8000
00FE00003F8000
00FE00003F8000
00FE00003F8000
00FE00003F8000
00FE00003F8000
00FE00003F8000
00FE00003F8000
00FE00003F8000
00FE00003F8000
00FE00003F8000
00FE00003F8000
00FE00003F8000
00FE00003F8000
00FE00003F8000
00FE00003F8000
00FE00003F8000
00FE00003F8000
00FE00003F8000
00FE00003F8000
00FE00003FC000
00FE00001FE000
00FE00001FE000
00FE00001FF800
00FE00000FFE00
00FE000007FF80
00FE000007FFE0
00FE000003FFF0
00FE000001FFF8
00FE0000007FF8
007C0000003FF0
003800000007E0
ENDCHAR
STARTCHAR 004C
ENCODING 76
SWIDTH 200 0
DWIDTH 36 0
BBX 31 127 4 -1
BITMAP
38000000
7C000000
FE000000
FE000000
FE000000
FE000000
FE000000
FE000000
FE000000
FE000000
FE000000
FE000000
FE000000
FE000000
FE000000
FE000000
FE000000
FE000000
FE000000
FE000000
FE000000
FE000000
FE000000
FE000000
FE000000
FE000000
FE000000
FE000000
FE000000
FE000000
FE000000
FE000000
FE000000
FE000000
FE000000
FE000000
FE000000
FE000000
FE000000
FE000000
FE000000
FE000000
FE000000
FE000000
FE000000
FE000000
FE000000
FE000000
FE000000
FE000000
FE000000
FE000000
FE000000
FE000000
FE000000
FE000000
FE000000
FE000000
FE000000
FE000000
FE000000
FE000000
FE000000
FE000000
FE000000
FE000000
FE000000
FE000000
FE000000
FE000000
FE000000
FE000000
FE000000
FE000000
FE000000
FE000000
FE000000
FE000000
FE000000
FE000000
FE000000
FE000000
FE000000
FE000000
FE000000
FE000000
FE000000
FE000000
FE000000
FE000000
FE000000
FE000000
FE000000
FE000000
FE000000
FE000000
FE000000
FE000000
FE000000
FE000000
FE000000
FE000000
FE000000
FE000000
FE000000
FE000000
FE000000
FE000000
FE000000
FE000000
FE000000
FE000000
FE000000
FE000000
FE000000
FE000000
FE000000
FE000000
FE000000
FE000000
FFFFFFF8
FFFFFFFE
FFFFFFFE
FFFFFFFE
FFFFFFFE
7FFFFFFE
3FFFFFF8
ENDCHAR
STARTCHAR 004D
ENCODING 77
SWIDTH 383 0
DWIDTH 69 0
BBX 60 128 4 -1
BITMAP
001FFE0001FF0000
00FFFFC00FFFE000
03FFFFE01FFFF800
07FFFFF07FFFFC00
0FFFFFF8FFFFFE00
1FFFFFFDFFFFFF00
3FFFFFFFFFFFFF80
3FF807FFFF00FFC0
7FC000FFFC003FC0
7F80007FF8001FC0
7F00003FF0000FE0
7F00003FE0000FE0
FF00003FE0000FE0
FF00003FE00007F0
FE00001FC00007F0
FE00001FC00007F0
FE00001FC00007F0
FE00001FC00007F0
FE00001FC00007F0
FE00001FC00007F0
FE00001FC00007F0
FE00001FC00007F0
FE00001FC00007F0
FE00001FC00007F0
FE00001FC00007F0
FE00001FC00007F0
FE00001FC00007F0
FE00001FC00007F0
FE00001FC00007F0
FE00001FC00007F0
FE00001FC00007F0
FE00001FC00007F0
FE00001FC00007F0
FE00001FC00007F0
FE00001FC00007F0
FE00001FC00007F0
FE00001FC00007F0
FE00001FC00007F0
FE00001FC00007F0
FE00001FC00007F0
FE00001FC00007F0
FE00001FC00007F0
FE00001FC00007F0
FE00001FC00007F0
FE00001FC00007F0
FE00001FC00007F0
FE00001FC00007F0
FE00001FC00007F0
FE00001FC00007F0
FE00001FC00007F0
FE00001FC00007F0
FE00001FC00007F0
FE00001FC00007F0
FE00001FC00007F0
FE00001FC00007F0
FE00001FC00007F0
FE00001FC00007F0
FE00001FC00007F0
FE00001FC00007F0
FE00001FC00007F0
FE00001FC00007F0
FE00001FC00007F0
FE00001FC00007F0
FE00001FC00007F0
FE00001FC00007F0
FE00001FC00007F0
FE00001FC00007F0
FE00001FC00007F0
FE00001FC00007F0
FE00001FC00007F0
FE00001FC00007F0
FE00001FC00007F0
FE00001FC00007F0
FE00001FC00007F0
FE00001FC00007F0
FE00001FC00007F0
FE00001FC00007F0
FE00001FC00007F0
FE00001FC00007F0
FE00001FC00007F0
FE00001FC00007F0
FE00001FC00007F0
FE00001FC00007F0
FE00001FC00007F0
FE00001FC00007F0
FE00001FC00007F0
FE00001FC00007F0
FE00001FC00007F0
FE00001FC00007F0
FE00001FC00007F0
FE00001FC00007F0
FE00001FC00007F0
FE00001FC00007F0
FE00001FC00007F0
FE00001FC00007F0
FE00001FC00007F0
FE00001FC00007F0
FE00001FC00007F0
FE00001FC00007F0
FE00001FC00007F0
FE00001FC00007F0
FE00001FC00007F0
FE00001FC00007F0
FE00001FC00007F0
FE00001FC00007F0
FE00001FC00007F0
FE00001FC00007F0
FE00001FC00007F0
FE00001FC00007F0
FE00001FC00007F0
FE00001FC00007F0
FE00001FC00007F0
FE00001FC00007F0
FE00001FC00007F0
FE00001FC00007F0
FE00001FC00007F0
FE00001FC00007F0
FE00001FC00007F0
FE00001FC00007F0
FE00001FC00007F0
FE00001FC00007F0
FE00001FC00007F0
FE00001FC00007F0
FE00001FC00007F0
FE00001FC00007F0
FE00001FC00007F0
7C00000F800003E0
3800000F000001C0
ENDCHAR
STARTCHAR 004E
ENCODING 78
SWIDTH 244 0
DWIDTH 44 0
BBX 35 128 4 -1
BITMAP
0007FE0000
383FFFC000
7CFFFFF000
FFFFFFFC00
FFFFFFFE00
FFFFFFFE00
FFFFFFFF00
FFFC03FF80
FFF0007F80
FFC0003FC0
FF80003FC0
FF80001FC0
FF00001FC0
FF00001FE0
FE00000FE0
FE00000FE0
FE00000FE0
FE00000FE0
FE00000FE0
FE00000FE0
FE00000FE0
FE00000FE0
FE00000FE0
FE00000FE0
FE00000FE0
FE00000FE0
FE00000FE0
FE00000FE0
FE00000FE0
FE00000FE0
FE00000FE0
FE00000FE0
FE00000FE0
FE00000FE0
FE00000FE0
FE00000FE0
FE00000FE0
FE00000FE0
FE00000FE0
FE00000FE0
FE00000FE0
FE00000FE0
FE00000FE0
FE00000FE0
FE00000FE0
FE00000FE0
FE00000FE0
FE00000FE0
FE00000FE0
FE00000FE0
FE00000FE0
FE00000FE0
FE00000FE0
FE00000FE0
FE00000FE0
FE00000FE0
FE00000FE0
FE00000FE0
FE00000FE0
FE00000FE0
FE00000FE0
FE00000FE0
FE00000FE0
FE00000FE0
FE00000FE0
FE00000FE0
FE00000FE0
FE00000FE0
FE00000FE0
FE00000FE0
FE00000FE0
FE00000FE0
FE00000FE0
FE00000FE0
FE00000FE0
FE00000FE0
FE00000FE0
FE00000FE0
FE00000FE0
FE00000FE0
FE00000FE0
FE00000FE0
FE00000FE0
FE00000FE0
FE00000FE0
FE00000FE0
FE00000FE0
FE00000FE0
FE00000FE0
FE00000FE0
FE00000FE0
FE00000FE0
FE00000FE0
FE00000FE0
FE00000FE0
FE00000FE0
FE00000FE0
FE00000FE0
FE00000FE0
FE00000FE0
FE00000FE0
FE00000FE0
FE00000FE0
FE00000FE0
FE00000FE0
FE00000FE0
FE00000FE0
FE00000FE0
FE00000FE0
FE00000FE0
FE00000FE0
FE00000FE0
FE00000FE0
FE00000FE0
FE00000FE0
FE00000FE0
FE00000FE0
FE00000FE0
FE00000FE0
FE00000FE0
FE00000FE0
FE00000FE0
FE00000FE0
FE00000FE0
FE00000FE0
FE00000FE0
7C000007E0
78000007C0
ENDCHAR
STARTCHAR 004F
ENCODING 79
SWIDTH 244 0
DWIDTH 44 0
BBX 33 129 5 -2
BITMAP
001FF80000
00FFFF0000
03FFFFC000
07FFFFE000
0FFFFFF000
1FFFFFF800
1FFFFFFC00
3FE003FE00
3FC001FE00
7F8000FE00
7F00007F00
7F00007F00
7F00007F00
FE00003F00
FE00003F80
FE00003F80
FE00003F80
FE00003F80
FE00003F80
FE00003F80
FE00003F80
FE00003F80
FE00003F80
FE00003F80
FE00003F80
FE00003F80
FE00003F80
FE00003F80
FE00003F80
FE00003F80
FE00003F80
FE00003F80
FE00003F80
FE00003F80
FE00003F80
FE00003F80
FE00003F80
FE00003F80
FE00003F80
FE00003F80
FE00003F80
FE00003F80
FE00003F80
FE00003F80
FE00003F80
FE00003F80
FE00003F80
FE00003F80
FE00003F80
FE00003F80
FE00003F80
FE00003F80
FE00003F80
FE00003F80
FE00003F80
FE00003F80
FE00003F80
FE00003F80
FE00003F80
FE00003F80
FE00003F80
FE00003F80
FE00003F80
FE00003F80
FE00003F80
FE00003F80
FE00003F80
FE00003F80
FE00003F80
FE00003F80
FE00003F80
FE00003F80
FE00003F80
FE00003F80
FE00003F80
FE00003F80
FE00003F80
FE00003F80
FE00003F80
FE00003F80
FE00003F80
FE00003F80
FE00003F80
FE00003F80
FE00003F80
FE00003F80
FE00003F80
FE00003F80
FE00003F80
FE00003F80
FE00003F80
FE00003F80
FE00003F80
FE00003F80
FE00003F80
FE00003F80
FE00003F80
FE00003F80
FE00003F80
FE00003F80
FE00003F80
FE00003F80
FE00003F80
FE00003F80
FE00003F80
FE00003F80
FE00003F80
FE00003F80
FE00003F80
FE00003F80
FE00003F80
FE00003F80
FE00003F80
FE00003F80
FE00003F80
FE00003F80
7F00007F00
7F00007F00
7F80007F00
7F8000FF00
3FC001FE00
3FF00FFE00
1FFFFFFC00
1FFFFFFC00
0FFFFFF800
07FFFFF000
03FFFFC000
00FFFF0000
001FF80000
ENDCHAR
STARTCHAR 0050
ENCODING 80
SWIDTH 244 0
DWIDTH 44 0
BBX 41 127 0 -1
BITMAP
00FFFFF80000
00FFFFFF8000
00FFFFFFE000
00FFFFFFF000
00FFFFFFF800
00FFFFFFFC00
00FFFFFFFC00
00FE000FFE00
00FE0001FE00
00FE0000FF00
00FE0000FF00
00FE00007F00
00FE00007F00
00FE00007F80
00FE00003F80
00FE00003F80
00FE00003F80
00FE00003F80
00FE00003F80
00FE00003F80
00FE00003F80
00FE00003F80
00FE00003F80
00FE00003F80
00FE00003F80
00FE00003F80
00FE00003F80
00FE00003F80
00FE00003F80
00FE00003F80
00FE00003F80
00FE00003F80
00FE00003F80
00FE00003F80
00FE00003F80
00FE00003F80
00FE00003F80
00FE00003F80
00FE00003F80
00FE00003F80
00FE00003F80
00FE00003F80
00FE00003F80
00FE00003F80
00FE00003F80
00FE00003F80
00FE00003F80
00FE00003F80
00FE00003F80
00FE00003F80
00FE00003F80
00FE00003F80
00FE00003F80
00FE00003F80
00FE00003F80
00FE00003F80
00FE00003F80
00FE00003F80
00FE00003F80
00FE00003F80
00FE00003F80
00FE00003F80
00FE00003F80
00FE00003F80
00FE00007F80
00FE00007F00
00FE00007F00
00FE0000FF00
00FE0000FE00
00FE0001FE00
00FE000FFE00
3FFFFFFFFC00
7FFFFFFFF800
FFFFFFFFF800
FFFFFFFFE000
FFFFFFFFC000
7FFFFFFF0000
3FFFFFF80000
00FE00000000
00FE00000000
00FE00000000
00FE00000000
00FE00000000
00FE00000000
00FE00000000
00FE00000000
00FE00000000
00FE00000000
00FE00000000
00FE00000000
00FE00000000
00FE00000000
00FE00000000
00FE00000000
00FE00000000
00FE00000000
00FE00000000
00FE00000000
00FE00000000
00FE00000000
00FE00000000
00FE00000000
00FE00000000
00FE00000000
00FE00000000
00FE00000000
00FE00000000
00FE00000000
00FE00000000
00FE00000000
00FE00000000
00FE00000000
00FE00000000
00FE00000000
00FE00000000
00FE00000000
00FE00000000
00FE00000000
00FE00000000
00FE00000000
00FE00000000
00FE00000000
00FE00000000
00FE00000000
00FE00000000
007C00000000
003800000000
ENDCHAR
STARTCHAR 0051
ENCODING 81
SWIDTH 244 0
DWIDTH 44 0
BBX 37 130 5 -3
BITMAP
001FF80000
00FFFF0000
03FFFFC000
07FFFFE000
0FFFFFF000
1FFFFFF800
3FFFFFFC00
3FF00FFE00
7FC001FE00
7F8000FE00
7F0000FF00
7F00007F00
FF00007F00
FE00003F80
FE00003F80
FE00003F80
FE00003F80
FE00003F80
FE00003F80
FE00003F80
FE00003F80
FE00003F80
FE00003F80
FE00003F80
FE00003F80
FE00003F80
FE00003F80
FE00003F80
FE00003F80
FE00003F80
FE00003F80
FE00003F80
FE00003F80
FE00003F80
FE00003F80
FE00003F80
FE00003F80
FE00003F80
FE00003F80
FE00003F80
FE00003F80
FE00003F80
FE00003F80
FE00003F80
FE00003F80
FE00003F80
FE00003F80
FE00003F80
FE00003F80
FE00003F80
FE00003F80
FE00003F80
FE00003F80
FE00003F80
FE00003F80
FE00003F80
FE00003F80
FE00003F80
FE00003F80
FE00003F80
FE00003F80
FE00003F80
FE00003F80
FE00003F80
FE00003F80
FE00003F80
FE00003F80
FE00003F80
FE00003F80
FE00003F80
FE00003F80
FE00003F80
FE00003F80
FE00003F80
FE00003F80
FE00003F80
FE00003F80
FE00003F80
FE00003F80
FE00003F80
FE00003F80
FE00003F80
FE00003F80
FE00003F80
FE00003F80
FE00003F80
FE00003F80
FE00003F80
FE00003F80
FE00003F80
FE00003F80
FE00003F80
FE00003F80
FE00003F80
FE00003F80
FE00003F80
FE00003F80
FE00003F80
FE00003F80
FE00003F80
FE00003F80
FE00003F80
FE00003F80
FE00003F80
FE00003F80
FE00003F80
FE00003F80
FE00003F80
FE00003F80
FE00003F80
FE01E03F80
FE03F83F80
FE03FC3F80
FE03FE3F80
FE03FF7F80
FE01FFFF80
7F007FFF80
7F003FFF00
7F001FFF00
7F800FFF00
3FC003FF00
3FE003FF80
1FFC1FFFC0
1FFFFFFFE0
0FFFFFFFF0
07FFFFFFF8
01FFFFC7F8
007FFF03F8
000FF801F8
0000000070
ENDCHAR
STARTCHAR 0052
ENCODING 82
SWIDTH 288 0
DWIDTH 52 0
BBX 53 127 0 -1
BITMAP
00FFFFFC000000
00FFFFFF800000
00FFFFFFE00000
00FFFFFFF00000
00FFFFFFF80000
00FFFFFFFC0000
00FFFFFFFC0000
00FE0007FE0000
00FE0001FE0000
00FE0000FF0000
00FE00007F0000
00FE00007F0000
00FE00007F0000
00FE00003F8000
00FE00003F8000
00FE00003F8000
00FE00003F8000
00FE00003F8000
00FE00003F8000
00FE00003F8000
00FE00003F8000
00FE00003F8000
00FE00003F8000
00FE00003F8000
00FE00003F8000
00FE00003F8000
00FE00003F8000
00FE00003F8000
00FE00003F8000
00FE00003F8000
00FE00003F8000
00FE00003F8000
00FE00003F8000
00FE00003F8000
00FE00003F8000
00FE00003F8000
00FE00003F8000
00FE00003F8000
00FE00003F8000
00FE00003F8000
00FE00003F8000
00FE00003F8000
00FE00003F8000
00FE00003F8000
00FE00003F8000
00FE00003F8000
00FE00003F8000
00FE00003F8000
00FE00003F8000
00FE00003F8000
00FE00003F8000
00FE00003F8000
00FE00003F8000
00FE00003F8000
00FE00003F8000
00FE00003F8000
00FE00003F8000
00FE00003F8000
00FE00003F8000
00FE00003F8000
00FE00003F8000
00FE00003F8000
00FE00003F8000
00FE00003F8000
00FE00003F8000
00FE00007F8000
00FE00007F0000
00FE00007F0000
00FE0000FF0000
00FE0001FE0000
00FE0007FE0000
3FFFFFFFFC0000
7FFFFFFFF80000
FFFFFFFFF00000
FFFFFFFFF00000
FFFFFFFFF80000
7FFFFFFFFC0000
3FFFFFFFFE0000
00FE0007FE0000
00FE0001FF0000
00FE0000FF0000
00FE0000FF0000
00FE00007F8000
00FE00007F8000
00FE00003F8000
00FE00003F8000
00FE00003F8000
00FE00003F8000
00FE00003F8000
00FE00003F8000
00FE00003F8000
00FE00003F8000
00FE00003F8000
00FE00003F8000
00FE00003F8000
00FE00003F8000
00FE00003F8000
00FE00003F8000
00FE00003F8000
00FE00003F8000
00FE00003F8000
00FE00003F8000
00FE00003F8000
00FE00003F8000
00FE00003F8000
00FE00003F8000
00FE00003F8000
00FE00003F8000
00FE00003F8000
00FE00003F8000
00FE00003F8000
00FE00003F8000
00FE00003F8000
00FE00001FC000
00FE00001FC000
00FE00001FC000
00FE00001FE000
00FE00000FE000
00FE00000FF000
00FE000007FC00
00FE000007FF00
00FE000003FFC0
00FE000001FFF0
00FE000000FFF0
00FE0000007FF8
007C0000001FF0
003800000007E0
ENDCHAR
STARTCHAR 0053
ENCODING 83
SWIDTH 227 0
DWIDTH 41 0
BBX 34 129 4 -2
BITMAP
000FFC0000
00FFFF8000
03FFFFE000
07FFFFF000
0FFFFFF800
1FFFFFFC00
1FFFFFFE00
3FF807FE00
3FC000FF00
7F80007F00
7F00007F80
7F00003F80
7F00003F80
FE00003FC0
FE00001FC0
FE00001FC0
FE00001FC0
FE00001FC0
FE00001FC0
FE00001FC0
FE00001FC0
FE00001FC0
FE00001FC0
FE00001FC0
FE00001FC0
FE00001FC0
FE00001FC0
FE00001FC0
FE00000F80
FE00000700
FE00000000
FE00000000
FE00000000
FE00000000
FE00000000
FE00000000
FE00000000
FE00000000
FE00000000
FE00000000
FE00000000
FE00000000
FE00000000
FE00000000
FE00000000
FE00000000
FE00000000
FE00000000
FE00000000
FE00000000
FE00000000
FE00000000
FE00000000
FE00000000
FE00000000
FE00000000
FE00000000
FE00000000
FE00000000
FE00000000
FE00000000
FE00000000
FE00000000
FE00000000
FF00000000
FF00000000
FF80000000
7FC0000000
7FE0000000
7FF8000000
3FFE000000
1FFFF80000
1FFFFF8000
0FFFFFE000
03FFFFF000
01FFFFF800
003FFFFC00
0001FFFE00
00001FFE00
000007FF00
000001FF00
000000FF80
0000007F80
0000003F80
0000003F80
0000001FC0
0000001FC0
0000001FC0
0000001FC0
0000001FC0
0000001FC0
0000001FC0
0000001FC0
0000001FC0
0000001FC0
0000001FC0
1800001FC0
3E00001FC0
7F00001FC0
7F00001FC0
7F00001FC0
7F00001FC0
7F00001FC0
7F00001FC0
7F00001FC0
7F00001FC0
7F00001FC0
7F00001FC0
7F00001FC0
7F00001FC0
7F00001FC0
7F00001FC0
7F00001FC0
7F00001FC0
7F00001FC0
7F00001FC0
3F80003F80
3F80003F80
3F80003F80
3FC0007F80
1FE000FF00
1FF807FF00
0FFFFFFE00
0FFFFFFE00
07FFFFFC00
03FFFFF800
00FFFFF000
007FFFC000
0007FC0000
ENDCHAR
STARTCHAR 0054
ENCODING 84
SWIDTH 188 0
DWIDTH 34 0
BBX 33 127 0 -1
BITMAP
7FFFFFFE00
7FFFFFFF00
FFFFFFFF80
FFFFFFFF80
7FFFFFFF80
7FFFFFFF00
3FFFFFFE00
0007F00000
0007F00000
0007F00000
0007F00000
0007F00000
0007F00000
0007F00000
0007F00000
0007F00000
0007F00000
0007F00000
0007F00000
0007F00000
0007F00000
0007F00000
0007F00000
0007F00000
0007F00000
0007F00000
0007F00000
0007F00000
0007F00000
0007F00000
0007F00000
0007F00000
0007F00000
0007F00000
0007F00000
0007F00000
0007F00000
0007F00000
0007F00000
0007F00000
0007F00000
0007F00000
0007F00000
0007F00000
0007F00000
0007F00000
0007F00000
0007F00000
0007F00000
0007F00000
0007F00000
0007F00000
0007F00000
0007F00000
0007F00000
0007F00000
0007F00000
0007F00000
0007F00000
0007F00000
0007F00000
0007F00000
0007F00000
0007F00000
0007F00000
0007F00000
0007F00000
0007F00000
0007F00000
0007F00000
0007F00000
0007F00000
0007F00000
0007F00000
0007F00000
0007F00000
0007F00000
0007F00000
0007F00000
0007F00000
0007F00000
0007F00000
0007F00000
0007F00000
0007F00000
0007F00000
0007F00000
0007F00000
0007F00000
0007F00000
0007F00000
0007F00000
0007F00000
0007F00000
0007F00000
0007F00000
0007F00000
0007F00000
0007F00000
0007F00000
0007F00000
0007F00000
0007F00000
0007F00000
0007F00000
0007F00000
0007F00000
0007F00000
0007F00000
0007F00000
0007F00000
0007F00000
0007F00000
0007F00000
0007F00000
0007F00000
0007F00000
0007F00000
0007F00000
0007F00000
0007F00000
0007F00000
0007F00000
0007F00000
0007F00000
0003E00000
0001C00000
ENDCHAR
STARTCHAR 0055
ENCODING 85
SWIDTH 227 0
DWIDTH 41 0
BBX 33 128 4 -2
BITMAP
3800000E00
7C00001F00
FE00003F80
FE00003F80
FE00003F80
FE00003F80
FE00003F80
FE00003F80
FE00003F80
FE00003F80
FE00003F80
FE00003F80
FE00003F80
FE00003F80
FE00003F80
FE00003F80
FE00003F80
FE00003F80
FE00003F80
FE00003F80
FE00003F80
FE00003F80
FE00003F80
FE00003F80
FE00003F80
FE00003F80
FE00003F80
FE00003F80
FE00003F80
FE00003F80
FE00003F80
FE00003F80
FE00003F80
FE00003F80
FE00003F80
FE00003F80
FE00003F80
FE00003F80
FE00003F80
FE00003F80
FE00003F80
FE00003F80
FE00003F80
FE00003F80
FE00003F80
FE00003F80
FE00003F80
FE00003F80
FE00003F80
FE00003F80
FE00003F80
FE00003F80
FE00003F80
FE00003F80
FE00003F80
FE00003F80
FE00003F80
FE00003F80
FE00003F80
FE00003F80
FE00003F80
FE00003F80
FE00003F80
FE00003F80
FE00003F80
FE00003F80
FE00003F80
FE00003F80
FE00003F80
FE00003F80
FE00003F80
FE00003F80
FE00003F80
FE00003F80
FE00003F80
FE00003F80
FE00003F80
FE00003F80
FE00003F80
FE00003F80
FE00003F80
FE00003F80
FE00003F80
FE00003F80
FE00003F80
FE00003F80
FE00003F80
FE00003F80
FE00003F80
FE00003F80
FE00003F80
FE00003F80
FE00003F80
FE00003F80
FE00003F80
FE00003F80
FE00003F80
FE00003F80
FE00003F80
FE00003F80
FE00003F80
FE00003F80
FE00003F80
FE00003F80
FE00003F80
FE00003F80
FE00003F80
FE00003F80
FE00003F80
FE00003F80
FE00003F80
FE00003F80
FE00003F80
FE00003F80
FE00007F80
7F00007F00
7F00007F00
7F0000FF00
7F8000FF00
3FC003FE00
3FF00FFE00
1FFFFFFC00
1FFFFFFC00
0FFFFFF800
07FFFFF000
01FFFFC000
00FFFF8000
000FFC0000
ENDCHAR
STARTCHAR 0056
ENCODING 86
SWIDTH 216 0
DWIDTH 39 0
BBX 39 127 0 -1
BITMAP
7800000038
7C0000007C
FC000000FE
FE000000FE
FE000000FE
FE000000FE
FE000001FE
FF000001FE
FF000001FE
7F000001FC
7F000001FC
7F000001FC
7F000001FC
7F000001FC
7F000003FC
7F800003FC
7F800003F8
3F800003F8
3F800003F8
3F800003F8
3F800003F8
3F800003F8
3F800007F8
3FC00007F8
3FC00007F0
1FC00007F0
1FC00007F0
1FC00007F0
1FC00007F0
1FC00007F0
1FC0000FF0
1FE0000FF0
1FE0000FE0
0FE0000FE0
0FE0000FE0
0FE0000FE0
0FE0000FE0
0FE0000FE0
0FE0001FE0
0FF0001FE0
0FF0001FC0
07F0001FC0
07F0001FC0
07F0001FC0
07F0001FC0
07F0001FC0
07F0001FC0
07F8003FC0
07F8003F80
03F8003F80
03F8003F80
03F8003F80
03F8003F80
03F8003F80
03F8003F80
03FC007F80
01FC007F00
01FC007F00
01FC007F00
01FC007F00
01FC007F00
01FC007F00
01FE007F00
01FE00FF00
00FE00FE00
00FE00FE00
00FE00FE00
00FE00FE00
00FE00FE00
00FE00FE00
00FF00FE00
00FF01FE00
007F01FC00
007F01FC00
007F01FC00
007F01FC00
007F01FC00
007F01FC00
007F81FC00
007F81F800
003F83F800
003F83F800
003F83F800
003F83F800
003F83F800
003F83F800
003FC3F800
003FC3F000
001FC7F000
001FC7F000
001FC7F000
001FC7F000
001FC7F000
001FC7F000
001FE7F000
001FE7E000
000FEFE000
000FEFE000
000FEFE000
000FEFE000
000FEFE000
000FEFE000
000FFFE000
000FFFC000
0007FFC000
0007FFC000
0007FFC000
0007FFC000
0007FFC000
0007FFC000
0007FFC000
0007FF8000
0003FF8000
0003FF8000
0003FF8000
0003FF8000
0003FF8000
0003FF8000
0003FF8000
0003FF0000
0001FF0000
0001FF0000
0001FF0000
0001FF0000
0000FE0000
0000FE0000
0000380000
ENDCHAR
STARTCHAR 0057
ENCODING 87
SWIDTH 383 0
DWIDTH 69 0
BBX 60 128 4 -2
BITMAP
38000007000001C0
7C00000F800003E0
FE00001FC00007F0
FE00001FC00007F0
FE00001FC00007F0
FE00001FC00007F0
FE00001FC00007F0
FE00001FC00007F0
FE00001FC00007F0
FE00001FC00007F0
FE00001FC00007F0
FE00001FC00007F0
FE00001FC00007F0
FE00001FC00007F0
FE00001FC00007F0
FE00001FC00007F0
FE00001FC00007F0
FE00001FC00007F0
FE00001FC00007F0
FE00001FC00007F0
FE00001FC00007F0
FE00001FC00007F0
FE00001FC00007F0
FE00001FC00007F0
FE00001FC00007F0
FE00001FC00007F0
FE00001FC00007F0
FE00001FC00007F0
FE00001FC00007F0
FE00001FC00007F0
FE00001FC00007F0
FE00001FC00007F0
FE00001FC00007F0
FE00001FC00007F0
FE00001FC00007F0
FE00001FC00007F0
FE00001FC00007F0
FE00001FC00007F0
FE00001FC00007F0
FE00001FC00007F0
FE00001FC00007F0
FE00001FC00007F0
FE00001FC00007F0
FE00001FC00007F0
FE00001FC00007F0
FE00001FC00007F0
FE00001FC00007F0
FE00001FC00007F0
FE00001FC00007F0
FE00001FC00007F0
FE00001FC00007F0
FE00001FC00007F0
FE00001FC00007F0
FE00001FC00007F0
FE00001FC00007F0
FE00001FC00007F0
FE00001FC00007F0
FE00001FC00007F0
FE00001FC00007F0
FE00001FC00007F0
FE00001FC00007F0
FE00001FC00007F0
FE00001FC00007F0
FE00001FC00007F0
FE00001FC00007F0
FE00001FC00007F0
FE00001FC00007F0
FE00001FC00007F0
FE00001FC00007F0
FE00001FC00007F0
FE00001FC00007F0
FE00001FC00007F0
FE00001FC00007F0
FE00001FC00007F0
FE00001FC00007F0
FE00001FC00007F0
FE00001FC00007F0
FE00001FC00007F0
FE00001FC00007F0
FE00001FC00007F0
FE00001FC00007F0
FE00001FC00007F0
FE00001FC00007F0
FE00001FC00007F0
FE00001FC00007F0
FE00001FC00007F0
FE00001FC00007F0
FE00001FC00007F0
FE00001FC00007F0
FE00001FC00007F0
FE00001FC00007F0
FE00001FC00007F0
FE00001FC00007F0
FE00001FC00007F0
FE00001FC00007F0
FE00001FC00007F0
FE00001FC00007F0
FE00001FC00007F0
FE00001FC00007F0
FE00001FC00007F0
FE00001FC00007F0
FE00001FC00007F0
FE00001FC00007F0
FE00001FC00007F0
FE00001FC00007F0
FE00001FC00007F0
FE00001FC00007F0
FE00001FC00007F0
FE00001FC00007F0
FE00001FC00007F0
FE00001FC00007F0
FE00001FC00007F0
FE00001FC00007F0
FE00001FC00007F0
FE00003FE00007F0
FF00003FE0000FE0
7F00003FE0000FE0
7F80007FF0000FE0
7F8000FFF8001FE0
3FC001FFFC003FC0
3FF807FFFF00FFC0
3FFFFFFDFFFFFF80
1FFFFFF9FFFFFF80
0FFFFFF0FFFFFF00
07FFFFE07FFFFE00
03FFFFC03FFFFC00
00FFFF001FFFF000
000FF80003FF8000
ENDCHAR
STARTCHAR 0058
ENCODING 88
SWIDTH 216 0
DWIDTH 39 0
BBX 37 127 1 -1
BITMAP
78000000F0
7C000001F0
FC000001F8
FE000003F8
FE000003F8
FE000003F8
FF000003F8
FF000007F8
7F000007F0
7F000007F0
7F800007F0
7F80000FF0
3F80000FF0
3F80000FE0
3FC0000FE0
3FC0000FE0
3FC0001FE0
1FC0001FC0
1FC0001FC0
1FE0001FC0
1FE0003FC0
0FE0003F80
0FE0003F80
0FF0003F80
0FF0007F80
07F0007F00
07F0007F00
07F8007F00
07F8007F00
03F800FE00
03F800FE00
03F800FE00
03FC00FE00
01FC01FC00
01FC01FC00
01FC01FC00
01FE01FC00
00FE01FC00
00FE03F800
00FE03F800
00FF03F800
00FF03F800
007F07F000
007F07F000
007F87F000
007F87F000
003F8FE000
003F8FE000
003F8FE000
003FCFE000
001FCFC000
001FDFC000
001FDFC000
001FFFC000
000FFF8000
000FFF8000
000FFF8000
000FFF8000
0007FF0000
0007FF0000
0007FF0000
0007FF0000
0003FF0000
0003FE0000
0003FE0000
0007FF0000
0007FF0000
0007FF0000
0007FF0000
000FFF8000
000FFF8000
000FFF8000
000FFF8000
001FFFC000
001FFFC000
001FDFC000
001FCFC000
003FCFE000
003FCFE000
003F8FE000
003F87E000
007F87F000
007F87F000
007F07F000
007F03F000
007F03F000
00FF03F800
00FF03F800
00FE03F800
00FE01F800
01FE01FC00
01FE01FC00
01FC01FC00
01FC00FC00
03FC00FE00
03FC00FE00
03F800FE00
03F800FE00
07F8007F00
07F8007F00
07F0007F00
07F0007F00
0FF0003F80
0FF0003F80
0FE0003F80
0FE0003F80
1FE0003FC0
1FE0001FC0
1FE0001FC0
1FC0001FC0
3FC0001FE0
3FC0000FE0
3FC0000FE0
3F80000FE0
7F80000FE0
7F80000FF0
7F800007F0
7F000007F0
7F000007F0
FF000007F8
FF000003F8
FE000003F8
FE000003F8
FE000003F8
FC000001F8
7C000001F8
78000000F0
ENDCHAR
STARTCHAR 0059
ENCODING 89
SWIDTH 227 0
DWIDTH 41 0
BBX 33 128 4 -2
BITMAP
7800000E00
7C00001F00
FE00003F80
FE00003F80
FE00003F80
FE00003F80
FE00003F80
FE00003F80
FE00003F80
FE00003F80
FE00003F80
FE00003F80
FE00003F80
FE00003F80
FE00003F80
FE00003F80
FE00003F80
FE00003F80
FE00003F80
FE00003F80
FE00003F80
FE00003F80
FE00003F80
FE00003F80
FE00003F80
FE00003F80
FE00003F80
FE00003F80
FE00003F80
FE00003F80
FE00003F80
FE00003F80
FE00003F80
FE00003F80
FE00003F80
FE00003F80
FE00003F80
FE00003F80
FE00003F80
FE00003F80
FE00003F80
FE00003F80
FE00003F80
FE00003F80
FE00003F80
FE00003F80
FE00003F80
FE00003F80
FE00003F80
FE00003F80
FE00003F80
FE00003F80
FE00003F80
FE00003F80
FE00003F80
FE00003F80
FE00003F80
FE00003F80
FE00003F80
FE00003F80
FE00003F80
FE00003F80
FE00003F80
FE00003F80
FF00007F80
7F00007F80
7F00007F80
7F8000FF80
3F8000FF80
3FE003FF80
1FF80FFF80
1FFFFFFF80
0FFFFFFF80
07FFFFFF80
03FFFFFF80
00FFFFBF80
003FFC3F80
0000003F80
0000003F80
0000003F80
0000003F80
0000003F80
0000003F80
0000003F80
0000003F80
0000003F80
0000003F80
0000003F80
0000003F80
0000003F80
0000003F80
0000003F80
0000003F80
0000003F80
0000003F80
0000003F80
7C00003F80
FC00003F80
FE00003F80
FE00003F80
FE00003F80
FE00003F80
FE00003F80
FE00003F80
FE00003F80
FE00003F80
FE00003F80
FE00003F80
FE00003F80
FE00003F80
FE00003F80
FE00003F80
FE00003F80
FE00003F80
FE00003F80
FF00007F00
7F00007F00
7F00007F00
7F8000FF00
7FC001FE00
3FF007FE00
3FFFFFFC00
1FFFFFF800
0FFFFFF800
07FFFFE000
03FFFFC000
00FFFF0000
001FF80000
ENDCHAR
STARTCHAR 005A
ENCODING 90
SWIDTH 200 0
DWIDTH 36 0
BBX 33 127 2 -1
BITMAP
3FFFFFFC00
7FFFFFFE00
FFFFFFFE00
FFFFFFFF00
FFFFFFFF00
7FFFFFFF00
3FFFFFFF00
000000FF00
000000FE00
000000FE00
000000FE00
000001FE00
000001FE00
000001FC00
000001FC00
000001FC00
000003FC00
000003FC00
000003F800
000003F800
000003F800
000007F800
000007F800
000007F000
000007F000
000007F000
00000FF000
00000FF000
00000FE000
00000FE000
00000FE000
00001FE000
00001FE000
00001FC000
00001FC000
00001FC000
00003FC000
00003FC000
00003F8000
00003F8000
00003F8000
00007F8000
00007F8000
00007F0000
00007F0000
0000FF0000
0000FF0000
0000FE0000
0000FE0000
0000FE0000
0001FE0000
0001FE0000
0001FC0000
0001FC0000
0001FC0000
0003FC0000
0003FC0000
0003F80000
0003F80000
0003F80000
0007F80000
0007F80000
0007F00000
0007F00000
0007F00000
000FF00000
000FF00000
000FE00000
000FE00000
000FE00000
001FE00000
001FE00000
001FC00000
001FC00000
001FC00000
003FC00000
003FC00000
003F800000
003F800000
007F800000
007F800000
007F000000
007F000000
007F000000
00FF000000
00FF000000
00FE000000
00FE000000
00FE000000
01FE000000
01FE000000
01FC000000
01FC000000
01FC000000
03FC000000
03FC000000
03F8000000
03F8000000
03F8000000
07F8000000
07F8000000
07F0000000
07F0000000
07F0000000
0FF0000000
0FF0000000
0FE0000000
0FE0000000
0FE0000000
1FE0000000
1FE0000000
1FC0000000
1FC0000000
3FC0000000
3FC0000000
3F80000000
3F80000000
3F80000000
7F80000000
7F80000000
7FFFFFFE00
7FFFFFFF00
7FFFFFFF80
7FFFFFFF80
7FFFFFFF80
3FFFFFFF00
1FFFFFFE00
ENDCHAR
STARTCHAR 005B
ENCODING 91
SWIDTH 138 0
DWIDTH 25 0
BBX 16 127 7 -1
BITMAP
3FFC
7FFE
FFFF
FFFF
FFFF
FFFE
FFFC
FE00
FE00
FE00
FE00
FE00
FE00
FE00
FE00
FE00
FE00
FE00
FE00
FE00
FE00
FE00
FE00
FE00
FE00
FE00
FE00
FE00
FE00
FE00
FE00
FE00
FE00
FE00
FE00
FE00
FE00
FE00
FE00
FE00
FE00
FE00
FE00
FE00
FE00
FE00
FE00
FE00
FE00
FE00
FE00
FE00
FE00
FE00
FE00
FE00
FE00
FE00
FE00
FE00
FE00
FE00
FE00
FE00
FE00
FE00
FE00
FE00
FE00
FE00
FE00
FE00
FE00
FE00
FE00
FE00
FE00
FE00
FE00
FE00
FE00
FE00
FE00
FE00
FE00
FE00
FE00
FE00
FE00
FE00
FE00
FE00
FE00
FE00
FE00
FE00
FE00
FE00
FE00
FE00
FE00
FE00
FE00
FE00
FE00
FE00
FE00
FE00
FE00
FE00
FE00
FE00
FE00
FE00
FE00
FE00
FE00
FE00
FE00
FE00
FFFC
FFFE
FFFF
FFFF
FFFF
FFFE
3FFC
ENDCHAR
STARTCHAR 005C
ENCODING 92
SWIDTH 138 0
DWIDTH 25 0
BBX 21 127 2 -1
BITMAP
7C0000
FC0000
FE0000
FE0000
FE0000
FE0000
FE0000
FE0000
7E0000
7F0000
7F0000
7F0000
7F0000
7F0000
7F0000
7F0000
3F0000
3F8000
3F8000
3F8000
3F8000
3F8000
3F8000
3F8000
3F8000
1F8000
1FC000
1FC000
1FC000
1FC000
1FC000
1FC000
1FC000
0FC000
0FE000
0FE000
0FE000
0FE000
0FE000
0FE000
0FE000
0FE000
07E000
07F000
07F000
07F000
07F000
07F000
07F000
07F000
07F000
03F800
03F800
03F800
03F800
03F800
03F800
03F800
03F800
01F800
01FC00
01FC00
01FC00
01FC00
01FC00
01FC00
01FC00
01FC00
00FE00
00FE00
00FE00
00FE00
00FE00
00FE00
00FE00
00FE00
007E00
007F00
007F00
007F00
007F00
007F00
007F00
007F00
007F00
003F80
003F80
003F80
003F80
003F80
003F80
003F80
003F80
003F80
001FC0
001FC0
001FC0
001FC0
001FC0
001FC0
001FC0
001FC0
000FE0
000FE0
000FE0
000FE0
000FE0
000FE0
000FE0
000FE0
000FE0
0007F0
0007F0
0007F0
0007F0
0007F0
0007F0
0007F0
0007F0
0003F8
0003F8
0003F8
0003F8
0003F8
0003F8
0001F8
0000F0
ENDCHAR
STARTCHAR 005D
ENCODING 93
SWIDTH 138 0
DWIDTH 25 0
BBX 16 127 2 -1
BITMAP
3FFC
7FFE
FFFF
FFFF
FFFF
7FFF
3FFF
007F
007F
007F
007F
007F
007F
007F
007F
007F
007F
007F
007F
007F
007F
007F
007F
007F
007F
007F
007F
007F
007F
007F
007F
007F
007F
007F
007F
007F
007F
007F
007F
007F
007F
007F
007F
007F
007F
007F
007F
007F
007F
007F
007F
007F
007F
007F
007F
007F
007F
007F
007F
007F
007F
007F
007F
007F
007F
007F
007F
007F
007F
007F
007F
007F
007F
007F
007F
007F
007F
007F
007F
007F
007F
007F
007F
007F
007F
007F
007F
007F
007F
007F
007F
007F
007F
007F
007F
007F
007F
007F
007F
007F
007F
007F
007F
007F
007F
007F
007F
007F
007F
007F
007F
007F
007F
007F
007F
007F
007F
007F
007F
007F
3FFF
7FFF
FFFF
FFFF
FFFF
7FFE
3FFC
ENDCHAR
STARTCHAR 005E
ENCODING 94
SWIDTH 411 0
DWIDTH 74 0
BBX 67 48 4 78
BITMAP
00000007FE00000000
0000000FFE00000000
0000000FFF00000000
0000001FFF00000000
0000003FFF80000000
0000003FFFC0000000
0000007FFFC0000000
000000FFFFE0000000
000000FFFFE0000000
000001FFFFF0000000
000001FFBFF8000000
000003FFBFF8000000
000007FF1FFC000000
000007FE0FFC000000
00000FFE0FFE000000
00000FFC07FF000000
00001FF807FF000000
00003FF803FF800000
00003FF001FF800000
00007FF001FFC00000
0000FFE000FFE00000
0000FFC0007FE00000
0001FFC0007FF00000
0001FF80003FF80000
0003FF00003FF80000
0007FF00001FFC0000
0007FE00000FFC0000
000FFE00000FFE0000
001FFC000007FF0000
001FF8000003FF0000
003FF8000003FF8000
003FF0000001FF8000
007FE0000001FFC000
00FFE0000000FFE000
00FFC00000007FE000
01FFC00000007FF000
01FF800000003FF000
03FF000000001FF800
07FF000000001FFC00
07FE000000000FFC00
0FFC000000000FFE00
1FFC0000000007FF00
1FF80000000003FF00
3FF00000000003FF80
3FF00000000001FF80
7FE00000000000FFC0
FFE00000000000FFE0
004000000000000000
ENDCHAR
STARTCHAR 005F
ENCODING 95
SWIDTH 383 0
DWIDTH 69 0
BBX 69 6 0 -15
BITMAP
FFFFFFFFFFFFFFFFF8
FFFFFFFFFFFFFFFFF8
FFFFFFFFFFFFFFFFF8
FFFFFFFFFFFFFFFFF8
FFFFFFFFFFFFFFFFF8
FFFFFFFFFFFFFFFFF8
ENDCHAR
STARTCHAR 0060
ENCODING 96
SWIDTH 227 0
DWIDTH 41 0
BBX 24 20 6 132
BITMAP
7C0000
FE0000
FF0000
FF8000
FFE000
7FF000
3FF800
0FFE00
07FF00
03FF80
00FFC0
007FF0
003FF8
001FFC
0007FE
0003FF
0001FF
0000FF
00003F
00001E
ENDCHAR
STARTCHAR 0061
ENCODING 97
SWIDTH 255 0
DWIDTH 46 0
BBX 41 128 0 -1
BITMAP
00000FF80000
00007FFF8000
0001FFFFE000
0007FFFFF000
000FFFFFF800
000FFFFFFC00
001FFFFFFC00
003FC003FE00
003F8001FE00
007F0000FF00
007F00007F00
007F00007F00
007E00007F00
00FE00003F80
00FE00003F80
00FE00003F80
00FE00003F80
00FE00003F80
00FE00003F80
00FE00003F80
00FE00003F80
00FE00003F80
00FE00003F80
00FE00003F80
00FE00003F80
00FE00003F80
00FE00003F80
00FE00003F80
00FE00003F80
00FE00003F80
00FE00003F80
00FE00003F80
00FE00003F80
00FE00003F80
00FE00003F80
00FE00003F80
00FE00003F80
00FE00003F80
00FE00003F80
00FE00003F80
00FE00003F80
00FE00003F80
00FE00003F80
00FE00003F80
00FE00003F80
00FE00003F80
00FE00003F80
00FE00003F80
00FE00003F80
00FE00003F80
00FE00003F80
00FE00003F80
00FE00003F80
00FE00003F80
00FE00003F80
00FE00003F80
00FE00003F80
00FE00003F80
00FE00003F80
00FE00003F80
00FE00003F80
00FE00003F80
00FE00003F80
00FE00003F80
00FE00003F80
00FE00003F80
00FE00003F80
00FE00003F80
00FE00003F80
00FE00003F80
00FE00003F80
00FE00003F80
3FFFFFFFFF80
7FFFFFFFFF80
FFFFFFFFFF80
FFFFFFFFFF80
FFFFFFFFFF80
7FFFFFFFFF80
3FFFFFFFFF80
00FE00003F80
00FE00003F80
00FE00003F80
00FE00003F80
00FE00003F80
00FE00003F80
00FE00003F80
00FE00003F80
00FE00003F80
00FE00003F80
00FE00003F80
00FE00003F80
00FE00003F80
00FE00003F80
00FE00003F80
00FE00003F80
00FE00003F80
00FE00003F80
00FE00003F80
00FE00003F80
00FE00003F80
00FE00003F80
00FE00003F80
00FE00003F80
00FE00003F80
00FE00003F80
00FE00003F80
00FE00003F80
00FE00003F80
00FE00003F80
00FE00003F80
00FE00003F80
00FE00003F80
00FE00003F80
00FE00003F80
00FE00003F80
00FE00003F80
00FE00003F80
00FE00003F80
00FE00003F80
00FE00003F80
00FE00003F80
00FE00003F80
00FE00003F80
00FE00003F80
00FE00003F80
00FE00003F80
007C00001F00
003800000E00
ENDCHAR
STARTCHAR 0062
ENCODING 98
SWIDTH 255 0
DWIDTH 46 0
BBX 41 126 0 0
BITMAP
00FFFFF80000
00FFFFFF8000
00FFFFFFE000
00FFFFFFF000
00FFFFFFF800
00FFFFFFFC00
00FFFFFFFC00
00FE000FFE00
00FE0001FE00
00FE0000FF00
00FE0000FF00
00FE00007F00
00FE00007F00
00FE00007F80
00FE00003F80
00FE00003F80
00FE00003F80
00FE00003F80
00FE00003F80
00FE00003F80
00FE00003F80
00FE00003F80
00FE00003F80
00FE00003F80
00FE00003F80
00FE00003F80
00FE00003F80
00FE00003F80
00FE00003F80
00FE00003F80
00FE00003F80
00FE00003F80
00FE00003F80
00FE00003F80
00FE00003F80
00FE00003F80
00FE00003F80
00FE00003F80
00FE00003F80
00FE00003F80
00FE00003F80
00FE00003F80
00FE00003F80
00FE00003F80
00FE00003F80
00FE00003F80
00FE00003F80
00FE00003F80
00FE00003F80
00FE00003F80
00FE00003F80
00FE00003F80
00FE00003F80
00FE00003F80
00FE00003F80
00FE00003F80
00FE00003F80
00FE00003F80
00FE00003F80
00FE00003F80
00FE00003F80
00FE00003F80
00FE00003F80
00FE00003F80
00FE00007F80
00FE00007F80
00FE00007F00
00FE0000FF00
00FE0001FF00
00FE0003FE00
00FE000FFE00
7FFFFFFFFC00
FFFFFFFFF800
FFFFFFFFF000
FFFFFFFFF800
FFFFFFFFFC00
FFFFFFFFFC00
7FFFFFFFFE00
00FE0007FF00
00FE0001FF00
00FE0000FF00
00FE00007F00
00FE00007F80
00FE00007F80
00FE00003F80
00FE00003F80
00FE00003F80
00FE00003F80
00FE00003F80
00FE00003F80
00FE00003F80
00FE00003F80
00FE00003F80
00FE00003F80
00FE00003F80
00FE00003F80
00FE00003F80
00FE00003F80
00FE00003F80
00FE00003F80
00FE00003F80
00FE00003F80
00FE00003F80
00FE00003F80
00FE00003F80
00FE00003F80
00FE00003F80
00FE00003F80
00FE00003F80
00FE00003F80
00FE00003F80
00FE00003F80
00FE00003F80
00FE00007F00
00FE00007F00
00FE00007F00
00FE0000FF00
00FE0001FE00
00FE0007FE00
00FFFFFFFC00
00FFFFFFFC00
00FFFFFFF800
00FFFFFFF000
00FFFFFFC000
00FFFFFF0000
00FFFFF80000
ENDCHAR
STARTCHAR 0063
ENCODING 99
SWIDTH 227 0
DWIDTH 41 0
BBX 34 129 4 -2
BITMAP
000FFC0000
00FFFF8000
01FFFFE000
07FFFFF800
0FFFFFFC00
1FFFFFFC00
1FFFFFFE00
3FF807FF00
3FC000FF00
7F80007F80
7F00003F80
7F00003F80
FF00003F80
FE00001FC0
FE00001FC0
FE00001FC0
FE00001FC0
FE00001FC0
FE00001FC0
FE00001FC0
FE00001FC0
FE00001FC0
FE00001FC0
FE00001FC0
FE00001FC0
FE00001FC0
FE00001FC0
FE00001FC0
FE00001FC0
FE00001FC0
FE00001FC0
FE00000F80
FE00000000
FE00000000
FE00000000
FE00000000
FE00000000
FE00000000
FE00000000
FE00000000
FE00000000
FE00000000
FE00000000
FE00000000
FE00000000
FE00000000
FE00000000
FE00000000
FE00000000
FE00000000
FE00000000
FE00000000
FE00000000
FE00000000
FE00000000
FE00000000
FE00000000
FE00000000
FE00000000
FE00000000
FE00000000
FE00000000
FE00000000
FE00000000
FE00000000
FE00000000
FE00000000
FE00000000
FE00000000
FE00000000
FE00000000
FE00000000
FE00000000
FE00000000
FE00000000
FE00000000
FE00000000
FE00000000
FE00000000
FE00000000
FE00000000
FE00000000
FE00000000
FE00000000
FE00000000
FE00000000
FE00000000
FE00000000
FE00000000
FE00000000
FE00000000
FE00000000
FE00000000
FE00000000
FE00000000
FE00000000
FE00000600
FE00000F80
FE00001FC0
FE00001FC0
FE00001FC0
FE00001FC0
FE00001FC0
FE00001FC0
FE00001FC0
FE00001FC0
FE00001FC0
FE00001FC0
FE00001FC0
FE00001FC0
FE00001FC0
FE00001FC0
FE00001FC0
FE00001FC0
FE00001FC0
FE00001FC0
7F00003F80
7F00003F80
7F00007F80
7F80007F80
3FC001FF00
3FF807FF00
1FFFFFFE00
1FFFFFFE00
0FFFFFFC00
07FFFFF800
03FFFFE000
00FFFF8000
000FFC0000
ENDCHAR
STARTCHAR 0064
ENCODING 100
SWIDTH 244 0
DWIDTH 44 0
BBX 33 126 5 0
BITMAP
FFFFF80000
FFFFFF8000
FFFFFFE000
FFFFFFF000
FFFFFFF800
FFFFFFFC00
FFFFFFFC00
FE000FFE00
FE0001FE00
FE0000FF00
FE0000FF00
FE00007F00
FE00007F00
FE00003F80
FE00003F80
FE00003F80
FE00003F80
FE00003F80
FE00003F80
FE00003F80
FE00003F80
FE00003F80
FE00003F80
FE00003F80
FE00003F80
FE00003F80
FE00003F80
FE00003F80
FE00003F80
FE00003F80
FE00003F80
FE00003F80
FE00003F80
FE00003F80
FE00003F80
FE00003F80
FE00003F80
FE00003F80
FE00003F80
FE00003F80
FE00003F80
FE00003F80
FE00003F80
FE00003F80
FE00003F80
FE00003F80
FE00003F80
FE00003F80
FE00003F80
FE00003F80
FE00003F80
FE00003F80
FE00003F80
FE00003F80
FE00003F80
FE00003F80
FE00003F80
FE00003F80
FE00003F80
FE00003F80
FE00003F80
FE00003F80
FE00003F80
FE00003F80
FE00003F80
FE00003F80
FE00003F80
FE00003F80
FE00003F80
FE00003F80
FE00003F80
FE00003F80
FE00003F80
FE00003F80
FE00003F80
FE00003F80
FE00003F80
FE00003F80
FE00003F80
FE00003F80
FE00003F80
FE00003F80
FE00003F80
FE00003F80
FE00003F80
FE00003F80
FE00003F80
FE00003F80
FE00003F80
FE00003F80
FE00003F80
FE00003F80
FE00003F80
FE00003F80
FE00003F80
FE00003F80
FE00003F80
FE00003F80
FE00003F80
FE00003F80
FE00003F80
FE00003F80
FE00003F80
FE00003F80
FE00003F80
FE00003F80
FE00003F80
FE00003F80
FE00003F80
FE00003F80
FE00003F80
FE00003F80
FE00003F80
FE00007F00
FE00007F00
FE00007F00
FE0000FF00
FE0001FE00
FE0007FE00
FFFFFFFC00
FFFFFFF800
FFFFFFF800
FFFFFFF000
FFFFFFC000
FFFFFF0000
FFFFF80000
ENDCHAR
STARTCHAR 0065
ENCODING 101
SWIDTH 227 0
DWIDTH 41 0
BBX 39 127 0 -1
BITMAP
003FFFFFFC
007FFFFFFE
00FFFFFFFE
00FFFFFFFE
00FFFFFFFE
00FFFFFFFE
00FFFFFFFC
00FE000000
00FE000000
00FE000000
00FE000000
00FE000000
00FE000000
00FE000000
00FE000000
00FE000000
00FE000000
00FE000000
00FE000000
00FE000000
00FE000000
00FE000000
00FE000000
00FE000000
00FE000000
00FE000000
00FE000000
00FE000000
00FE000000
00FE000000
00FE000000
00FE000000
00FE000000
00FE000000
00FE000000
00FE000000
00FE000000
00FE000000
00FE000000
00FE000000
00FE000000
00FE000000
00FE000000
00FE000000
00FE000000
00FE000000
00FE000000
00FE000000
00FE000000
00FE000000
00FE000000
00FE000000
00FE000000
00FE000000
00FE000000
00FE000000
00FE000000
00FE000000
00FE000000
00FE000000
00FE000000
00FE000000
00FE000000
00FE000000
00FE000000
00FE000000
00FE000000
00FE000000
00FE000000
00FE000000
00FE000000
3FFFFFFFF8
7FFFFFFFFE
FFFFFFFFFE
FFFFFFFFFE
FFFFFFFFFE
7FFFFFFFFE
3FFFFFFFFC
00FE000000
00FE000000
00FE000000
00FE000000
00FE000000
00FE000000
00FE000000
00FE000000
00FE000000
00FE000000
00FE000000
00FE000000
00FE000000
00FE000000
00FE000000
00FE000000
00FE000000
00FE000000
00FE000000
00FE000000
00FE000000
00FE000000
00FE000000
00FE000000
00FE000000
00FE000000
00FE000000
00FE000000
00FE000000
00FE000000
00FE000000
00FE000000
00FE000000
00FE000000
00FE000000
00FE000000
00FE000000
00FE000000
00FE000000
00FE000000
00FE000000
00FE000000
00FFFFFFFC
00FFFFFFFE
00FFFFFFFE
00FFFFFFFE
00FFFFFFFE
007FFFFFFE
003FFFFFFC
ENDCHAR
STARTCHAR 0066
ENCODING 102
SWIDTH 227 0
DWIDTH 41 0
BBX 39 127 0 -1
BITMAP
003FFFFFFC
007FFFFFFE
00FFFFFFFE
00FFFFFFFE
00FFFFFFFE
00FFFFFFFE
00FFFFFFF8
00FE000000
00FE000000
00FE000000
00FE000000
00FE000000
00FE000000
00FE000000
00FE000000
00FE000000
00FE000000
00FE000000
00FE000000
00FE000000
00FE000000
00FE000000
00FE000000
00FE000000
00FE000000
00FE000000
00FE000000
00FE000000
00FE000000
00FE000000
00FE000000
00FE000000
00FE000000
00FE000000
00FE000000
00FE000000
00FE000000
00FE000000
00FE000000
00FE000000
00FE000000
00FE000000
00FE000000
00FE000000
00FE000000
00FE000000
00FE000000
00FE000000
00FE000000
00FE000000
00FE000000
00FE000000
00FE000000
00FE000000
00FE000000
00FE000000
00FE000000
00FE000000
00FE000000
00FE000000
00FE000000
00FE000000
00FE000000
00FE000000
00FE000000
00FE000000
00FE000000
00FE000000
00FE000000
00FE000000
00FE000000
3FFFFFFFF8
7FFFFFFFFE
FFFFFFFFFE
FFFFFFFFFE
FFFFFFFFFE
7FFFFFFFFE
3FFFFFFFFC
00FE000000
00FE000000
00FE000000
00FE000000
00FE000000
00FE000000
00FE000000
00FE000000
00FE000000
00FE000000
00FE000000
00FE000000
00FE000000
00FE000000
00FE000000
00FE000000
00FE000000
00FE000000
00FE000000
00FE000000
00FE000000
00FE000000
00FE000000
00FE000000
00FE000000
00FE000000
00FE000000
00FE000000
00FE000000
00FE000000
00FE000000
00FE000000
00FE000000
00FE000000
00FE000000
00FE000000
00FE000000
00FE000000
00FE000000
00FE000000
00FE000000
00FE000000
00FE000000
00FE000000
00FE000000
00FE000000
00FE000000
007C000000
0038000000
ENDCHAR
STARTCHAR 0067
ENCODING 103
SWIDTH 244 0
DWIDTH 44 0
BBX 35 129 4 -2
BITMAP
000FFE0000
007FFFC000
01FFFFF000
07FFFFF800
0FFFFFFC00
1FFFFFFE00
1FFFFFFF00
3FF803FF80
3FC000FF80
7F80007F80
7F00003FC0
7F00003FC0
7F00001FC0
FE00001FE0
FE00001FE0
FE00001FE0
FE00001FE0
FE00001FE0
FE00001FE0
FE00001FE0
FE00001FE0
FE00001FE0
FE00001FE0
FE00001FE0
FE00001FE0
FE00001FE0
FE00001FE0
FE00001FE0
FE00001FE0
FE00000FE0
FE00000FE0
FE000007C0
FE00000000
FE00000000
FE00000000
FE00000000
FE00000000
FE00000000
FE00000000
FE00000000
FE00000000
FE00000000
FE00000000
FE00000000
FE00000000
FE00000000
FE00000000
FE00000000
FE00000000
FE00000000
FE00000000
FE00000000
FE00000000
FE00000000
FE00000000
FE00000000
FE00000000
FE00000000
FE00000000
FE00000000
FE00000000
FE00000000
FE00000000
FE00000000
FE00000000
FE00000000
FE00000000
FE00000000
FE00000000
FE00000000
FE00000000
FE00000000
FE001FFF80
FE007FFFC0
FE007FFFE0
FE007FFFE0
FE007FFFE0
FE007FFFE0
FE001FFFE0
FE00000FE0
FE00000FE0
FE00000FE0
FE00000FE0
FE00000FE0
FE00000FE0
FE00000FE0
FE00000FE0
FE00000FE0
FE00000FE0
FE00000FE0
FE00000FE0
FE00000FE0
FE00000FE0
FE00000FE0
FE00000FE0
FE00000FE0
FE00000FE0
FE00000FE0
FE00000FE0
FE00000FE0
FE00000FE0
FE00000FE0
FE00000FE0
FE00000FE0
FE00000FE0
FE00000FE0
FE00000FE0
FE00000FE0
FE00000FE0
FE00000FE0
FE00000FE0
FE00000FE0
FE00000FE0
FE00000FE0
FE00000FE0
FE00000FE0
7F00001FC0
7F00001FC0
7F80001FC0
7F80003FC0
3FE0007F80
3FF803FF80
1FFFFFFF00
0FFFFFFE00
07FFFFFE00
03FFFFFC00
01FFFFF000
007FFFC000
0007FE0000
ENDCHAR
STARTCHAR 0068
ENCODING 104
SWIDTH 255 0
DWIDTH 46 0
BBX 41 127 0 -1
BITMAP
003800000E00
007C00001F00
00FE00003F80
00FE00003F80
00FE00003F80
00FE00003F80
00FE00003F80
00FE00003F80
00FE00003F80
00FE00003F80
00FE00003F80
00FE00003F80
00FE00003F80
00FE00003F80
00FE00003F80
00FE00003F80
00FE00003F80
00FE00003F80
00FE00003F80
00FE00003F80
00FE00003F80
00FE00003F80
00FE00003F80
00FE00003F80
00FE00003F80
00FE00003F80
00FE00003F80
00FE00003F80
00FE00003F80
00FE00003F80
00FE00003F80
00FE00003F80
00FE00003F80
00FE00003F80
00FE00003F80
00FE00003F80
00FE00003F80
00FE00003F80
00FE00003F80
00FE00003F80
00FE00003F80
00FE00003F80
00FE00003F80
00FE00003F80
00FE00003F80
00FE00003F80
00FE00003F80
00FE00003F80
00FE00003F80
00FE00003F80
00FE00003F80
00FE00003F80
00FE00003F80
00FE00003F80
00FE00003F80
00FE00003F80
00FE00003F80
00FE00003F80
00FE00003F80
00FE00003F80
00FE00003F80
00FE00003F80
00FE00003F80
00FE00003F80
00FE00003F80
00FE00003F80
00FE00003F80
00FE00003F80
00FE00003F80
00FE00003F80
00FE00003F80
3FFFFFFFFF80
7FFFFFFFFF80
FFFFFFFFFF80
FFFFFFFFFF80
FFFFFFFFFF80
7FFFFFFFFF80
3FFFFFFFFF80
00FE00003F80
00FE00003F80
00FE00003F80
00FE00003F80
00FE00003F80
00FE00003F80
00FE00003F80
00FE00003F80
00FE00003F80
00FE00003F80
00FE00003F80
00FE00003F80
00FE00003F80
00FE00003F80
00FE00003F80
00FE00003F80
00FE00003F80
00FE00003F80
00FE00003F80
00FE00003F80
00FE00003F80
00FE00003F80
00FE00003F80
00FE00003F80
00FE00003F80
00FE00003F80
00FE00003F80
00FE00003F80
00FE00003F80
00FE00003F80
00FE00003F80
00FE00003F80
00FE00003F80
00FE00003F80
00FE00003F80
00FE00003F80
00FE00003F80
00FE00003F80
00FE00003F80
00FE00003F80
00FE00003F80
00FE00003F80
00FE00003F80
00FE00003F80
00FE00003F80
00FE00003F80
00FE00003F80
007C00001F00
003800000E00
ENDCHAR
STARTCHAR 0069
ENCODING 105
SWIDTH 88 0
DWIDTH 16 0
BBX 7 127 4 -1
BITMAP
38
7C
FE
FE
FE
FE
FE
FE
FE
FE
FE
FE
FE
FE
FE
FE
FE
FE
FE
FE
FE
FE
FE
FE
FE
FE
FE
FE
FE
FE
FE
FE
FE
FE
FE
FE
FE
FE
FE
FE
FE
FE
FE
FE
FE
FE
FE
FE
FE
FE
FE
FE
FE
FE
FE
FE
FE
FE
FE
FE
FE
FE
FE
FE
FE
FE
FE
FE
FE
FE
FE
FE
FE
FE
FE
FE
FE
FE
FE
FE
FE
FE
FE
FE
FE
FE
FE
FE
FE
FE
FE
FE
FE
FE
FE
FE
FE
FE
FE
FE
FE
FE
FE
FE
FE
FE
FE
FE
FE
FE
FE
FE
FE
FE
FE
FE
FE
FE
FE
FE
FE
FE
FE
FE
FE
7C
38
ENDCHAR
STARTCHAR 006A
ENCODING 106
SWIDTH 216 0
DWIDTH 39 0
BBX 34 128 0 -2
BITMAP
0000000700
0000000F80
0000001FC0
0000001FC0
0000001FC0
0000001FC0
0000001FC0
0000001FC0
0000001FC0
0000001FC0
0000001FC0
0000001FC0
0000001FC0
0000001FC0
0000001FC0
0000001FC0
0000001FC0
0000001FC0
0000001FC0
0000001FC0
0000001FC0
0000001FC0
0000001FC0
0000001FC0
0000001FC0
0000001FC0
0000001FC0
0000001FC0
0000001FC0
0000001FC0
0000001FC0
0000001FC0
0000001FC0
0000001FC0
0000001FC0
0000001FC0
0000001FC0
0000001FC0
0000001FC0
0000001FC0
0000001FC0
0000001FC0
0000001FC0
0000001FC0
0000001FC0
0000001FC0
0000001FC0
0000001FC0
0000001FC0
0000001FC0
0000001FC0
0000001FC0
0000001FC0
0000001FC0
0000001FC0
0000001FC0
0000001FC0
0000001FC0
0000001FC0
0000001FC0
0000001FC0
0000001FC0
0000001FC0
0000001FC0
0000001FC0
0000001FC0
0000001FC0
0000001FC0
0000001FC0
0000001FC0
0000001FC0
0000001FC0
0000001FC0
0000001FC0
0000001FC0
0000001FC0
0000001FC0
0000001FC0
0000001FC0
0000001FC0
0000001FC0
0000001FC0
0000001FC0
0000001FC0
0000001FC0
0000001FC0
0000001FC0
0000001FC0
0000001FC0
0000001FC0
0000001FC0
0000001FC0
0000001FC0
0000001FC0
0000001FC0
0000001FC0
3800001FC0
7C00001FC0
FE00001FC0
FE00001FC0
FE00001FC0
FE00001FC0
FE00001FC0
FE00001FC0
FE00001FC0
FE00001FC0
FE00001FC0
FE00001FC0
FE00001FC0
FE00001FC0
FE00001FC0
FE00001FC0
FE00001FC0
FE00001FC0
FE00003FC0
7F00003F80
7F00003F80
7F00007F80
7F80007F80
3FC001FF00
3FF007FF00
1FFFFFFE00
0FFFFFFC00
07FFFFFC00
03FFFFF800
01FFFFE000
007FFF8000
000FFC0000
ENDCHAR
STARTCHAR 006B
ENCODING 107
SWIDTH 288 0
DWIDTH 52 0
BBX 53 127 0 -1
BITMAP
003800001E0000
007C00003F0000
00FE00003F8000
00FE00003F8000
00FE00003F8000
00FE00003F8000
00FE00003F8000
00FE00003F8000
00FE00003F8000
00FE00003F8000
00FE00003F8000
00FE00003F8000
00FE00003F8000
00FE00003F8000
00FE00003F8000
00FE00003F8000
00FE00003F8000
00FE00003F8000
00FE00003F8000
00FE00003F8000
00FE00003F8000
00FE00003F8000
00FE00003F8000
00FE00003F8000
00FE00003F8000
00FE00003F8000
00FE00003F8000
00FE00003F8000
00FE00003F8000
00FE00003F8000
00FE00003F8000
00FE00003F8000
00FE00003F8000
00FE00003F8000
00FE00003F8000
00FE00003F8000
00FE00003F8000
00FE00003F8000
00FE00003F8000
00FE00003F8000
00FE00003F8000
00FE00003F8000
00FE00003F8000
00FE00003F8000
00FE00003F8000
00FE00003F8000
00FE00003F8000
00FE00003F8000
00FE00003F8000
00FE00003F8000
00FE00003F8000
00FE00003F8000
00FE00003F8000
00FE00003F8000
00FE00003F8000
00FE00003F8000
00FE00003F8000
00FE00003F8000
00FE00003F8000
00FE00003F8000
00FE00003F8000
00FE00003F8000
00FE00003F8000
00FE00003F8000
00FE00003F8000
00FE00007F8000
00FE00007F0000
00FE00007F0000
00FE0000FF0000
00FE0001FE0000
00FE0007FE0000
7FFFFFFFFC0000
FFFFFFFFF80000
FFFFFFFFF80000
FFFFFFFFF80000
FFFFFFFFFC0000
7FFFFFFFFC0000
3FFFFFFFFE0000
00FE0007FF0000
00FE0001FF0000
00FE0000FF0000
00FE00007F0000
00FE00007F8000
00FE00007F8000
00FE00003F8000
00FE00003F8000
00FE00003F8000
00FE00003F8000
00FE00003F8000
00FE00003F8000
00FE00003F8000
00FE00003F8000
00FE00003F8000
00FE00003F8000
00FE00003F8000
00FE00003F8000
00FE00003F8000
00FE00003F8000
00FE00003F8000
00FE00003F8000
00FE00003F8000
00FE00003F8000
00FE00003F8000
00FE00003F8000
00FE00003F8000
00FE00003F8000
00FE00003F8000
00FE00003F8000
00FE00003F8000
00FE00003F8000
00FE00003F8000
00FE00003F8000
00FE00003F8000
00FE00003F8000
00FE00003F8000
00FE00003FC000
00FE00001FE000
00FE00001FE000
00FE00001FF800
00FE00000FFE00
00FE000007FF80
00FE000007FFE0
00FE000003FFF0
00FE000001FFF8
00FE0000007FF8
007C0000003FF0
003800000007E0
ENDCHAR
STARTCHAR 006C
ENCODING 108
SWIDTH 200 0
DWIDTH 36 0
BBX 31 127 4 -1
BITMAP
38000000
7C000000
FE000000
FE000000
FE000000
FE000000
FE000000
FE000000
FE000000
FE000000
FE000000
FE000000
FE000000
FE000000
FE000000
FE000000
FE000000
FE000000
FE000000
FE000000
FE000000
FE000000
FE000000
FE000000
FE000000
FE000000
FE000000
FE000000
FE000000
FE000000
FE000000
FE000000
FE000000
FE000000
FE000000
FE000000
FE000000
FE000000
FE000000
FE000000
FE000000
FE000000
FE000000
FE000000
FE000000
FE000000
FE000000
FE000000
FE000000
FE000000
FE000000
FE000000
FE000000
FE000000
FE000000
FE000000
FE000000
FE000000
FE000000
FE000000
FE000000
FE000000
FE000000
FE000000
FE000000
FE000000
FE000000
FE000000
FE000000
FE000000
FE000000
FE000000
FE000000
FE000000
FE000000
FE000000
FE000000
FE000000
FE000000
FE000000
FE000000
FE000000
FE000000
FE000000
FE000000
FE000000
FE000000
FE000000
FE000000
FE000000
FE000000
FE000000
FE000000
FE000000
FE000000
FE000000
FE000000
FE000000
FE000000
FE000000
FE000000
FE000000
FE000000
FE000000
FE000000
FE000000
FE000000
FE000000
FE000000
FE000000
FE000000
FE000000
FE000000
FE000000
FE000000
FE000000
FE000000
FE000000
FE000000
FE000000
FFFFFFF8
FFFFFFFE
FFFFFFFE
FFFFFFFE
FFFFFFFE
7FFFFFFE
3FFFFFF8
ENDCHAR
STARTCHAR 006D
ENCODING 109
SWIDTH 383 0
DWIDTH 69 0
BBX 60 128 4 -1
BITMAP
001FFE0001FF0000
00FFFFC00FFFE000
03FFFFE01FFFF800
07FFFFF07FFFFC00
0FFFFFF8FFFFFE00
1FFFFFFDFFFFFF00
3FFFFFFFFFFFFF80
3FF807FFFF00FFC0
7FC000FFFC003FC0
7F80007FF8001FC0
7F00003FF0000FE0
7F00003FE0000FE0
FF00003FE0000FE0
FF00003FE00007F0
FE00001FC00007F0
FE00001FC00007F0
FE00001FC00007F0
FE00001FC00007F0
FE00001FC00007F0
FE00001FC00007F0
FE00001FC00007F0
FE00001FC00007F0
FE00001FC00007F0
FE00001FC00007F0
FE00001FC00007F0
FE00001FC00007F0
FE00001FC00007F0
FE00001FC00007F0
FE00001FC00007F0
FE00001FC00007F0
FE00001FC00007F0
FE00001FC00007F0
FE00001FC00007F0
FE00001FC00007F0
FE00001FC00007F0
FE00001FC00007F0
FE00001FC00007F0
FE00001FC00007F0
FE00001FC00007F0
FE00001FC00007F0
FE00001FC00007F0
FE00001FC00007F0
FE00001FC00007F0
FE00001FC00007F0
FE00001FC00007F0
FE00001FC00007F0
FE00001FC00007F0
FE00001FC00007F0
FE00001FC00007F0
FE00001FC00007F0
FE00001FC00007F0
FE00001FC00007F0
FE00001FC00007F0
FE00001FC00007F0
FE00001FC00007F0
FE00001FC00007F0
FE00001FC00007F0
FE00001FC00007F0
FE00001FC00007F0
FE00001FC00007F0
FE00001FC00007F0
FE00001FC00007F0
FE00001FC00007F0
FE00001FC00007F0
FE00001FC00007F0
FE00001FC00007F0
FE00001FC00007F0
FE00001FC00007F0
FE00001FC00007F0
FE00001FC00007F0
FE00001FC00007F0
FE00001FC00007F0
FE00001FC00007F0
FE00001FC00007F0
FE00001FC00007F0
FE00001FC00007F0
FE00001FC00007F0
FE00001FC00007F0
FE00001FC00007F0
FE00001FC00007F0
FE00001FC00007F0
FE00001FC00007F0
FE00001FC00007F0
FE00001FC00007F0
FE00001FC00007F0
FE00001FC00007F0
FE00001FC00007F0
FE00001FC00007F0
FE00001FC00007F0
FE00001FC00007F0
FE00001FC00007F0
FE00001FC00007F0
FE00001FC00007F0
FE00001FC00007F0
FE00001FC00007F0
FE00001FC00007F0
FE00001FC00007F0
FE00001FC00007F0
FE00001FC00007F0
FE00001FC00007F0
FE00001FC00007F0
FE00001FC00007F0
FE00001FC00007F0
FE00001FC00007F0
FE00001FC00007F0
FE00001FC00007F0
FE00001FC00007F0
FE00001FC00007F0
FE00001FC00007F0
FE00001FC00007F0
FE00001FC00007F0
FE00001FC00007F0
FE00001FC00007F0
FE00001FC00007F0
FE00001FC00007F0
FE00001FC00007F0
FE00001FC00007F0
FE00001FC00007F0
FE00001FC00007F0
FE00001FC00007F0
FE00001FC00007F0
FE00001FC00007F0
FE00001FC00007F0
FE00001FC00007F0
FE00001FC00007F0
FE00001FC00007F0
7C00000F800003E0
3800000F000001C0
ENDCHAR
STARTCHAR 006E
ENCODING 110
SWIDTH 244 0
DWIDTH 44 0
BBX 35 128 4 -1
BITMAP
0007FE0000
383FFFC000
7CFFFFF000
FFFFFFFC00
FFFFFFFE00
FFFFFFFE00
FFFFFFFF00
FFFC03FF80
FFF0007F80
FFC0003FC0
FF80003FC0
FF80001FC0
FF00001FC0
FF00001FE0
FE00000FE0
FE00000FE0
FE00000FE0
FE00000FE0
FE00000FE0
FE00000FE0
FE00000FE0
FE00000FE0
FE00000FE0
FE00000FE0
FE00000FE0
FE00000FE0
FE00000FE0
FE00000FE0
FE00000FE0
FE00000FE0
FE00000FE0
FE00000FE0
FE00000FE0
FE00000FE0
FE00000FE0
FE00000FE0
FE00000FE0
FE00000FE0
FE00000FE0
FE00000FE0
FE00000FE0
FE00000FE0
FE00000FE0
FE00000FE0
FE00000FE0
FE00000FE0
FE00000FE0
FE00000FE0
FE00000FE0
FE00000FE0
FE00000FE0
FE00000FE0
FE00000FE0
FE00000FE0
FE00000FE0
FE00000FE0
FE00000FE0
FE00000FE0
FE00000FE0
FE00000FE0
FE00000FE0
FE00000FE0
FE00000FE0
FE00000FE0
FE00000FE0
FE00000FE0
FE00000FE0
FE00000FE0
FE00000FE0
FE00000FE0
FE00000FE0
FE00000FE0
FE00000FE0
FE00000FE0
FE00000FE0
FE00000FE0
FE00000FE0
FE00000FE0
FE00000FE0
FE00000FE0
FE00000FE0
FE00000FE0
FE00000FE0
FE00000FE0
FE00000FE0
FE00000FE0
FE00000FE0
FE00000FE0
FE00000FE0
FE00000FE0
FE00000FE0
FE00000FE0
FE00000FE0
FE00000FE0
FE00000FE0
FE00000FE0
FE00000FE0
FE00000FE0
FE00000FE0
FE00000FE0
FE00000FE0
FE00000FE0
FE00000FE0
FE00000FE0
FE00000FE0
FE00000FE0
FE00000FE0
FE00000FE0
FE00000FE0
FE00000FE0
FE00000FE0
FE00000FE0
FE00000FE0
FE00000FE0
FE00000FE0
FE00000FE0
FE00000FE0
FE00000FE0
FE00000FE0
FE00000FE0
FE00000FE0
FE00000FE0
FE00000FE0
FE00000FE0
FE00000FE0
FE00000FE0
7C000007E0
78000007C0
ENDCHAR
STARTCHAR 006F
ENCODING 111
SWIDTH 244 0
DWIDTH 44 0
BBX 33 129 5 -2
BITMAP
001FF80000
00FFFF0000
03FFFFC000
07FFFFE000
0FFFFFF000
1FFFFFF800
1FFFFFFC00
3FE003FE00
3FC001FE00
7F8000FE00
7F00007F00
7F00007F00
7F00007F00
FE00003F00
FE00003F80
FE00003F80
FE00003F80
FE00003F80
FE00003F80
FE00003F80
FE00003F80
FE00003F80
FE00003F80
FE00003F80
FE00003F80
FE00003F80
FE00003F80
FE00003F80
FE00003F80
FE00003F80
FE00003F80
FE00003F80
FE00003F80
FE00003F80
FE00003F80
FE00003F80
FE00003F80
FE00003F80
FE00003F80
FE00003F80
FE00003F80
FE00003F80
FE00003F80
FE00003F80
FE00003F80
FE00003F80
FE00003F80
FE00003F80
FE00003F80
FE00003F80
FE00003F80
FE00003F80
FE00003F80
FE00003F80
FE00003F80
FE00003F80
FE00003F80
FE00003F80
FE00003F80
FE00003F80
FE00003F80
FE00003F80
FE00003F80
FE00003F80
FE00003F80
FE00003F80
FE00003F80
FE00003F80
FE00003F80
FE00003F80
FE00003F80
FE00003F80
FE00003F80
FE00003F80
FE00003F80
FE00003F80
FE00003F80
FE00003F80
FE00003F80
FE00003F80
FE00003F80
FE00003F80
FE00003F80
FE00003F80
FE00003F80
FE00003F80
FE00003F80
FE00003F80
FE00003F80
FE00003F80
FE00003F80
FE00003F80
FE00003F80
FE00003F80
FE00003F80
FE00003F80
FE00003F80
FE00003F80
FE00003F80
FE00003F80
FE00003F80
FE00003F80
FE00003F80
FE00003F80
FE00003F80
FE00003F80
FE00003F80
FE00003F80
FE00003F80
FE00003F80
FE00003F80
FE00003F80
FE00003F80
FE00003F80
FE00003F80
FE00003F80
7F00007F00
7F00007F00
7F80007F00
7F8000FF00
3FC001FE00
3FF00FFE00
1FFFFFFC00
1FFFFFFC00
0FFFFFF800
07FFFFF000
03FFFFC000
00FFFF0000
001FF80000
ENDCHAR
STARTCHAR 0070
ENCODING 112
SWIDTH 244 0
DWIDTH 44 0
BBX 41 127 0 -1
BITMAP
00FFFFF80000
00FFFFFF8000
00FFFFFFE000
00FFFFFFF000
00FFFFFFF800
00FFFFFFFC00
00FFFFFFFC00
00FE000FFE00
00FE0001FE00
00FE0000FF00
00FE0000FF00
00FE00007F00
00FE00007F00
00FE00007F80
00FE00003F80
00FE00003F80
00FE00003F80
00FE00003F80
00FE00003F80
00FE00003F80
00FE00003F80
00FE00003F80
00FE00003F80
00FE00003F80
00FE00003F80
00FE00003F80
00FE00003F80
00FE00003F80
00FE00003F80
00FE00003F80
00FE00003F80
00FE00003F80
00FE00003F80
00FE00003F80
00FE00003F80
00FE00003F80
00FE00003F80
00FE00003F80
00FE00003F80
00FE00003F80
00FE00003F80
00FE00003F80
00FE00003F80
00FE00003F80
00FE00003F80
00FE00003F80
00FE00003F80
00FE00003F80
00FE00003F80
00FE00003F80
00FE00003F80
00FE00003F80
00FE00003F80
00FE00003F80
00FE00003F80
00FE00003F80
00FE00003F80
00FE00003F80
00FE00003F80
00FE00003F80
00FE00003F80
00FE00003F80
00FE00003F80
00FE00003F80
00FE00007F80
00FE00007F00
00FE00007F00
00FE0000FF00
00FE0000FE00
00FE0001FE00
00FE000FFE00
3FFFFFFFFC00
7FFFFFFFF800
FFFFFFFFF800
FFFFFFFFE000
FFFFFFFFC000
7FFFFFFF0000
3FFFFFF80000
00FE00000000
00FE00000000
00FE00000000
00FE00000000
00FE00000000
00FE00000000
00FE00000000
00FE00000000
00FE00000000
00FE00000000
00FE00000000
00FE00000000
00FE00000000
00FE00000000
00FE00000000
00FE00000000
00FE00000000
00FE00000000
00FE00000000
00FE00000000
00FE00000000
00FE00000000
00FE00000000
00FE00000000
00FE00000000
00FE00000000
00FE00000000
00FE00000000
00FE00000000
00FE00000000
00FE00000000
00FE00000000
00FE00000000
00FE00000000
00FE00000000
00FE00000000
00FE00000000
00FE00000000
00FE00000000
00FE00000000
00FE00000000
00FE00000000
00FE00000000
00FE00000000
00FE00000000
00FE00000000
00FE00000000
007C00000000
003800000000
ENDCHAR
STARTCHAR 0071
ENCODING 113
SWIDTH 244 0
DWIDTH 44 0
BBX 37 130 5 -3
BITMAP
001FF80000
00FFFF0000
03FFFFC000
07FFFFE000
0FFFFFF000
1FFFFFF800
3FFFFFFC00
3FF00FFE00
7FC001FE00
7F8000FE00
7F0000FF00
7F00007F00
FF00007F00
FE00003F80
FE00003F80
FE00003F80
FE00003F80
FE00003F80
FE00003F80
FE00003F80
FE00003F80
FE00003F80
FE00003F80
FE00003F80
FE00003F80
FE00003F80
FE00003F80
FE00003F80
FE00003F80
FE00003F80
FE00003F80
FE00003F80
FE00003F80
FE00003F80
FE00003F80
FE00003F80
FE00003F80
FE00003F80
FE00003F80
FE00003F80
FE00003F80
FE00003F80
FE00003F80
FE00003F80
FE00003F80
FE00003F80
FE00003F80
FE00003F80
FE00003F80
FE00003F80
FE00003F80
FE00003F80
FE00003F80
FE00003F80
FE00003F80
FE00003F80
FE00003F80
FE00003F80
FE00003F80
FE00003F80
FE00003F80
FE00003F80
FE00003F80
FE00003F80
FE00003F80
FE00003F80
FE00003F80
FE00003F80
FE00003F80
FE00003F80
FE00003F80
FE00003F80
FE00003F80
FE00003F80
FE00003F80
FE00003F80
FE00003F80
FE00003F80
FE00003F80
FE00003F80
FE00003F80
FE00003F80
FE00003F80
FE00003F80
FE00003F80
FE00003F80
FE00003F80
FE00003F80
FE00003F80
FE00003F80
FE00003F80
FE00003F80
FE00003F80
FE00003F80
FE00003F80
FE00003F80
FE00003F80
FE00003F80
FE00003F80
FE00003F80
FE00003F80
FE00003F80
FE00003F80
FE00003F80
FE00003F80
FE00003F80
FE00003F80
FE00003F80
FE00003F80
FE00003F80
FE01E03F80
FE03F83F80
FE03FC3F80
FE03FE3F80
FE03FF7F80
FE01FFFF80
7F007FFF80
7F003FFF00
7F001FFF00
7F800FFF00
3FC003FF00
3FE003FF80
1FFC1FFFC0
1FFFFFFFE0
0FFFFFFFF0
07FFFFFFF8
01FFFFC7F8
007FFF03F8
000FF801F8
0000000070
ENDCHAR
STARTCHAR 0072
ENCODING 114
SWIDTH 288 0
DWIDTH 52 0
BBX 53 127 0 -1
BITMAP
00FFFFFC000000
00FFFFFF800000
00FFFFFFE00000
00FFFFFFF00000
00FFFFFFF80000
00FFFFFFFC0000
00FFFFFFFC0000
00FE0007FE0000
00FE0001FE0000
00FE0000FF0000
00FE00007F0000
00FE00007F0000
00FE00007F0000
00FE00003F8000
00FE00003F8000
00FE00003F8000
00FE00003F8000
00FE00003F8000
00FE00003F8000
00FE00003F8000
00FE00003F8000
00FE00003F8000
00FE00003F8000
00FE00003F8000
00FE00003F8000
00FE00003F8000
00FE00003F8000
00FE00003F8000
00FE00003F8000
00FE00003F8000
00FE00003F8000
00FE00003F8000
00FE00003F8000
00FE00003F8000
00FE00003F8000
00FE00003F8000
00FE00003F8000
00FE00003F8000
00FE00003F8000
00FE00003F8000
00FE00003F8000
00FE00003F8000
00FE00003F8000
00FE00003F8000
00FE00003F8000
00FE00003F8000
00FE00003F8000
00FE00003F8000
00FE00003F8000
00FE00003F8000
00FE00003F8000
00FE00003F8000
00FE00003F8000
00FE00003F8000
00FE00003F8000
00FE00003F8000
00FE00003F8000
00FE00003F8000
00FE00003F8000
00FE00003F8000
00FE00003F8000
00FE00003F8000
00FE00003F8000
00FE00003F8000
00FE00003F8000
00FE00007F8000
00FE00007F0000
00FE00007F0000
00FE0000FF0000
00FE0001FE0000
00FE0007FE0000
3FFFFFFFFC0000
7FFFFFFFF80000
FFFFFFFFF00000
FFFFFFFFF00000
FFFFFFFFF80000
7FFFFFFFFC0000
3FFFFFFFFE0000
00FE0007FE0000
00FE0001FF0000
00FE0000FF0000
00FE0000FF0000
00FE00007F8000
00FE00007F8000
00FE00003F8000
00FE00003F8000
00FE00003F8000
00FE00003F8000
00FE00003F8000
00FE00003F8000
00FE00003F8000
00FE00003F8000
00FE00003F8000
00FE00003F8000
00FE00003F8000
00FE00003F8000
00FE00003F8000
00FE00003F8000
00FE00003F8000
00FE00003F8000
00FE00003F8000
00FE00003F8000
00FE00003F8000
00FE00003F8000
00FE00003F8000
00FE00003F8000
00FE00003F8000
00FE00003F8000
00FE00003F8000
00FE00003F8000
00FE00003F8000
00FE00003F8000
00FE00003F8000
00FE00001FC000
00FE00001FC000
00FE00001FC000
00FE00001FE000
00FE00000FE000
00FE00000FF000
00FE000007FC00
00FE000007FF00
00FE000003FFC0
00FE000001FFF0
00FE000000FFF0
00FE0000007FF8
007C0000001FF0
003800000007E0
ENDCHAR
STARTCHAR 0073
ENCODING 115
SWIDTH 227 0
DWIDTH 41 0
BBX 34 129 4 -2
BITMAP
000FFC0000
00FFFF8000
03FFFFE000
07FFFFF000
0FFFFFF800
1FFFFFFC00
1FFFFFFE00
3FF807FE00
3FC000FF00
7F80007F00
7F00007F80
7F00003F80
7F00003F80
FE00003FC0
FE00001FC0
FE00001FC0
FE00001FC0
FE00001FC0
FE00001FC0
FE00001FC0
FE00001FC0
FE00001FC0
FE00001FC0
FE00001FC0
FE00001FC0
FE00001FC0
FE00001FC0
FE00001FC0
FE00000F80
FE00000700
FE00000000
FE00000000
FE00000000
FE00000000
FE00000000
FE00000000
FE00000000
FE00000000
FE00000000
FE00000000
FE00000000
FE00000000
FE00000000
FE00000000
FE00000000
FE00000000
FE00000000
FE00000000
FE00000000
FE00000000
FE00000000
FE00000000
FE00000000
FE00000000
FE00000000
FE00000000
FE00000000
FE00000000
FE00000000
FE00000000
FE00000000
FE00000000
FE00000000
FE00000000
FF00000000
FF00000000
FF80000000
7FC0000000
7FE0000000
7FF8000000
3FFE000000
1FFFF80000
1FFFFF8000
0FFFFFE000
03FFFFF000
01FFFFF800
003FFFFC00
0001FFFE00
00001FFE00
000007FF00
000001FF00
000000FF80
0000007F80
0000003F80
0000003F80
0000001FC0
0000001FC0
0000001FC0
0000001FC0
0000001FC0
0000001FC0
0000001FC0
0000001FC0
0000001FC0
0000001FC0
0000001FC0
1800001FC0
3E00001FC0
7F00001FC0
7F00001FC0
7F00001FC0
7F00001FC0
7F00001FC0
7F00001FC0
7F00001FC0
7F00001FC0
7F00001FC0
7F00001FC0
7F00001FC0
7F00001FC0
7F00001FC0
7F00001FC0
7F00001FC0
7F00001FC0
7F00001FC0
7F00001FC0
3F80003F80
3F80003F80
3F80003F80
3FC0007F80
1FE000FF00
1FF807FF00
0FFFFFFE00
0FFFFFFE00
07FFFFFC00
03FFFFF800
00FFFFF000
007FFFC000
0007FC0000
ENDCHAR
STARTCHAR 0074
ENCODING 116
SWIDTH 188 0
DWIDTH 34 0
BBX 33 127 0 -1
BITMAP
7FFFFFFE00
7FFFFFFF00
FFFFFFFF80
FFFFFFFF80
7FFFFFFF80
7FFFFFFF00
3FFFFFFE00
0007F00000
0007F00000
0007F00000
0007F00000
0007F00000
0007F00000
0007F00000
0007F00000
0007F00000
0007F00000
0007F00000
0007F00000
0007F00000
0007F00000
0007F00000
0007F00000
0007F00000
0007F00000
0007F00000
0007F00000
0007F00000
0007F00000
0007F00000
0007F00000
0007F00000
0007F00000
0007F00000
0007F00000
0007F00000
0007F00000
0007F00000
0007F00000
0007F00000
0007F00000
0007F00000
0007F00000
0007F00000
0007F00000
0007F00000
0007F00000
0007F00000
0007F00000
0007F00000
0007F00000
0007F00000
0007F00000
0007F00000
0007F00000
0007F00000
0007F00000
0007F00000
0007F00000
0007F00000
0007F00000
0007F00000
0007F00000
0007F00000
0007F00000
0007F00000
0007F00000
0007F00000
0007F00000
0007F00000
0007F00000
0007F00000
0007F00000
0007F00000
0007F00000
0007F00000
0007F00000
0007F00000
0007F00000
0007F00000
0007F00000
0007F00000
0007F00000
0007F00000
0007F00000
0007F00000
0007F00000
0007F00000
0007F00000
0007F00000
0007F00000
0007F00000
0007F00000
0007F00000
0007F00000
0007F00000
0007F00000
0007F00000
0007F00000
0007F00000
0007F00000
0007F00000
0007F00000
0007F00000
0007F00000
0007F00000
0007F00000
0007F00000
0007F00000
0007F00000
0007F00000
0007F00000
0007F00000
0007F00000
0007F00000
0007F00000
0007F00000
0007F00000
0007F00000
0007F00000
0007F00000
0007F00000
0007F00000
0007F00000
0007F00000
0003E00000
0001C00000
ENDCHAR
STARTCHAR 0075
ENCODING 117
SWIDTH 227 0
DWIDTH 41 0
BBX 33 128 4 -2
BITMAP
3800000E00
7C00001F00
FE00003F80
FE00003F80
FE00003F80
FE00003F80
FE00003F80
FE00003F80
FE00003F80
FE00003F80
FE00003F80
FE00003F80
FE00003F80
FE00003F80
FE00003F80
FE00003F80
FE00003F80
FE00003F80
FE00003F80
FE00003F80
FE00003F80
FE00003F80
FE00003F80
FE00003F80
FE00003F80
FE00003F80
FE00003F80
FE00003F80
FE00003F80
FE00003F80
FE00003F80
FE00003F80
FE00003F80
FE00003F80
FE00003F80
FE00003F80
FE00003F80
FE00003F80
FE00003F80
FE00003F80
FE00003F80
FE00003F80
FE00003F80
FE00003F80
FE00003F80
FE00003F80
FE00003F80
FE00003F80
FE00003F80
FE00003F80
FE00003F80
FE00003F80
FE00003F80
FE00003F80
FE00003F80
FE00003F80
FE00003F80
FE00003F80
FE00003F80
FE00003F80
FE00003F80
FE00003F80
FE00003F80
FE00003F80
FE00003F80
FE00003F80
FE00003F80
FE00003F80
FE00003F80
FE00003F80
FE00003F80
FE00003F80
FE00003F80
FE00003F80
FE00003F80
FE00003F80
FE00003F80
FE00003F80
FE00003F80
FE00003F80
FE00003F80
FE00003F80
FE00003F80
FE00003F80
FE00003F80
FE00003F80
FE00003F80
FE00003F80
FE00003F80
FE00003F80
FE00003F80
FE00003F80
FE00003F80
FE00003F80
FE00003F80
FE00003F80
FE00003F80
FE00003F80
FE00003F80
FE00003F80
FE00003F80
FE00003F80
FE00003F80
FE00003F80
FE00003F80
FE00003F80
FE00003F80
FE00003F80
FE00003F80
FE00003F80
FE00003F80
FE00003F80
FE00003F80
FE00003F80
FE00007F80
7F00007F00
7F00007F00
7F0000FF00
7F8000FF00
3FC003FE00
3FF00FFE00
1FFFFFFC00
1FFFFFFC00
0FFFFFF800
07FFFFF000
01FFFFC000
00FFFF8000
000FFC0000
ENDCHAR
STARTCHAR 0076
ENCODING 118
SWIDTH 216 0
DWIDTH 39 0
BBX 39 127 0 -1
BITMAP
7800000038
7C0000007C
FC000000FE
FE000000FE
FE000000FE
FE000000FE
FE000001FE
FF000001FE
FF000001FE
7F000001FC
7F000001FC
7F000001FC
7F000001FC
7F000001FC
7F000003FC
7F800003FC
7F800003F8
3F800003F8
3F800003F8
3F800003F8
3F800003F8
3F800003F8
3F800007F8
3FC00007F8
3FC00007F0
1FC00007F0
1FC00007F0
1FC00007F0
1FC00007F0
1FC00007F0
1FC0000FF0
1FE0000FF0
1FE0000FE0
0FE0000FE0
0FE0000FE0
0FE0000FE0
0FE0000FE0
0FE0000FE0
0FE0001FE0
0FF0001FE0
0FF0001FC0
07F0001FC0
07F0001FC0
07F0001FC0
07F0001FC0
07F0001FC0
07F0001FC0
07F8003FC0
07F8003F80
03F8003F80
03F8003F80
03F8003F80
03F8003F80
03F8003F80
03F8003F80
03FC007F80
01FC007F00
01FC007F00
01FC007F00
01FC007F00
01FC007F00
01FC007F00
01FE007F00
01FE00FF00
00FE00FE00
00FE00FE00
00FE00FE00
00FE00FE00
00FE00FE00
00FE00FE00
00FF00FE00
00FF01FE00
007F01FC00
007F01FC00
007F01FC00
007F01FC00
007F01FC00
007F01FC00
007F81FC00
007F81F800
003F83F800
003F83F800
003F83F800
003F83F800
003F83F800
003F83F800
003FC3F800
003FC3F000
001FC7F000
001FC7F000
001FC7F000
001FC7F000
001FC7F000
001FC7F000
001FE7F000
001FE7E000
000FEFE000
000FEFE000
000FEFE000
000FEFE000
000FEFE000
000FEFE000
000FFFE000
000FFFC000
0007FFC000
0007FFC000
0007FFC000
0007FFC000
0007FFC000
0007FFC000
0007FFC000
0007FF8000
0003FF8000
0003FF8000
0003FF8000
0003FF8000
0003FF8000
0003FF8000
0003FF8000
0003FF0000
0001FF0000
0001FF0000
0001FF0000
0001FF0000
0000FE0000
0000FE0000
0000380000
ENDCHAR
STARTCHAR 0077
ENCODING 119
SWIDTH 383 0
DWIDTH 69 0
BBX 60 128 4 -2
BITMAP
38000007000001C0
7C00000F800003E0
FE00001FC00007F0
FE00001FC00007F0
FE00001FC00007F0
FE00001FC00007F0
FE00001FC00007F0
FE00001FC00007F0
FE00001FC00007F0
FE00001FC00007F0
FE00001FC00007F0
FE00001FC00007F0
FE00001FC00007F0
FE00001FC00007F0
FE00001FC00007F0
FE00001FC00007F0
FE00001FC00007F0
FE00001FC00007F0
FE00001FC00007F0
FE00001FC00007F0
FE00001FC00007F0
FE00001FC00007F0
FE00001FC00007F0
FE00001FC00007F0
FE00001FC00007F0
FE00001FC00007F0
FE00001FC00007F0
FE00001FC00007F0
FE00001FC00007F0
FE00001FC00007F0
FE00001FC00007F0
FE00001FC00007F0
FE00001FC00007F0
FE00001FC00007F0
FE00001FC00007F0
FE00001FC00007F0
FE00001FC00007F0
FE00001FC00007F0
FE00001FC00007F0
FE00001FC00007F0
FE00001FC00007F0
FE00001FC00007F0
FE00001FC00007F0
FE00001FC00007F0
FE00001FC00007F0
FE00001FC00007F0
FE00001FC00007F0
FE00001FC00007F0
FE00001FC00007F0
FE00001FC00007F0
FE00001FC00007F0
FE00001FC00007F0
FE00001FC00007F0
FE00001FC00007F0
FE00001FC00007F0
FE00001FC00007F0
FE00001FC00007F0
FE00001FC00007F0
FE00001FC00007F0
FE00001FC00007F0
FE00001FC00007F0
FE00001FC00007F0
FE00001FC00007F0
FE00001FC00007F0
FE00001FC00007F0
FE00001FC00007F0
FE00001FC00007F0
FE00001FC00007F0
FE00001FC00007F0
FE00001FC00007F0
FE00001FC00007F0
FE00001FC00007F0
FE00001FC00007F0
FE00001FC00007F0
FE00001FC00007F0
FE00001FC00007F0
FE00001FC00007F0
FE00001FC00007F0
FE00001FC00007F0
FE00001FC00007F0
FE00001FC00007F0
FE00001FC00007F0
FE00001FC00007F0
FE00001FC00007F0
FE00001FC00007F0
FE00001FC00007F0
FE00001FC00007F0
FE00001FC00007F0
FE00001FC00007F0
FE00001FC00007F0
FE00001FC00007F0
FE00001FC00007F0
FE00001FC00007F0
FE00001FC00007F0
FE00001FC00007F0
FE00001FC00007F0
FE00001FC00007F0
FE00001FC00007F0
FE00001FC00007F0
FE00001FC00007F0
FE00001FC00007F0
FE00001FC00007F0
FE00001FC00007F0
FE00001FC00007F0
FE00001FC00007F0
FE00001FC00007F0
FE00001FC00007F0
FE00001FC00007F0
FE00001FC00007F0
FE00001FC00007F0
FE00001FC00007F0
FE00001FC00007F0
FE00001FC00007F0
FE00001FC00007F0
FE00003FE00007F0
FF00003FE0000FE0
7F00003FE0000FE0
7F80007FF0000FE0
7F8000FFF8001FE0
3FC001FFFC003FC0
3FF807FFFF00FFC0
3FFFFFFDFFFFFF80
1FFFFFF9FFFFFF80
0FFFFFF0FFFFFF00
07FFFFE07FFFFE00
03FFFFC03FFFFC00
00FFFF001FFFF000
000FF80003FF8000
ENDCHAR
STARTCHAR 0078
ENCODING 120
SWIDTH 216 0
DWIDTH 39 0
BBX 37 127 1 -1
BITMAP
78000000F0
7C000001F0
FC000001F8
FE000003F8
FE000003F8
FE000003F8
FF000003F8
FF000007F8
7F000007F0
7F000007F0
7F800007F0
7F80000FF0
3F80000FF0
3F80000FE0
3FC0000FE0
3FC0000FE0
3FC0001FE0
1FC0001FC0
1FC0001FC0
1FE0001FC0
1FE0003FC0
0FE0003F80
0FE0003F80
0FF0003F80
0FF0007F80
07F0007F00
07F0007F00
07F8007F00
07F8007F00
03F800FE00
03F800FE00
03F800FE00
03FC00FE00
01FC01FC00
01FC01FC00
01FC01FC00
01FE01FC00
00FE01FC00
00FE03F800
00FE03F800
00FF03F800
00FF03F800
007F07F000
007F07F000
007F87F000
007F87F000
003F8FE000
003F8FE000
003F8FE000
003FCFE000
001FCFC000
001FDFC000
001FDFC000
001FFFC000
000FFF8000
000FFF8000
000FFF8000
000FFF8000
0007FF0000
0007FF0000
0007FF0000
0007FF0000
0003FF0000
0003FE0000
0003FE0000
0007FF0000
0007FF0000
0007FF0000
0007FF0000
000FFF8000
000FFF8000
000FFF8000
000FFF8000
001FFFC000
001FFFC000
001FDFC000
001FCFC000
003FCFE000
003FCFE000
003F8FE000
003F87E000
007F87F000
007F87F000
007F07F000
007F03F000
007F03F000
00FF03F800
00FF03F800
00FE03F800
00FE01F800
01FE01FC00
01FE01FC00
01FC01FC00
01FC00FC00
03FC00FE00
03FC00FE00
03F800FE00
03F800FE00
07F8007F00
07F8007F00
07F0007F00
07F0007F00
0FF0003F80
0FF0003F80
0FE0003F80
0FE0003F80
1FE0003FC0
1FE0001FC0
1FE0001FC0
1FC0001FC0
3FC0001FE0
3FC0000FE0
3FC0000FE0
3F80000FE0
7F80000FE0
7F80000FF0
7F800007F0
7F000007F0
7F000007F0
FF000007F8
FF000003F8
FE000003F8
FE000003F8
FE000003F8
FC000001F8
7C000001F8
78000000F0
ENDCHAR
STARTCHAR 0079
ENCODING 121
SWIDTH 227 0
DWIDTH 41 0
BBX 33 128 4 -2
BITMAP
7800000E00
7C00001F00
FE00003F80
FE00003F80
FE00003F80
FE00003F80
FE00003F80
FE00003F80
FE00003F80
FE00003F80
FE00003F80
FE00003F80
FE00003F80
FE00003F80
FE00003F80
FE00003F80
FE00003F80
FE00003F80
FE00003F80
FE00003F80
FE00003F80
FE00003F80
FE00003F80
FE00003F80
FE00003F80
FE00003F80
FE00003F80
FE00003F80
FE00003F80
FE00003F80
FE00003F80
FE00003F80
FE00003F80
FE00003F80
FE00003F80
FE00003F80
FE00003F80
FE00003F80
FE00003F80
FE00003F80
FE00003F80
FE00003F80
FE00003F80
FE00003F80
FE00003F80
FE00003F80
FE00003F80
FE00003F80
FE00003F80
FE00003F80
FE00003F80
FE00003F80
FE00003F80
FE00003F80
FE00003F80
FE00003F80
FE00003F80
FE00003F80
FE00003F80
FE00003F80
FE00003F80
FE00003F80
FE00003F80
FE00003F80
FF00007F80
7F00007F80
7F00007F80
7F8000FF80
3F8000FF80
3FE003FF80
1FF80FFF80
1FFFFFFF80
0FFFFFFF80
07FFFFFF80
03FFFFFF80
00FFFFBF80
003FFC3F80
0000003F80
0000003F80
0000003F80
0000003F80
0000003F80
0000003F80
0000003F80
0000003F80
0000003F80
0000003F80
0000003F80
0000003F80
0000003F80
0000003F80
0000003F80
0000003F80
0000003F80
0000003F80
0000003F80
7C00003F80
FC00003F80
FE00003F80
FE00003F80
FE00003F80
FE00003F80
FE00003F80
FE00003F80
FE00003F80
FE00003F80
FE00003F80
FE00003F80
FE00003F80
FE00003F80
FE00003F80
FE00003F80
FE00003F80
FE00003F80
FE00003F80
FF00007F00
7F00007F00
7F00007F00
7F8000FF00
7FC001FE00
3FF007FE00
3FFFFFFC00
1FFFFFF800
0FFFFFF800
07FFFFE000
03FFFFC000
00FFFF0000
001FF80000
ENDCHAR
STARTCHAR 007A
ENCODING 122
SWIDTH 200 0
DWIDTH 36 0
BBX 33 127 2 -1
BITMAP
3FFFFFFC00
7FFFFFFE00
FFFFFFFE00
FFFFFFFF00
FFFFFFFF00
7FFFFFFF00
3FFFFFFF00
000000FF00
000000FE00
000000FE00
000000FE00
000001FE00
000001FE00
000001FC00
000001FC00
000001FC00
000003FC00
000003FC00
000003F800
000003F800
000003F800
000007F800
000007F800
000007F000
000007F000
000007F000
00000FF000
00000FF000
00000FE000
00000FE000
00000FE000
00001FE000
00001FE000
00001FC000
00001FC000
00001FC000
00003FC000
00003FC000
00003F8000
00003F8000
00003F8000
00007F8000
00007F8000
00007F0000
00007F0000
0000FF0000
0000FF0000
0000FE0000
0000FE0000
0000FE0000
0001FE0000
0001FE0000
0001FC0000
0001FC0000
0001FC0000
0003FC0000
0003FC0000
0003F80000
0003F80000
0003F80000
0007F80000
0007F80000
0007F00000
0007F00000
0007F00000
000FF00000
000FF00000
000FE00000
000FE00000
000FE00000
001FE00000
001FE00000
001FC00000
001FC00000
001FC00000
003FC00000
003FC00000
003F800000
003F800000
007F800000
007F800000
007F000000
007F000000
007F000000
00FF000000
00FF000000
00FE000000
00FE000000
00FE000000
01FE000000
01FE000000
01FC000000
01FC000000
01FC000000
03FC000000
03FC000000
03F8000000
03F8000000
03F8000000
07F8000000
07F8000000
07F0000000
07F0000000
07F0000000
0FF0000000
0FF0000000
0FE0000000
0FE0000000
0FE0000000
1FE0000000
1FE0000000
1FC0000000
1FC0000000
3FC0000000
3FC0000000
3F80000000
3F80000000
3F80000000
7F80000000
7F80000000
7FFFFFFE00
7FFFFFFF00
7FFFFFFF80
7FFFFFFF80
7FFFFFFF80
3FFFFFFF00
1FFFFFFE00
ENDCHAR
STARTCHAR 007B
ENCODING 123
SWIDTH 138 0
DWIDTH 25 0
BBX 16 127 7 -1
BITMAP
3FFC
7FFE
FFFF
FFFF
FFFF
FFFE
FFFC
FE00
FE00
FE00
FE00
FE00
FE00
FE00
FE00
FE00
FE00
FE00
FE00
FE00
FE00
FE00
FE00
FE00
FE00
FE00
FE00
FE00
FE00
FE00
FE00
FE00
FE00
FE00
FE00
FE00
FE00
FE00
FE00
FE00
FE00
FE00
FE00
FE00
FE00
FE00
FE00
FE00
FE00
FE00
FE00
FE00
FE00
FE00
FE00
FE00
FE00
FE00
FE00
FE00
FE00
FE00
FE00
FE00
FE00
FE00
FE00
FE00
FE00
FE00
FE00
FE00
FE00
FE00
FE00
FE00
FE00
FE00
FE00
FE00
FE00
FE00
FE00
FE00
FE00
FE00
FE00
FE00
FE00
FE00
FE00
FE00
FE00
FE00
FE00
FE00
FE00
FE00
FE00
FE00
FE00
FE00
FE00
FE00
FE00
FE00
FE00
FE00
FE00
FE00
FE00
FE00
FE00
FE00
FE00
FE00
FE00
FE00
FE00
FE00
FFFC
FFFE
FFFF
FFFF
FFFF
FFFE
3FFC
ENDCHAR
STARTCHAR 007C
ENCODING 124
SWIDTH 255 0
DWIDTH 46 0
BBX 8 141 19 -27
BITMAP
3C
7E
FF
FF
FF
FF
FF
FF
FF
FF
FF
FF
FF
FF
FF
FF
FF
FF
FF
FF
FF
FF
FF
FF
FF
FF
FF
FF
FF
FF
FF
FF
FF
FF
FF
FF
FF
FF
FF
FF
FF
FF
FF
FF
FF
FF
FF
FF
FF
FF
FF
FF
FF
FF
FF
FF
FF
FF
FF
FF
FF
FF
FF
FF
FF
FF
FF
FF
FF
FF
FF
FF
FF
FF
FF
FF
FF
FF
FF
FF
FF
FF
FF
FF
FF
FF
FF
FF
FF
FF
FF
FF
FF
FF
FF
FF
FF
FF
FF
FF
FF
FF
FF
FF
FF
FF
FF
FF
FF
FF
FF
FF
FF
FF
FF
FF
FF
FF
FF
FF
FF
FF
FF
FF
FF
FF
FF
FF
FF
FF
FF
FF
FF
FF
FF
FF
FF
FF
FF
7E
3C
ENDCHAR
STARTCHAR 007D
ENCODING 125
SWIDTH 138 0
DWIDTH 25 0
BBX 16 127 2 -1
BITMAP
3FFC
7FFE
FFFF
FFFF
FFFF
7FFF
3FFF
007F
007F
007F
007F
007F
007F
007F
007F
007F
007F
007F
007F
007F
007F
007F
007F
007F
007F
007F
007F
007F
007F
007F
007F
007F
007F
007F
007F
007F
007F
007F
007F
007F
007F
007F
007F
007F
007F
007F
007F
007F
007F
007F
007F
007F
007F
007F
007F
007F
007F
007F
007F
007F
007F
007F
007F
007F
007F
007F
007F
007F
007F
007F
007F
007F
007F
007F
007F
007F
007F
007F
007F
007F
007F
007F
007F
007F
007F
007F
007F
007F
007F
007F
007F
007F
007F
007F
007F
007F
007F
007F
007F
007F
007F
007F
007F
007F
007F
007F
007F
007F
007F
007F
007F
007F
007F
007F
007F
007F
007F
007F
007F
007F
3FFF
7FFF
FFFF
FFFF
FFFF
7FFE
3FFC
ENDCHAR
STARTCHAR 007E
ENCODING 126
SWIDTH 505 0
DWIDTH 91 0
BBX 67 36 12 24
BITMAP
0003FC000000000000
001FFF800000000000
007FFFC00000000000
00FFFFF00000000FE0
03FFFFF80000000FE0
03FFFFFC0000000FE0
07FFFFFE0000000FE0
0FFFFFFF0000000FE0
0FFC07FF8000000FE0
1FF803FFC000001FE0
1FF001FFC000001FE0
3FE000FFE000001FE0
3FC0007FF000001FE0
3FC0003FF000001FE0
3F80003FF800001FC0
7F80001FFC00001FC0
7F80000FFC00001FC0
7F800007FE00001FC0
7F000007FF00001FC0
7F000003FF80003FC0
7F000001FF80003FC0
FF000001FFC0003F80
FF000000FFE0007F80
FF000000FFF0007F80
FE0000007FF800FF80
FE0000003FFC01FF00
FE0000001FFE03FF00
FE0000001FFF9FFE00
FE0000000FFFFFFE00
FE00000007FFFFFC00
FE00000003FFFFF800
FE00000001FFFFF000
0000000000FFFFE000
00000000003FFFC000
00000000000FFE0000
000000000001E00000
ENDCHAR
STARTCHAR 00A0
ENCODING 160
SWIDTH 211 0
DWIDTH 38 0
BBX 0 0 0 0
BITMAP
ENDCHAR
STARTCHAR 00A1
ENCODING 161
SWIDTH 138 0
DWIDTH 25 0
BBX 11 127 7 -1
BITMAP
1F00
7F80
7FC0
FFE0
FFE0
FFE0
FFE0
FFE0
FFE0
7FC0
3FC0
1F00
0000
0E00
1F00
3F80
3F80
3F80
3F80
3F80
3F80
3F80
3F80
3F80
3F80
3F80
3F80
3F80
3F80
3F80
3F80
3F80
3F80
3F80
3F80
3F80
3F80
3F80
3F80
3F80
3F80
3F80
3F80
3F80
3F80
3F80
3F80
3F80
3F80
3F80
3F80
3F80
3F80
3F80
3F80
3F80
3F80
3F80
3F80
3F80
3F80
3F80
3F80
3F80
3F80
3F80
3F80
3F80
3F80
3F80
3F80
3F80
3F80
3F80
3F80
3F80
3F80
3F80
3F80
3F80
3F80
3F80
3F80
3F80
3F80
3F80
3F80
3F80
3F80
3F80
3F80
3F80
3F80
3F80
3F80
3F80
3F80
3F80
3F80
3F80
3F80
3F80
3F80
3F80
3F80
3F80
3F80
3F80
3F80
3F80
3F80
3F80
3F80
3F80
3F80
3F80
3F80
3F80
3F80
3F80
3F80
3F80
3F80
3F80
3F80
1F00
0E00
ENDCHAR
STARTCHAR 00A2
ENCODING 162
SWIDTH 238 0
DWIDTH 43 0
BBX 35 93 4 38
BITMAP
0000F00000
0000F00000
0001F80000
000FFF8000
007FFFE000
01FFFFF800
03FFFFFC00
07FFFFFE00
0FFFFFFF00
1FFEFFFF00
3FE0F9FF80
3F80F87F80
7F00F83FC0
7E00F81FC0
7E00F81FC0
7E00F80FC0
FC00F80FE0
FC00F80FE0
FC00F80FE0
FC00F80FE0
FC00F80FE0
FC00F80FE0
FC00F80FE0
FC00F80FE0
FC00F80FE0
FC00F80FE0
FC00F80FE0
FC00F80FE0
FC00F80FE0
FC00F80FE0
FC00F80FE0
FC00F80FE0
FC00F80FE0
FC00F807C0
FC00F807C0
FC00F80000
FC00F80000
FC00F80000
FC00F80000
FC00F80000
FC00F80000
FC00F80000
FC00F80000
FC00F80000
FC00F80000
FC00F80000
FC00F80000
FC00F80000
FC00F80000
FC00F80000
FC00F80000
FC00F80000
FC00F80000
FC00F80000
FC00F80000
FC00F80380
FC00F807C0
FC00F80FE0
FC00F80FE0
FC00F80FE0
FC00F80FE0
FC00F80FE0
FC00F80FE0
FC00F80FE0
FC00F80FE0
FC00F80FE0
FC00F80FE0
FC00F80FE0
FC00F80FE0
FC00F80FE0
FC00F80FE0
FC00F80FE0
FC00F80FE0
FC00F80FE0
7E00F81FC0
7E00F81FC0
7F00F81FC0
7F00F83FC0
3F80F87F80
3FE0F9FF80
1FFFFFFF00
0FFFFFFF00
07FFFFFE00
03FFFFFC00
00FFFFF800
003FFFF000
0007FF8000
0001F80000
0001F80000
0001F80000
0000F80000
0000F00000
0000600000
ENDCHAR
STARTCHAR 00A3
ENCODING 163
SWIDTH 238 0
DWIDTH 43 0
BBX 42 127 0 -1
BITMAP
00007FE00000
0003FFFC0000
000FFFFF0000
001FFFFFC000
003FFFFFE000
007FFFFFE000
00FFFFFFF000
00FFE01FF800
01FF8007F800
01FE0003FC00
03FE0001FC00
03FC0001FC00
03FC0001FC00
03F80000FE00
07F80000FE00
07F80000FE00
07F80000FE00
07F80000FE00
07F00000FE00
07F00000FE00
07F00000FE00
07F00000FE00
07F80000FE00
07F80000FE00
07F80000FE00
03F80000FE00
03F80000FE00
03F80000FE00
03F80000FE00
03FC0000FE00
03FC0000FE00
01FC00007C00
01FC00000000
01FC00000000
01FC00000000
01FE00000000
01FE00000000
00FE00000000
00FE00000000
00FE00000000
00FE00000000
00FF00000000
007F00000000
007F00000000
007F00000000
007F00000000
007F80000000
007F80000000
003F80000000
003F80000000
003F80000000
003F80000000
003FC0000000
001FC0000000
001FC0000000
001FC0000000
3FFFFFFFF000
FFFFFFFFFC00
FFFFFFFFFC00
FFFFFFFFFC00
FFFFFFFFFC00
FFFFFFFFF800
7FFFFFFFF000
001FC0000000
001FC0000000
001FC0000000
001FC0000000
001FC0000000
001FC0000000
001FC0000000
001FC0000000
001FC0000000
001FC0000000
001FC0000000
003FC0000000
003FC0000000
003FC0000000
003FC0000000
003FC0000000
003FC0000000
003FC0000000
003F80000000
003F80000000
003F80000000
003F80000000
003F80000000
007F80000000
007F80000000
007F80000000
007F80000000
007F00000000
007F00000000
007F00000000
007F00000000
00FF00000000
00FF00000000
00FF00000000
00FF00000000
00FE00000000
00FE00000000
01FE00000000
01FE00000000
01FE00000000
01FE00000000
01FC00000000
03FC00000000
03FC00000000
03FC00000000
03FC00000000
03F800000000
07F800000000
07F800000000
07F800000000
07F800000000
0FF000000000
0FF000000000
0FF000000000
0FF000000000
1FE000000000
1FE000000000
1FFFFFFFFF00
1FFFFFFFFF80
3FFFFFFFFFC0
3FFFFFFFFFC0
3FFFFFFFFFC0
3FFFFFFFFF80
0FFFFFFFFF00
ENDCHAR
STARTCHAR 00A4
ENCODING 164
SWIDTH 411 0
DWIDTH 74 0
BBX 68 67 3 29
BITMAP
7C00000000000007C0
FE0000000000000FE0
FF0000000000001FE0
FF80000FFE00003FE0
FFC001FFFFE0007FE0
FFE007FFFFFC00FFE0
7FF01FFFFFFF01FFC0
3FF87FFFFFFFC3FF80
3FFCFFFFFFFFE7FF00
1FFFFFFFFFFFFFFF00
0FFFFFFFFFFFFFFE00
07FFFFF001FFFFFC00
03FFFF80003FFFF800
01FFFC000007FFF000
00FFF8000003FFE000
007FE0000000FFC000
00FFC00000007FE000
01FF800000003FF000
01FF000000001FF000
03FE000000000FF800
03FC0000000007F800
07FC0000000007FC00
07F80000000003FC00
0FF00000000001FC00
0FF00000000001FE00
0FE00000000001FE00
0FE00000000000FE00
0FE00000000000FE00
1FE00000000000FF00
1FC000000000007F00
1FC000000000007F00
1FC000000000007F00
1FC000000000007F00
1FC000000000007F00
1FC000000000007F00
1FC000000000007F00
1FC000000000007F00
1FC000000000007F00
1FC00000000000FF00
1FE00000000000FF00
0FE00000000000FE00
0FE00000000000FE00
0FF00000000001FE00
0FF00000000001FE00
07F80000000003FC00
07F80000000007FC00
03FC0000000007FC00
03FE000000000FF800
01FF000000001FF800
01FF800000003FF000
00FFC00000007FE000
007FE0000000FFE000
00FFF8000003FFE000
01FFFE000007FFF000
03FFFF80003FFFF800
07FFFFF001FFFFFC00
0FFFFFFFFFFFFFFE00
1FFFFFFFFFFFFFFF00
3FF9FFFFFFFFE3FF80
7FF07FFFFFFFC1FFC0
7FE03FFFFFFF00FFC0
FFC00FFFFFF8007FE0
FF8001FFFFE0003FF0
FF00001FFC00001FF0
FE0000000000000FE0
7C00000000000007E0
3800000000000003C0
ENDCHAR
STARTCHAR 00A5
ENCODING 165
SWIDTH 238 0
DWIDTH 43 0
BBX 35 127 4 -1
BITMAP
1C00000700
3E00000F80
7F00001FC0
7F00001FC0
7F00001FC0
7F00001FC0
7F00001FC0
7F00001FC0
7F00001FC0
7F00001FC0
7F00001FC0
7F00001FC0
7F00001FC0
7F00001FC0
7F00001FC0
7F00001FC0
7F00001FC0
7F00001FC0
7F00001FC0
7F00001FC0
7F00001FC0
7F00001FC0
7F00001FC0
7F00001FC0
7F00001FC0
7F00001FC0
7F00001FC0
7F00001FC0
7F00001FC0
7F00001FC0
7F00001FC0
7F00001FC0
7F00001FC0
7F00001FC0
7F00001FC0
7F00001FC0
7F00001FC0
7F00001FC0
7F00001FC0
7F00001FC0
7F00001FC0
7F00001FC0
7F00001FC0
7F00001FC0
7F00001FC0
7F00001FC0
7F00001FC0
7F00001FC0
7F00001FC0
7F00001FC0
7F00001FC0
7F00001FC0
7F00001FC0
7F00001FC0
7F00001FC0
7F00001FC0
7F00001FC0
7F00001FC0
7F00001FC0
7F00001FC0
7F00001FC0
7F00001FC0
7F00001FC0
7F00001FC0
7F00003FC0
3F80003F80
3F80003F80
3FC0007F80
1FC0007F00
1FE001FF00
0FFC07FF00
0FFFFFFE00
07FFFFFC00
03FFFFF800
01FFFFF000
007FFFE000
001FFF8000
0003F80000
0003F80000
0003F80000
0003F80000
0003F80000
0003F80000
0003F80000
0003F80000
0003F80000
0003F80000
0003F80000
3FFFFFFF80
7FFFFFFFC0
FFFFFFFFE0
FFFFFFFFE0
FFFFFFFFE0
FFFFFFFFC0
3FFFFFFF80
0003F80000
0003F80000
0003F80000
0003F80000
0003F80000
3FFFFFFF80
7FFFFFFFC0
FFFFFFFFE0
FFFFFFFFE0
FFFFFFFFE0
FFFFFFFFC0
3FFFFFFF80
0003F80000
0003F80000
0003F80000
0003F80000
0003F80000
0003F80000
0003F80000
0003F80000
0003F80000
0003F80000
0003F80000
0003F80000
0003F80000
0003F80000
0003F80000
0003F80000
0003F80000
0003F80000
0001F00000
0000E00000
ENDCHAR
STARTCHAR 00A6
ENCODING 166
SWIDTH 194 0
DWIDTH 35 0
BBX 9 129 13 -4
BITMAP
FF80
FF80
FF80
FF80
FF80
FF80
FF80
FF80
FF80
FF80
FF80
FF80
FF80
FF80
FF80
FF80
FF80
FF80
FF80
FF80
FF80
FF80
FF80
FF80
FF80
FF80
FF80
FF80
FF80
FF80
FF80
FF80
FF80
FF80
FF80
FF80
FF80
FF80
FF80
FF80
FF80
FF80
FF80
FF80
FF80
FF80
FF80
FF80
FF80
FF80
FF80
FF80
FF80
0000
0000
0000
0000
0000
0000
0000
0000
0000
0000
0000
0000
0000
0000
0000
0000
0000
0000
0000
0000
0000
0000
0000
0000
FF80
FF80
FF80
FF80
FF80
FF80
FF80
FF80
FF80
FF80
FF80
FF80
FF80
FF80
FF80
FF80
FF80
FF80
FF80
FF80
FF80
FF80
FF80
FF80
FF80
FF80
FF80
FF80
FF80
FF80
FF80
FF80
FF80
FF80
FF80
FF80
FF80
FF80
FF80
FF80
FF80
FF80
FF80
FF80
FF80
FF80
FF80
FF80
FF80
FF80
FF80
FF80
ENDCHAR
STARTCHAR 00A7
ENCODING 167
SWIDTH 238 0
DWIDTH 43 0
BBX 42 129 0 -2
BITMAP
00001FF00000
0000FFFE0000
0003FFFF8000
0007FFFFE000
001FFFFFF000
003FFFFFF800
007FFFFFFC00
007FE00FFE00
00FF8003FF00
01FF0001FF00
01FE0000FF80
01FC00007F80
03FC00003FC0
03F800001FC0
03F800000FC0
07F8000007C0
07F800000380
07F800000000
07F000000000
07F000000000
07F000000000
07F000000000
07F800000000
07F800000000
07F800000000
03F800000000
03FC00000000
03FC00000000
01FE00000000
01FF00000000
01FF00000000
00FF80000000
00FFC0000000
007FE0000000
007FF0000000
003FF8000000
001FFC000000
001FFE000000
000FFF000000
0007FF800000
000FFFC00000
001FFFE00000
003FFFF00000
007FFFF80000
00FFFFFC0000
01FF9FFE0000
03FF0FFF0000
03FE07FF8000
07FC01FFC000
0FF800FFE000
0FF8007FE000
1FF0003FF000
1FE0001FF800
1FC0000FFC00
3FC00007FC00
3FC00003FE00
3F800003FE00
7F800001FF00
7F800000FF00
7F000000FF00
7F0000007F80
7F0000007F80
7F0000003F80
7F0000003F80
7F0000003F80
7F8000003F80
3F8000003F80
3F8000007F80
3FC000007F80
1FE000007F00
1FE000007F00
0FF00000FF00
0FF80000FF00
07FC0001FE00
03FE0003FE00
03FF0003FC00
01FF8007FC00
00FFC00FF800
007FE01FF000
007FF03FE000
003FFC7FC000
001FFEFF8000
000FFFFF0000
0007FFFF0000
0003FFFE0000
0001FFFC0000
0000FFF80000
00007FF80000
00003FFC0000
00001FFC0000
00000FFE0000
00000FFF0000
000007FF0000
000003FF8000
000001FF8000
000000FFC000
000000FFE000
0000007FE000
0000003FE000
0000001FF000
0000001FF000
0000000FF000
0000000FF000
00000007F800
00000007F800
00000007F800
00000003F800
00000003F800
00000003F800
00000003F800
00000003F800
70000007F800
F8000007F800
FC000007F000
FE000007F000
FE00000FF000
FF00001FF000
FF80001FE000
7FC0003FE000
7FE0007FC000
3FF001FFC000
3FFC07FF8000
1FFFFFFF0000
0FFFFFFF0000
07FFFFFE0000
01FFFFF80000
00FFFFF00000
003FFFC00000
0007FE000000
ENDCHAR
STARTCHAR 00A8
ENCODING 168
SWIDTH 227 0
DWIDTH 41 0
BBX 28 12 7 131
BITMAP
1F000F80
3F803FE0
7FC03FE0
FFE07FF0
FFE07FF0
FFE07FF0
FFE07FF0
FFE07FF0
FFE07FF0
7FC03FE0
7FC01FC0
1F000F80
ENDCHAR
STARTCHAR 00A9
ENCODING 169
SWIDTH 355 0
DWIDTH 64 0
BBX 53 103 5 0
BITMAP
00001FFFC00000
0003FFFFFE0000
001FFFFFFFC000
007FFFFFFFF000
01FFFFFFFFFC00
03FFE0003FFE00
07FE000003FF00
0FF80000007F80
1FE00000003FC0
3FC00000000FC0
3F8000000007E0
3F0000000007E0
7E0000000003F0
7E0000000001F0
7C0000700001F0
FC0007FF0001F8
FC001FFF8000F8
F8003FFFC000F8
F8003FFFE000F8
F8007F03F000F8
F8007E01F000F8
F800FC01F000F8
F800F800F000F8
F800F800F000F8
F800F800F800F8
F800F800F800F8
F800F800F800F8
F800F800F800F8
F800F800F800F8
F800F800F800F8
F800F800F800F8
F800F800F800F8
F800F800F000F8
F800F8007000F8
F800F8000000F8
F800F8000000F8
F800F8000000F8
F800F8000000F8
F800F8000000F8
F800F8000000F8
F800F8000000F8
F800F8000000F8
F800F8000000F8
F800F8000000F8
F800F8000000F8
F800F8000000F8
F800F8000000F8
F800F8000000F8
F800F8000000F8
F800F8000000F8
F800F8000000F8
F800F8000000F8
F800F8000000F8
F800F8000000F8
F800F8000000F8
F800F8000000F8
F800F8000000F8
F800F8000000F8
F800F8000000F8
F800F8000000F8
F800F8000000F8
F800F8000000F8
F800F8000000F8
F800F8000000F8
F800F8000000F8
F800F8000000F8
F800F8000000F8
F800F8000000F8
F800F8000000F8
F800F8000000F8
F800F8007000F8
F800F800F000F8
F800F800F800F8
F800F800F800F8
F800F800F800F8
F800F800F800F8
F800F800F800F8
F800F800F800F8
F800F800F800F8
F800F800F800F8
F800F800F000F8
F800F800F000F8
F800F801F000F8
F8007C01F000F8
F8007E07F000F8
F8003FFFE000F8
FC003FFFC001F8
FC000FFF8001F8
7C0007FF0001F0
7E0000200003F0
7E0000000003F0
3F0000000007F0
3F8000000007E0
1FE00000000FE0
1FF00000003FC0
0FFC0000007F80
07FF000003FF80
03FFF0003FFE00
01FFFFFFFFFC00
007FFFFFFFF800
001FFFFFFFC000
0003FFFFFF0000
00001FFFC00000
ENDCHAR
STARTCHAR 00AA
ENCODING 170
SWIDTH 255 0
DWIDTH 46 0
BBX 25 77 7 49
BITMAP
001FE000
007FF800
00FFFC00
01FFFE00
03F87F00
03C00F00
03C00F00
07800780
07800780
07800780
07800780
07800780
07800780
07800780
07800780
07800780
07800780
07800780
07800780
07800780
07800780
07800780
07800780
07800780
07800780
07800780
07800780
07800780
07800780
07800780
07800780
07800780
07800780
07800780
07800780
07800780
07800780
07800780
07800780
07800780
07800780
07800780
07800780
07800780
7FFFFF80
FFFFFF80
FFFFFF80
7FFFFF80
07800780
07800780
07800780
07800780
07800780
07800780
07800780
07800780
07800780
07800780
07800780
07800780
07800780
07800780
07800780
07800780
07800780
07800780
07800780
07800780
07800780
07800780
07800780
07800780
07800780
07800780
07800780
07800780
07800780
ENDCHAR
STARTCHAR 00AB
ENCODING 171
SWIDTH 233 0
DWIDTH 42 0
BBX 29 64 8 6
BITMAP
001F01F0
001F81F8
003F83F8
003F83F8
007F87F8
007F87F8
007F07F0
00FF0FF0
00FF0FF0
00FE0FE0
01FE1FE0
01FC1FC0
03FC3FC0
03FC3FC0
03F83F80
07F87F80
07F87F80
07F07F00
0FF0FF00
0FF0FF00
0FE1FE00
1FE1FE00
1FC1FC00
3FC3FC00
3FC3FC00
3F83F800
7F87F800
7F87F800
7F07F000
FF0FF000
FE0FE000
FE0FE000
FE0FE000
FF0FF000
7F07F000
7F07F000
7F87F800
3F83F800
3FC3FC00
3FC3FC00
1FC1FC00
1FE1FE00
1FE1FE00
0FE0FE00
0FF0FF00
07F07F00
07F87F80
07F87F80
03F83F80
03FC3FC0
03FC3FC0
01FC1FC0
01FE1FE0
01FE1FE0
00FF0FF0
00FF0FF0
007F0FF0
007F87F8
007F87F8
003F83F8
003F83F8
003F83F8
001F01F0
000E00E0
ENDCHAR
STARTCHAR 00AC
ENCODING 172
SWIDTH 1200 0
DWIDTH 216 0
BBX 202 138 7 -15
BITMAP
FFFFFFFFFFFFFFFFFFFFFFFFFFFFFFFFFFFFFFFFFFFFFFFFFFC0
FFFFFFFFFFFFFFFFFFFFFFFFFFFFFFFFFFFFFFFFFFFFFFFFFFC0
FFFFFFFFFFFFFFFFFFFFFFFFFFFFFFFFFFFFFFFFFFFFFFFFFFC0
FFFFFFFFFFFFFFFFFFFFFFFFFFFFFFFFFFFFFFFFFFFFFFFFFFC0
FFFFFFFFFFFFFFFFFFFFFFFFFFFFFFFFFFFFFFFFFFFFFFFFFFC0
FFFFFFFFFFFFFFFF8FFFFFFFFFFFFFFFF87FFFFFFFFFFFFFFFC0
FFFE0000007FFFFF8FFFFFFC00001FF800003FF80000007FFFC0
FFFE0000007FFFFF87FFFFFC00001FC0000003F80000007FFFC0
FFFE0000007FFFFF07FFFFFC00001F00000000780000007FFFC0
FFFFF0003FFFFFFF07FFFFFFF801FC007FE0001FE0001FFFFFC0
FFFFFC007FFFFFFF03FFFFFFFE07F007FFFC003FF8007FFFFFC0
FFFFFC00FFFFFFFE03FFFFFFFE07E01FFFFF803FF8007FFFFFC0
FFFFFC007FFFFFFE01FFFFFFFE07C03FFFFFE03FF800FFFFFFC0
FFFFFE007FFFFFFC01FFFFFFFC0F807FFFFFF83FFC00FFFFFFC0
FFFFFE007FFFFFFC01FFFFFFFC0F00FFFFFFF83FFC00FFFFFFC0
FFFFFE007FFFFFFC00FFFFFFFC0E01FFFFFFF83FFC00FFFFFFC0
FFFFFF003FFFFFF800FFFFFFFC1E03FFFFFFFC7FFC00FFFFFFC0
FFFFFF003FFFFFF800FFFFFFF81C03FFFFFFFC7FFC00FFFFFFC0
FFFFFF003FFFFFF8007FFFFFF81C07FFFFFFFC7FFC00FFFFFFC0
FFFFFF003FFFFFF0007FFFFFF83807FFFFFFFC7FFC00FFFFFFC0
FFFFFF801FFFFFF0007FFFFFF83807FFFFFFFC7FFC00FFFFFFC0
FFFFFF801FFFFFE0003FFFFFF83807FFFFFFFC7FFC00FFFFFFC0
FFFFFF801FFFFFE0003FFFFFF07007FFFFFFFC7FFC00FFFFFFC0
FFFFFF801FFFFFE1803FFFFFF07007FFFFFFFC7FFC00FFFFFFC0
FFFFFF801FFFFFC1801FFFFFF07007FFFFFFFFFFFC00FFFFFFC0
FFFFFFC00FFFFFC1801FFFFFF0F007FFFFFFFFFFFC00FFFFFFC0
FFFFFFC00FFFFFC3C00FFFFFE0F007FFFFFFFFFFFC00FFFFFFC0
FFFFFFC00FFFFF83C00FFFFFE0F007FFFFFFFFFFFC00FFFFFFC0
FFFFFFC00FFFFF87C00FFFFFE1F007FFFFFFFFFFFC00FFFFFFC0
FFFFFFE00FFFFF07E007FFFFC1F003FFFFFFFFFFFC00FFFFFFC0
FFFFFFE007FFFF0FE007FFFFC1F003FFFFFFFFFFFC00FFFFFFC0
FFFFFFE007FFFF0FF007FFFFC3F001FFFFFFFFFFFC00FFFFFFC0
FFFFFFE007FFFE0FF003FFFFC3F800FFFFFFFFFFFC00FFFFFFC0
FFFFFFF007FFFE1FF003FFFF83F8007FFFFFFFFFFC00FFFFFFC0
FFFFFFF003FFFE1FF803FFFF83F8003FFFFFFFFFFC00FFFFFFC0
FFFFFFF003FFFC3FF801FFFF87FC0007FFFFFFFFFC00FFFFFFC0
FFFFFFF003FFFC3FF801FFFF07FC00007FFFFFFFFC00FFFFFFC0
FFFFFFF003FFF83FFC00FFFF07FE00000000FFFFFC00FFFFFFC0
FFFFFFF803FFF87FFC00FFFF0FFF000000000FFFFC00FFFFFFC0
FFFFFFF801FFF87FFE00FFFF0FFF8000000001FFFC00FFFFFFC0
FFFFFFF801FFF0FFFE007FFE0FFFC0000000007FFC00FFFFFFC0
FFFFFFF801FFF0FFFE007FFE0FFFE0000000003FFC00FFFFFFC0
FFFFFFFC01FFE1FFFF007FFE1FFFF8000000001FFC00FFFFFFC0
FFFFFFFC00FFE1FFFF003FFC1FFFFF000000000FFC00FFFFFFC0
FFFFFFFC00FFE1FFFF003FFC1FFFFFF000000007FC00FFFFFFC0
FFFFFFFC00FFC3FFFF801FFC3FFFFFFFFFC00007FC00FFFFFFC0
FFFFFFFE00FFC3FFFF801FFC3FFFFFFFFFFC0003FC00FFFFFFC0
FFFFFFFE00FF87FFFFC01FF83FFFFFFFFFFF0003FC00FFFFFFC0
FFFFFFFE007F87FFFFC00FF87FFFFFFFFFFF8003FC00FFFFFFC0
FFFFFFFE007F87FFFFC00FF87FFFFFFFFFFFE001FC00FFFFFFC0
FFFFFFFF007F0FFFFFE00FF07FFFFFFFFFFFE001FC00FFFFFFC0
FFFFFFFF007F0FFFFFE007F07FFFFFFFFFFFF001FC00FFFFFFC0
FFFFFFFF003F0FFFFFE007F0FFFFFFFFFFFFF801FC00FFFFFFC0
FFFFFFFF003E1FFFFFF007E0FFFFFFFFFFFFF801FC00FFFFFFC0
FFFFFFFF003E1FFFFFF003E0FFFFFFFFFFFFF801FC00FFFFFFC0
FFFFFFFF803C3FFFFFF803E0FFFFFFFFFFFFFC01FC00FFFFFFC0
FFFFFFFF801C3FFFFFF801E1FFFFFFFFFFFFFC01FC00FFFFFFC0
FFFFFFFF801C3FFFFFF801C1FFFFFFFFFFFFFC01FC00FFFFFFC0
FFFFFFFF80187FFFFFFC01C1FFFFFFFFFFFFFC03FC00FFFFFFC0
FFFFFFFF80187FFFFFFC00C3FFFC7FFFFFFFFC03FC00FFFFFFC0
FFFFFFF800107FFFFFFC0083FFFC7FFFFFFFFC03FC00FFFFFFC0
FFFFFFE00000FFFFFFFE0083FFFC7FFFFFFFFC07FC00FFFFFFC0
FFFFFFC00000FFFFFFFE0003FFFC7FFFFFFFF807FC00FFFFFFC0
FFFFFF800001FFFFFFFF0007FFFC7FFFFFFFF80FFC00FFFFFFC0
FFFFFF000001FFFFFFFF0007FFFC7FFFFFFFF80FFC00FFFFFFC0
FFFFFE000001FFFFFFFF0007FFFC7FFFFFFFF01FFC00FFFFFFC0
FFFFFC000003FFFFFFFF8007FFFC7FFFFFFFE03FFC00FFFFFFC0
FFFFF83FC003FFFFFFFF800FFFFC7FFFFFFFE07FFC00FFFFFFC0
FFFFF0FFE003FFFFFFFF800FFFF83FFFFFFFC0FFFC00FFFFFFC0
FFFFE0FFE007FFFFFFFFC00FFFF81FFFFFFF01FFFC00FFFFFFC0
FFFFC1FFF007FFFFFFFFC01FFFF80FFFFFFE03FFFC00FFFFFFC0
FFFF81FFF007FFFFFFFFE01FFFF803FFFFF807FFFC00FFFFFFC0
FFFF01FFF00FFFFFFFFFE01FFFF8007FFFE00FFFF8007FFFFFC0
FFFE01FFF00FFFFFFFFFE01FFFF80007FF000FFFE0003FFFFFC0
FFFE03FFF80FFFFFFFFFF03FFFFC000000001FF80000007FFFC0
FFFC03FFF81FFFFFFFFFF03FFFFF000000001FF80000007FFFC0
FFFC03FFF81FFFFFFFFFF03FFFFFF00000001FF80000007FFFC0
FFFC03FFF81FFFFFFFFFF03FFFFFFFC007801FFFFFFFFFFFFFC0
FFF803FFFFFFFFFFFFFFFFFFFFFFFFFFFF801FFFFFFFFFFFFFC0
FFF803FFFFFFFFFFFFFFFFFFFFFFFFFFFF801FFFFFFFFFFFFFC0
FFF803FFFFFFFFFFFFFFFFFFFFFFFFFFFF801FFFFFFFFFFFFFC0
FFF803FFFFFFFFFFFFFFFFFFFFFFFFFFFFC01FFFFFFFFFFFFFC0
FFF803FFFFFFFFFFFFFFFFFFFFFFFFFFFFC01FFFFFFFFFFFFFC0
FFF803FFFFFFFFFFFFFFFFFFFFFFFFFFFFC01FFFFFFFFFFFFFC0
FFF803FFFFFFFFFFFFFFFFFFFFFFFFFFFFC01FFFFFFFFFFFFFC0
FFF803FFFFFFFFFFFFFFFFFFFFFFFFFFFFC01FFFFFFFFFFFFFC0
FFF803FFFFFFF001FFFFFFFDFFF803FFFFC01FFFFFFE001FFFC0
FFF803FFFFFF00001FFFFFE0FFC0007FFFC01FFFFFF00000FFC0
FFF803FFFFF8000007FFFF00FF00001FFFC01FFFFFC000001FC0
FFF803FFFFF00FE001FFF000FC00000FFFC01FFFFF007E001FC0
FFF000000FC07FF8007E0000F8000007FF8000001E03FFC01FC0
FFC000000F80FFFE003E0000F0000003FE0000003C07FFE01FC0
FF0000001E01FFFF001E0000E0080001F0000000380FFFF81FC0
FC0000001C03FFFF800FF800C1FFE001C0000000381FFFFC1FC0
FC0000001807FFFFC007FE0087FFF000C0000000301FFFFC1FC0
FFF803FFF807FFFFE007FE000FFFF800C0001FFFF01FFFFE3FC0
FFF803FFF00FFFFFE003FE003FFFFC00FFC01FFFE01FFFFE3FC0
FFF803FFE00FFFFFF003FE007FFFFC00FFC01FFFE01FFFFE3FC0
FFF803FFE01FFFFFF001FE007FFFFE007FC01FFFE01FFFFE3FC0
FFF803FFC01FFFFFF801FE007FFFFE007FC01FFFE01FFFFE3FC0
FFF803FFC01FFFFFF800FE00FFFFFE007FC01FFFE01FFFFE3FC0
FFF803FF803FFFFFF800FE00FFFFFF007FC01FFFE00FFFFFFFC0
FFF803FF803FFFFFFC00FE00FFFFFF007FC01FFFE007FFFFFFC0
FFF803FF803FFFFFFC00FE00FFFFFF007FC01FFFE001FFFFFFC0
FFF803FF803FFFFFFC007E00FFFFFF007FC01FFFE0007FFFFFC0
FFF803FF003FFFFFFC007E00FFFFFF007FC01FFFE0000FFFFFC0
FFF803FF003FFFFFFE007E00FFFFFF007FC01FFFF000007FFFC0
FFF803FF003FFFFFFE007E00FFFFFF007FC01FFFF8000007FFC0
FFF803FF003FFFFFFE007E00FFFFFF007FC01FFFF8000000FFC0
FFF803FF003FFFFFFE007E00FFFFFF007FC01FFFFE0000003FC0
FFF803FF003FFFFFFE007E00FFFFFF007FC01FFFFF0000001FC0
FFF803FF003FFFFFFE007E00FFFFFF007FC01FFFFFC000000FC0
FFF803FF003FFFFFFE007E00FFFFFF007FC01FFFFFF8000007C0
FFF803FF003FFFFFFE007E00FFFFFF007FC01FFFFFFFC00007C0
FFF803FF001FFFFFFE00FE00FFFFFF007FC01FFFFFFFFE0003C0
FFF803FF001FFFFFFE00FE00FFFFFF007FC01FFFFFFFFF8003C0
FFF803FF801FFFFFFE00FE00FFFFFF007FC01FFFFFFFFFE003C0
FFF803FF801FFFFFFE00FE00FFFFFF007FC01FFFFFFFFFF003C0
FFF803FF800FFFFFFE01FE00FFFFFF007FC01FFFFFFFFFF803C0
FFF803FF800FFFFFFC01FE00FFFFFF007FC01FFFF3FFFFFC03C0
FFF803FFC00FFFFFFC01FE00FFFFFF007FC01FFFF3FFFFFC03C0
FFF803FFC007FFFFFC03FE00FFFFFF007FC01FFFF3FFFFFC03C0
FFF803FFE007FFFFFC03FE00FFFFFF007FC01FFFE3FFFFFC03C0
FFF803FFE003FFFFF807FE00FFFFFF007FC00FFFE3FFFFFC07C0
FFF803FFF003FFFFF80FFE00FFFFFF007FC00FFFE3FFFFFC07C0
FFF803FFF001FFFFF00FFE00FFFFFF007FC00FFFE1FFFFFC07C0
FFF803FFF800FFFFF01FFE00FFFFFF007FC007FF61FFFFFC0FC0
FFF803FFFC00FFFFE03FFE00FFFFFF007FC003FE61FFFFF81FC0
FFF003FFFE007FFFC07FFE00FFFFFF007FE000F860FFFFF01FC0
FFF001FFFF003FFF81FFFE007FFFFF007FE00000E03FFFE03FC0
FFE000FFFF800FFF03FFFC003FFFFF003FE00000E00FFFC0FFC0
F0000000FFC003F807FE000000FFFF0000700001E001FE01FFC0
F0000000FFF000001FFE000000FFFF0000780003E0000007FFC0
F0000000FFFC0000FFFE000000FFFF00007E0007F800001FFFC0
FFFFFFFFFFFF800FFFFFFFFFFFFFFFFFFFFFC03FFFE001FFFFC0
FFFFFFFFFFFFFFFFFFFFFFFFFFFFFFFFFFFFFFFFFFFFFFFFFFC0
FFFFFFFFFFFFFFFFFFFFFFFFFFFFFFFFFFFFFFFFFFFFFFFFFFC0
FFFFFFFFFFFFFFFFFFFFFFFFFFFFFFFFFFFFFFFFFFFFFFFFFFC0
ENDCHAR
STARTCHAR 00AD
ENCODING 173
SWIDTH 138 0
DWIDTH 25 0
BBX 17 7 4 48
BITMAP
3FFE00
7FFF80
FFFF80
FFFF80
FFFF80
7FFF00
3FFE00
ENDCHAR
STARTCHAR 00AE
ENCODING 174
SWIDTH 355 0
DWIDTH 64 0
BBX 53 103 5 0
BITMAP
00001FFFC00000
0003FFFFFE0000
001FFFFFFFC000
007FFFFFFFF000
01FFFFFFFFFC00
03FFE0003FFE00
07FE000003FF00
0FF80000007F80
1FE00000003FC0
3FC00000000FC0
3F8000000007E0
7F0000000007E0
7E0000000003F0
7E007FFC0001F0
7C007FFF8001F0
FC007FFFE001F8
FC007FFFF000F8
F8007FFFF000F8
F8007C01F800F8
F8007C00F800F8
F8007C007C00F8
F8007C007C00F8
F8007C007C00F8
F8007C007C00F8
F8007C007C00F8
F8007C007C00F8
F8007C007C00F8
F8007C007C00F8
F8007C007C00F8
F8007C007C00F8
F8007C007C00F8
F8007C007C00F8
F8007C007C00F8
F8007C007C00F8
F8007C007C00F8
F8007C007C00F8
F8007C007C00F8
F8007C007C00F8
F8007C007C00F8
F8007C007C00F8
F8007C007C00F8
F8007C007C00F8
F8007C007C00F8
F8007C007C00F8
F8007C007C00F8
F8007C007C00F8
F8007C007C00F8
F8007C007C00F8
F8007C007C00F8
F8007C007C00F8
F8007C007C00F8
F8007C007C00F8
F8007C00FC00F8
F8007C01F800F8
F8007C03F800F8
F803FFFFF000F8
F807FFFFF000F8
F80FFFFFF000F8
F807FFFFF000F8
F803FFFFF800F8
F8007C03F800F8
F8007C01F800F8
F8007C00FC00F8
F8007C007C00F8
F8007C007C00F8
F8007C007C00F8
F8007C007C00F8
F8007C007C00F8
F8007C007C00F8
F8007C007C00F8
F8007C007C00F8
F8007C007C00F8
F8007C007C00F8
F8007C007C00F8
F8007C007C00F8
F8007C007C00F8
F8007C007C00F8
F8007C007C00F8
F8007C007C00F8
F8007C007C00F8
F8007C007C00F8
F8007C003E00F8
F8007C003F00F8
F8007C003F80F8
F8007C001FC0F8
F8007C000FF0F8
FC007C0007F8F8
FC007C0003F9F8
7C00380001F1F0
7E0000000001F0
7E0000000003F0
3F0000000007F0
3F8000000007E0
1FC00000000FE0
1FF00000003FC0
0FFC0000007FC0
07FF000003FF80
03FFF0003FFF00
01FFFFFFFFFE00
007FFFFFFFF800
001FFFFFFFE000
0003FFFFFF0000
00001FFFE00000
ENDCHAR
STARTCHAR 00AF
ENCODING 175
SWIDTH 227 0
DWIDTH 41 0
BBX 29 7 10 131
BITMAP
3FFFFFE0
7FFFFFF0
FFFFFFF8
FFFFFFF8
FFFFFFF8
7FFFFFF0
3FFFFFE0
ENDCHAR
STARTCHAR 00B0
ENCODING 176
SWIDTH 238 0
DWIDTH 43 0
BBX 37 38 3 89
BITMAP
0003FE0000
001FFFC000
007FFFF000
00FFFFF800
03FFFFFE00
07FFFFFF00
0FFFFFFF80
0FFC01FF80
1FF0007FC0
3FE0003FE0
3FC0001FE0
7F80000FF0
7F000007F0
7F000007F0
FE000003F8
FE000003F8
FE000003F8
FC000003F8
FC000003F8
FC000003F8
FC000003F8
FE000003F8
FE000003F8
FE000003F8
7F000007F0
7F000007F0
7F80000FF0
3FC0001FE0
3FE0003FE0
1FF0007FC0
0FFC01FF80
0FFFFFFF80
07FFFFFF00
03FFFFFE00
00FFFFF800
007FFFF000
001FFFC000
0003FE0000
ENDCHAR
STARTCHAR 00B1
ENCODING 177
SWIDTH 505 0
DWIDTH 91 0
BBX 83 97 4 -12
BITMAP
0000000000F00000000000
0000000001F80000000000
0000000003FC0000000000
0000000003FC0000000000
0000000003FC0000000000
0000000003FC0000000000
0000000003FC0000000000
0000000003FC0000000000
0000000003FC0000000000
0000000003FC0000000000
0000000003FC0000000000
0000000003FC0000000000
0000000003FC0000000000
0000000003FC0000000000
0000000003FC0000000000
0000000003FC0000000000
0000000003FC0000000000
0000000003FC0000000000
0000000003FC0000000000
0000000003FC0000000000
0000000003FC0000000000
0000000003FC0000000000
0000000003FC0000000000
0000000003FC0000000000
0000000003FC0000000000
0000000003FC0000000000
0000000003FC0000000000
0000000003FC0000000000
0000000003FC0000000000
0000000003FC0000000000
0000000003FC0000000000
0000000003FC0000000000
0000000003FC0000000000
0000000003FC0000000000
0000000003FC0000000000
0000000003FC0000000000
0000000003FC0000000000
0000000003FC0000000000
0000000003FC0000000000
0000000003FC0000000000
3FFFFFFFFFFFFFFFFFFF80
7FFFFFFFFFFFFFFFFFFFC0
FFFFFFFFFFFFFFFFFFFFE0
FFFFFFFFFFFFFFFFFFFFE0
FFFFFFFFFFFFFFFFFFFFE0
7FFFFFFFFFFFFFFFFFFFC0
3FFFFFFFFFFFFFFFFFFF80
0000000003FC0000000000
0000000003FC0000000000
0000000003FC0000000000
0000000003FC0000000000
0000000003FC0000000000
0000000003FC0000000000
0000000003FC0000000000
0000000003FC0000000000
0000000003FC0000000000
0000000003FC0000000000
0000000003FC0000000000
0000000003FC0000000000
0000000003FC0000000000
0000000003FC0000000000
0000000003FC0000000000
0000000003FC0000000000
0000000003FC0000000000
0000000003FC0000000000
0000000003FC0000000000
0000000003FC0000000000
0000000003FC0000000000
0000000003FC0000000000
0000000003FC0000000000
0000000003FC0000000000
0000000003FC0000000000
0000000003FC0000000000
0000000003FC0000000000
0000000003FC0000000000
0000000003FC0000000000
0000000003FC0000000000
0000000003FC0000000000
0000000003FC0000000000
0000000003FC0000000000
0000000003FC0000000000
0000000003FC0000000000
0000000003FC0000000000
0000000003F80000000000
0000000001F80000000000
0000000000E00000000000
0000000000000000000000
0000000000000000000000
0000000000000000000000
0000000000000000000000
3FFFFFFFFFFFFFFFFFFF80
7FFFFFFFFFFFFFFFFFFFC0
FFFFFFFFFFFFFFFFFFFFC0
FFFFFFFFFFFFFFFFFFFFE0
FFFFFFFFFFFFFFFFFFFFE0
7FFFFFFFFFFFFFFFFFFFC0
3FFFFFFFFFFFFFFFFFFF80
ENDCHAR
STARTCHAR 00B2
ENCODING 178
SWIDTH 166 0
DWIDTH 30 0
BBX 22 77 5 50
BITMAP
01FC00
07FF80
0FFFC0
1FFFE0
3FFFE0
3FFFF0
7F03F0
7F03F8
7E01F8
FE01F8
FE01F8
FE01F8
FE01F8
FE01F8
FE01F8
FE01F8
FE01F8
FE01F8
7C01F8
7C01F8
1001F8
0001F8
0001F8
0001F8
0001F8
0001F8
0001F8
0001F8
0001F8
0001F8
0001F8
0001F8
0001F8
0001F8
0001F8
0001F8
0001F8
0001F8
0001F8
0001F8
0001F8
0003F8
0003F8
000FF0
003FF0
01FFF0
07FFE0
0FFFC0
1FFF80
3FFC00
3FE000
7FC000
7F8000
7F0000
7F0000
7E0000
7E0000
7E0000
7E0000
7E0000
7E0000
7E0000
7E0000
7E0000
7E0000
7E0000
7E0000
7E0000
7E0000
7E0000
7E0000
7FFFF0
7FFFF8
7FFFF8
7FFFFC
3FFFF8
1FFFF0
ENDCHAR
STARTCHAR 00B3
ENCODING 179
SWIDTH 166 0
DWIDTH 30 0
BBX 21 79 5 48
BITMAP
03FC00
0FFF00
1FFFC0
3FFFE0
3FFFE0
7FFFF0
7F07F0
FE03F8
FE01F8
FC01F8
FC01F8
FC01F8
FC01F8
FC01F8
FC01F8
FC01F8
FC01F8
FC01F8
FC01F8
7801F8
1001F8
0001F8
0001F8
0001F8
0001F8
0001F8
0001F8
0001F8
0001F8
0001F8
0001F8
0001F8
0001F8
0003F8
0007F0
3FFFF0
7FFFF0
FFFFF0
FFFFF0
7FFFF0
3FFFF0
0007F0
0003F0
0001F8
0001F8
0001F8
0001F8
0001F8
0001F8
0001F8
0001F8
0001F8
0001F8
0001F8
0001F8
0001F8
0001F8
0001F8
7801F8
FC01F8
FC01F8
FC01F8
FC01F8
FC01F8
FC01F8
FC01F8
FC01F8
FC01F8
FC01F8
FE01F8
FE03F8
FE03F8
7F8FF0
7FFFF0
3FFFE0
3FFFE0
1FFFC0
07FF00
00F800
ENDCHAR
STARTCHAR 00B4
ENCODING 180
SWIDTH 227 0
DWIDTH 41 0
BBX 24 20 16 131
BITMAP
00001E
00003F
0000FF
0001FF
0003FF
0007FE
001FFC
003FF8
007FE0
00FFC0
03FF80
07FF00
0FFC00
3FF800
7FF000
7FC000
FF8000
FF0000
FC0000
780000
ENDCHAR
STARTCHAR 00B5
ENCODING 181
SWIDTH 227 0
DWIDTH 41 0
BBX 33 79 4 -18
BITMAP
3800000E00
7C00001F00
FE00003F80
FE00003F80
FE00003F80
FE00003F80
FE00003F80
FE00003F80
FE00003F80
FE00003F80
FE00003F80
FE00003F80
FE00003F80
FE00003F80
FE00003F80
FE00003F80
FE00003F80
FE00003F80
FE00003F80
FE00003F80
FE00003F80
FE00003F80
FE00003F80
FE00003F80
FE00003F80
FE00003F80
FE00003F80
FE00003F80
FE00003F80
FE00003F80
FE00003F80
FE00003F80
FE00003F80
FE00003F80
FE00003F80
FE00003F80
FE00003F80
FE00003F80
FE00003F80
FE00003F80
FE00003F80
FE00003F80
FE00003F80
FE00003F80
FE00003F80
FE00003F80
FE00003F80
FE00003F80
FE00003F80
FE00003F80
FE00007F00
FF00007F00
FF00007F00
FF8000FF00
FFC000FE00
FFE003FE00
FFFC1FFC00
FFFFFFFC00
FFFFFFF800
FFFFFFF000
FFFFFFC000
FEFFFF8000
FE1FF80000
FE00000000
FE00000000
FE00000000
FE00000000
FE00000000
FE00000000
FE00000000
FE00000000
FE00000000
FE00000000
FE00000000
FE00000000
FE00000000
FE00000000
7E00000000
7C00000000
ENDCHAR
STARTCHAR 00B6
ENCODING 182
SWIDTH 411 0
DWIDTH 74 0
BBX 59 126 7 0
BITMAP
000000003FFFFFE0
0000000FFFFFFFE0
0000007FFFFFFFE0
000003FFFFFFFFE0
00000FFFFFFFFFE0
00003FFFFFFFFFE0
0000FFFFFFFFFFE0
0003FFFFFC0FE000
0007FFFFFC0FE000
000FFFFFFC0FE000
001FFFFFFC0FE000
007FFFFFFC0FE000
00FFFFFFFC0FE000
00FFFFFFFC0FE000
01FFFFFFFC0FE000
03FFFFFFFC0FE000
07FFFFFFFC0FE000
07FFFFFFFC0FE000
0FFFFFFFFC0FE000
0FFFFFFFFC0FE000
1FFFFFFFFC0FE000
1FFFFFFFFC0FE000
3FFFFFFFFC0FE000
3FFFFFFFFC0FE000
3FFFFFFFFC0FE000
7FFFFFFFFC0FE000
7FFFFFFFFC0FE000
7FFFFFFFFC0FE000
7FFFFFFFFC0FE000
7FFFFFFFFC0FE000
7FFFFFFFFC0FE000
FFFFFFFFFC0FE000
FFFFFFFFFC0FE000
FFFFFFFFFC0FE000
FFFFFFFFFC0FE000
FFFFFFFFFC0FE000
FFFFFFFFFC0FE000
7FFFFFFFFC0FE000
7FFFFFFFFC0FE000
7FFFFFFFFC0FE000
7FFFFFFFFC0FE000
7FFFFFFFFC0FE000
7FFFFFFFFC0FE000
3FFFFFFFFC0FE000
3FFFFFFFFC0FE000
3FFFFFFFFC0FE000
1FFFFFFFFC0FE000
1FFFFFFFFC0FE000
0FFFFFFFFC0FE000
0FFFFFFFFC0FE000
07FFFFFFFC0FE000
07FFFFFFFC0FE000
03FFFFFFFC0FE000
01FFFFFFFC0FE000
00FFFFFFFC0FE000
007FFFFFFC0FE000
003FFFFFFC0FE000
001FFFFFFC0FE000
000FFFFFFC0FE000
0003FFFFFC0FE000
0001FFFFFC0FE000
00007FFFFC0FE000
00001FFFFC0FE000
000003FFFC0FE000
0000007FFC0FE000
00000007FC0FE000
00000001FC0FE000
00000001FC0FE000
00000001FC0FE000
00000001FC0FE000
00000001FC0FE000
00000001FC0FE000
00000001FC0FE000
00000001FC0FE000
00000001FC0FE000
00000001FC0FE000
00000001FC0FE000
00000001FC0FE000
00000001FC0FE000
00000001FC0FE000
00000001FC0FE000
00000001FC0FE000
00000001FC0FE000
00000001FC0FE000
00000001FC0FE000
00000001FC0FE000
00000001FC0FE000
00000001FC0FE000
00000001FC0FE000
00000001FC0FE000
00000001FC0FE000
00000001FC0FE000
00000001FC0FE000
00000001FC0FE000
00000001FC0FE000
00000001FC0FE000
00000001FC0FE000
00000001FC0FE000
00000001FC0FE000
00000001FC0FE000
00000001FC0FE000
00000001FC0FE000
00000001FC0FE000
00000001FC0FE000
00000001FC0FE000
00000001FC0FE000
00000001FC0FE000
00000001FC0FE000
00000001FC0FE000
00000001FC0FE000
00000001FC0FE000
00000001FC0FE000
00000001FC0FE000
00000001FC0FE000
00000001FC0FE000
00000001FC0FE000
00000001FC0FE000
00000001FC0FE000
00000001FC0FE000
00000001FC0FE000
00000001FC0FE000
00000001FC0FE000
00000001FC0FE000
00000001FC0FE000
00000001FC0FE000
00000001FC0FE000
ENDCHAR
STARTCHAR 00B7
ENCODING 183
SWIDTH 238 0
DWIDTH 43 0
BBX 13 13 14 50
BITMAP
1FC0
3FE0
7FF0
7FF0
FFF8
FFF8
FFF8
FFF8
FFF8
7FF0
7FF0
3FE0
1FC0
ENDCHAR
STARTCHAR 00B8
ENCODING 184
SWIDTH 227 0
DWIDTH 41 0
BBX 16 26 12 -23
BITMAP
01E0
03F0
03F0
07F0
07F0
0FE0
0FE0
0FE0
1FF8
1FFC
1FFE
03FE
007E
003F
003F
003F
003F
003F
003F
003F
607E
FFFE
FFFC
FFF8
7FF0
1FC0
ENDCHAR
STARTCHAR 00B9
ENCODING 185
SWIDTH 83 0
DWIDTH 15 0
BBX 6 76 5 49
BITMAP
78
78
FC
FC
FC
FC
FC
FC
FC
FC
FC
FC
FC
FC
FC
FC
FC
FC
FC
FC
FC
FC
FC
FC
FC
FC
FC
FC
FC
FC
FC
FC
FC
FC
FC
FC
FC
FC
FC
FC
FC
FC
FC
FC
FC
FC
FC
FC
FC
FC
FC
FC
FC
FC
FC
FC
FC
FC
FC
FC
FC
FC
FC
FC
FC
FC
FC
FC
FC
FC
FC
FC
FC
FC
78
78
ENDCHAR
STARTCHAR 00BA
ENCODING 186
SWIDTH 238 0
DWIDTH 43 0
BBX 21 78 11 48
BITMAP
01FE00
0FFF80
1FFFC0
3FFFE0
3FFFF0
7E03F0
7C01F0
F800F8
F800F8
F800F8
F800F8
F800F8
F800F8
F800F8
F800F8
F800F8
F800F8
F800F8
F800F8
F800F8
F800F8
F800F8
F800F8
F800F8
F800F8
F800F8
F800F8
F800F8
F800F8
F800F8
F800F8
F800F8
F800F8
F800F8
F800F8
F800F8
F800F8
F800F8
F800F8
F800F8
F800F8
F800F8
F800F8
F800F8
F800F8
F800F8
F800F8
F800F8
F800F8
F800F8
F800F8
F800F8
F800F8
F800F8
F800F8
F800F8
F800F8
F800F8
F800F8
F800F8
F800F8
F800F8
F800F8
F800F8
F800F8
F800F8
F800F8
F800F8
F800F8
F800F8
FC01F8
FC01F8
7E03F0
7F8FF0
3FFFE0
3FFFE0
0FFFC0
07FF00
ENDCHAR
STARTCHAR 00BB
ENCODING 187
SWIDTH 233 0
DWIDTH 42 0
BBX 29 64 8 6
BITMAP
7C0FC000
FC0FC000
FE0FE000
FE0FE000
FF0FF000
FF0FF000
7F07F000
7F87F800
7F87F800
3FC3F800
3FC3FC00
1FC3FC00
1FE1FE00
1FE1FE00
0FE0FE00
0FF0FF00
0FF0FF00
07F07F00
07F87F80
03F87F80
03FC3F80
03FC3FC0
01FC1FC0
01FE1FE0
01FE1FE0
00FE0FE0
00FF0FF0
007F0FF0
007F87F0
007F87F8
003F83F8
003F83F8
003F83F8
007F87F8
007F87F0
007F0FF0
00FF0FF0
00FE0FE0
01FE1FE0
01FE1FE0
01FC1FC0
03FC3FC0
03FC3FC0
03F87F80
07F87F80
07F87F00
0FF0FF00
0FF0FF00
0FE0FE00
1FE1FE00
1FE1FE00
1FC3FC00
3FC3FC00
3FC3FC00
7F87F800
7F87F800
7F87F000
FF0FF000
FF0FF000
FF0FE000
FE0FE000
FE0FC000
FC0FC000
78078000
ENDCHAR
STARTCHAR 00BC
ENCODING 188
SWIDTH 505 0
DWIDTH 91 0
BBX 58 129 20 -2
BITMAP
000000003C000000
780000007E000000
780000007E000000
FC000000FE000000
FC000000FE000000
FC000000FE000000
FC000000FE000000
FC000000FC000000
FC000001FC000000
FC000001FC000000
FC000001FC000000
FC000001FC000000
FC000001F8000000
FC000003F8000000
FC000003F8000000
FC000003F8000000
FC000003F8000000
FC000003F0000000
FC000007F0000000
FC000007F0000000
FC000007F0000000
FC000007F0000000
FC000007E0000000
FC00000FE0000000
FC00000FE0000000
FC00000FE0000000
FC00000FC0000000
FC00000FC0000000
FC00001FC0000000
FC00001FC0000000
FC00001FC0000000
FC00001F80000000
FC00001F80000000
FC00003F80000000
FC00003F80000000
FC00003F80000000
FC00003F00000000
FC00007F00000000
FC00007F00000000
FC00007F00000000
FC00007F00000000
FC00007E00000000
FC0000FE00000000
FC0000FE00000000
FC0000FE00000000
FC0000FE00000000
FC0000FC00000000
FC0001FC00000000
FC0001FC00000000
FC0001FC00000000
FC0001FC00000000
FC0001F80001E000
FC0003F800F3F000
FC0003F801FBF800
FC0003F801FBF800
FC0003F001FBF800
FC0003F001FBF800
FC0007F001FBF800
FC0007F003F3F800
FC0007F003F3F800
FC0007E003F3F800
FC0007E003F3F800
FC000FE003F3F800
FC000FE003F3F800
FC000FE007F3F800
FC000FC007E3F800
FC000FC007E3F800
FC001FC007E3F800
FC001FC007E3F800
FC001FC00FE3F800
FC001F800FE3F800
FC001F800FE3F800
FC003F800FC3F800
FC003F800FC3F800
FC003F800FC3F800
78003F001FC3F800
78003F001FC3F800
00007F001FC3F800
00007F001F83F800
00007F001F83F800
00007E003F83F800
00007E003F83F800
0000FE003F83F800
0000FE003F83F800
0000FE003F83F800
0000FC007F03F800
0000FC007F03F800
0001FC007F03F800
0001FC007F03F800
0001F8007F03F800
0001F8007F03F800
0001F800FE03F800
0003F800FE03F800
0003F800FE03F800
0003F000FE03F800
0003F000FE03F800
0003F001FE03F800
0007F001FE03F800
0007F001FFFFFF00
0007E001FFFFFF80
0007E001FFFFFFC0
000FE001FFFFFFC0
000FE000FFFFFF80
000FE0007FFFFE00
000FC0000003F800
000FC0000003F800
001FC0000003F800
001FC0000003F800
001FC0000003F800
001F80000003F800
001F80000003F800
003F80000003F800
003F80000003F800
003F80000003F800
003F00000003F800
003F00000003F800
007F00000003F800
007F00000003F800
007E00000003F800
007E00000003F800
007E00000003F800
00FE00000003F800
00FE00000003F800
00FC00000003F800
00FC00000003F800
00FC00000001F800
00FC00000001F000
00F800000000E000
0070000000000000
ENDCHAR
STARTCHAR 00BD
ENCODING 189
SWIDTH 505 0
DWIDTH 91 0
BBX 61 128 18 -2
BITMAP
000000000F000000
780000001F000000
780000001F800000
FC0000003F800000
FC0000003F800000
FC0000003F000000
FC0000003F000000
FC0000003F000000
FC0000007F000000
FC0000007F000000
FC0000007F000000
FC0000007E000000
FC0000007E000000
FC000000FE000000
FC000000FE000000
FC000000FE000000
FC000000FC000000
FC000000FC000000
FC000001FC000000
FC000001FC000000
FC000001FC000000
FC000001F8000000
FC000001F8000000
FC000003F8000000
FC000003F8000000
FC000003F8000000
FC000003F0000000
FC000003F0000000
FC000007F0000000
FC000007F0000000
FC000007F0000000
FC000007E0000000
FC000007E0000000
FC00000FE0000000
FC00000FE0000000
FC00000FE0000000
FC00000FC0000000
FC00000FC0000000
FC00001FC0000000
FC00001FC0000000
FC00001FC0000000
FC00001F80000000
FC00001F80000000
FC00003F80000000
FC00003F80000000
FC00003F00000000
FC00003F00000000
FC00003F00000000
FC00007F00000000
FC00007F00000000
FC00007E00000000
FC00007E0007FE00
FC00007E001FFF00
FC0000FE003FFF80
FC0000FE003FFFC0
FC0000FC007FFFE0
FC0000FC00FF9FE0
FC0000FC00FE07E0
FC0001FC00FC03F0
FC0001FC01FC03F0
FC0001F801FC03F0
FC0001F801FC03F0
FC0001F801FC03F0
FC0003F801FC03F0
FC0003F801FC03F0
FC0003F001FC03F0
FC0003F001FC03F0
FC0003F001FC03F0
FC0007F001FC03F0
FC0007F000F803F0
FC0007E000F003F0
FC0007E0000003F0
FC0007E0000003F0
FC000FE0000003F0
FC000FE0000003F0
78000FC0000003F0
78000FC0000003F0
00001FC0000003F0
00001FC0000003F0
00001FC0000003F0
00001F80000003F0
00001F80000003F0
00003F80000003F0
00003F80000003F0
00003F80000003F0
00003F00000003F0
00003F00000003F0
00007F00000003F0
00007F00000003F0
00007F00000003F0
00007E00000003F0
00007E00000003F0
0000FE00000007F0
0000FE0000000FF0
0000FC0000003FE0
0000FC000000FFE0
0000FC000007FFC0
0001FC00001FFF80
0001FC00003FFF00
0001F800007FF800
0001F800007FC000
0001F80000FF8000
0003F80000FF0000
0003F80000FE0000
0003F00000FE0000
0003F00000FC0000
0003F00000FC0000
0007F00000FC0000
0007F00000FC0000
0007E00000FC0000
0007E00000FC0000
0007E00000FC0000
000FE00000FC0000
000FE00000FC0000
000FC00000FC0000
000FC00000FC0000
000FC00000FC0000
001FC00000FC0000
001FC00000FC0000
001F800000FC0000
001F800000FC0000
001F800000FFFFE0
003F800000FFFFF0
003F800000FFFFF0
003F000000FFFFF8
003F0000007FFFF0
003F0000003FFFE0
003E000000000000
ENDCHAR
STARTCHAR 00BE
ENCODING 190
SWIDTH 505 0
DWIDTH 91 0
BBX 69 129 12 -2
BITMAP
03FC0000000F000000
0FFF0000001F000000
1FFFC000001F800000
3FFFE000003F800000
7FFFE000003F800000
7FFFF000003F800000
7F07F000003F000000
FE03F800003F000000
FE01F800007F000000
FC01F800007F000000
FC01F800007F000000
FC01F800007F000000
FC01F800007E000000
FC01F80000FE000000
FC01F80000FE000000
FC01F80000FE000000
FC01F80000FE000000
FC01F80000FC000000
FC01F80001FC000000
F801F80001FC000000
1001F80001FC000000
0001F80001FC000000
0001F80001F8000000
0001F80001F8000000
0001F80003F8000000
0001F80003F8000000
0001F80003F8000000
0001F80003F0000000
0001F80003F0000000
0001F80007F0000000
0001F80007F0000000
0001F80007F0000000
0001F80007E0000000
0003F80007E0000000
0007F0000FE0000000
3FFFF0000FE0000000
7FFFF0000FE0000000
FFFFF0000FC0000000
FFFFF0000FC0000000
7FFFF0001FC0000000
3FFFF0001FC0000000
0007F0001FC0000000
0003F0001F80000000
0001F0001F80000000
0001F8003F80000000
0001F8003F80000000
0001F8003F80000000
0001F8003F00000000
0001F8003F00000000
0001F8007F00000000
0001F8007F00000000
0001F8007F00003C00
0001F8007E001E7E00
0001F8007E001F7F00
0001F800FE003F7F00
0001F800FE003F7F00
0001F800FE003F7F00
0001F800FC003F7F00
7801F800FC003E7F00
FC01F801FC007E7F00
FC01F801FC007E7F00
FC01F801FC007E7F00
FC01F801F8007E7F00
FC01F801F8007E7F00
FC01F803F8007E7F00
FC01F803F800FC7F00
FC01F803F800FC7F00
FC01F803F000FC7F00
FC01F803F000FC7F00
FE01F807F000FC7F00
FE03F807F001FC7F00
FE03F007F001F87F00
7F8FF007E001F87F00
7FFFF007E001F87F00
3FFFE00FE001F87F00
1FFFE00FE001F87F00
0FFF800FE003F87F00
07FF000FC003F87F00
00F0000FC003F07F00
0000001FC003F07F00
0000001FC003F07F00
0000001FC007F07F00
0000001F8007F07F00
0000001F8007F07F00
0000003F8007F07F00
0000003F8007E07F00
0000003F8007E07F00
0000003F000FE07F00
0000003F000FE07F00
0000007F000FE07F00
0000007F000FE07F00
0000007F000FC07F00
0000007E001FC07F00
0000007E001FC07F00
0000007E001FC07F00
000000FE001FC07F00
000000FE001FC07F00
000000FC001FC07F00
000000FC003FFFFFE0
000000FC003FFFFFF0
000001FC003FFFFFF8
000001FC003FFFFFF8
000001F8001FFFFFF0
000001F8000FFFFFC0
000001F80000007F00
000003F80000007F00
000003F80000007F00
000003F00000007F00
000003F00000007F00
000003F00000007F00
000007F00000007F00
000007F00000007F00
000007E00000007F00
000007E00000007F00
000007E00000007F00
00000FE00000007F00
00000FE00000007F00
00000FC00000007F00
00000FC00000007F00
00000FC00000007F00
00001FC00000007F00
00001FC00000007F00
00001F800000007F00
00001F800000007F00
00001F800000007F00
00001F800000003F00
00001F000000003E00
00001F000000001C00
00001E000000000000
ENDCHAR
STARTCHAR 00BF
ENCODING 191
SWIDTH 227 0
DWIDTH 41 0
BBX 33 128 4 -2
BITMAP
0003E00000
0007F00000
000FF80000
001FFC0000
001FFC0000
001FFC0000
001FFC0000
001FFC0000
000FF80000
000FF80000
0007F00000
0000800000
0000000000
0001C00000
0003E00000
0007F00000
0007F00000
0007F00000
0007F00000
0007F00000
0007F00000
0007F00000
0007F00000
0007F00000
0007F00000
0007F00000
0007F00000
0007F00000
0007F00000
0007F00000
0007F00000
0007F00000
0007F00000
003FF00000
01FFF00000
07FFF00000
0FFFF00000
1FFFF00000
3FFFF00000
3FFC000000
7FE0000000
7F80000000
7F00000000
7F00000000
7F00000000
FF00000000
FE00000000
FE00000000
FE00000000
FE00000000
FE00000000
FE00000000
FE00000000
FE00000000
FE00000000
FE00000000
FE00000000
FE00000000
FE00000000
FE00000000
FE00000000
FE00000000
FE00000000
FE00000000
FE00000000
FE00000000
FE00000000
FE00000000
FE00000000
FE00000000
FE00000000
FE00000000
FE00000000
FE00000000
FE00000000
FE00000000
FE00000000
FE00000000
FE00000000
FE00000000
FE00000000
FE00000000
FE00000000
FE00000000
FE00000000
FE00000000
FE00000000
FE00000000
FE00000000
FE00000000
FE00000000
FE00000000
FE00000000
FE00000000
FE00000000
FE00000000
FE00001E00
FE00003F00
FE00003F80
FE00003F80
FE00003F80
FE00003F80
FE00003F80
FE00003F80
FE00003F80
FE00003F80
FE00003F80
FE00003F80
FE00003F80
FE00003F80
FE00003F80
FE00003F80
FE00003F80
FE00003F80
FE00003F80
7F00007F00
7F00007F00
7F00007F00
7F8000FF00
3FC001FE00
3FE003FE00
1FFF7FFC00
1FFFFFF800
0FFFFFF800
07FFFFF000
03FFFFC000
00FFFF0000
001FF80000
ENDCHAR
STARTCHAR 00C0
ENCODING 192
SWIDTH 255 0
DWIDTH 46 0
BBX 41 154 0 0
BITMAP
000F80000000
001FC0000000
001FE0000000
001FF8000000
000FFC000000
000FFE000000
0003FF800000
0001FFC00000
0000FFE00000
00007FF00000
00001FFC0000
00000FFE0000
000007FF0000
000001FFC000
000000FFC000
0000007FE000
0000003FE000
0000000FE000
00000007E000
00000001C000
000000000000
000000000000
000000000000
000000000000
000000000000
000000000000
00000FF80000
00007FFF8000
0001FFFFE000
0007FFFFF000
000FFFFFF800
000FFFFFFC00
001FFFFFFC00
003FC003FE00
003F8001FE00
007F0000FF00
007F00007F00
007F00007F00
007E00007F00
00FE00003F80
00FE00003F80
00FE00003F80
00FE00003F80
00FE00003F80
00FE00003F80
00FE00003F80
00FE00003F80
00FE00003F80
00FE00003F80
00FE00003F80
00FE00003F80
00FE00003F80
00FE00003F80
00FE00003F80
00FE00003F80
00FE00003F80
00FE00003F80
00FE00003F80
00FE00003F80
00FE00003F80
00FE00003F80
00FE00003F80
00FE00003F80
00FE00003F80
00FE00003F80
00FE00003F80
00FE00003F80
00FE00003F80
00FE00003F80
00FE00003F80
00FE00003F80
00FE00003F80
00FE00003F80
00FE00003F80
00FE00003F80
00FE00003F80
00FE00003F80
00FE00003F80
00FE00003F80
00FE00003F80
00FE00003F80
00FE00003F80
00FE00003F80
00FE00003F80
00FE00003F80
00FE00003F80
00FE00003F80
00FE00003F80
00FE00003F80
00FE00003F80
00FE00003F80
00FE00003F80
00FE00003F80
00FE00003F80
00FE00003F80
00FE00003F80
00FE00003F80
00FE00003F80
3FFFFFFFFF80
7FFFFFFFFF80
FFFFFFFFFF80
FFFFFFFFFF80
FFFFFFFFFF80
7FFFFFFFFF80
3FFFFFFFFF80
00FE00003F80
00FE00003F80
00FE00003F80
00FE00003F80
00FE00003F80
00FE00003F80
00FE00003F80
00FE00003F80
00FE00003F80
00FE00003F80
00FE00003F80
00FE00003F80
00FE00003F80
00FE00003F80
00FE00003F80
00FE00003F80
00FE00003F80
00FE00003F80
00FE00003F80
00FE00003F80
00FE00003F80
00FE00003F80
00FE00003F80
00FE00003F80
00FE00003F80
00FE00003F80
00FE00003F80
00FE00003F80
00FE00003F80
00FE00003F80
00FE00003F80
00FE00003F80
00FE00003F80
00FE00003F80
00FE00003F80
00FE00003F80
00FE00003F80
00FE00003F80
00FE00003F80
00FE00003F80
00FE00003F80
00FE00003F80
00FE00003F80
00FE00003F80
00FE00003F80
00FE00003F80
00FE00003F80
007C00001F00
003800000E00
ENDCHAR
STARTCHAR 00C1
ENCODING 193
SWIDTH 255 0
DWIDTH 46 0
BBX 41 156 0 0
BITMAP
000000007C00
00000001FC00
00000003FC00
00000007FC00
0000001FF800
0000003FF800
0000007FF000
000000FFC000
000003FF8000
000007FF0000
00000FFC0000
00001FF80000
00007FF00000
0000FFC00000
0001FF800000
0001FF000000
0003FC000000
0003F8000000
0001F0000000
0000E0000000
000000000000
000000000000
000000000000
000000000000
000000000000
000000000000
000000000000
000000000000
00000FF80000
00007FFF8000
0001FFFFE000
0007FFFFF000
000FFFFFF800
000FFFFFFC00
001FFFFFFC00
003FC003FE00
003F8001FE00
007F0000FF00
007F00007F00
007F00007F00
007E00007F00
00FE00003F80
00FE00003F80
00FE00003F80
00FE00003F80
00FE00003F80
00FE00003F80
00FE00003F80
00FE00003F80
00FE00003F80
00FE00003F80
00FE00003F80
00FE00003F80
00FE00003F80
00FE00003F80
00FE00003F80
00FE00003F80
00FE00003F80
00FE00003F80
00FE00003F80
00FE00003F80
00FE00003F80
00FE00003F80
00FE00003F80
00FE00003F80
00FE00003F80
00FE00003F80
00FE00003F80
00FE00003F80
00FE00003F80
00FE00003F80
00FE00003F80
00FE00003F80
00FE00003F80
00FE00003F80
00FE00003F80
00FE00003F80
00FE00003F80
00FE00003F80
00FE00003F80
00FE00003F80
00FE00003F80
00FE00003F80
00FE00003F80
00FE00003F80
00FE00003F80
00FE00003F80
00FE00003F80
00FE00003F80
00FE00003F80
00FE00003F80
00FE00003F80
00FE00003F80
00FE00003F80
00FE00003F80
00FE00003F80
00FE00003F80
00FE00003F80
00FE00003F80
00FE00003F80
3FFFFFFFFF80
7FFFFFFFFF80
FFFFFFFFFF80
FFFFFFFFFF80
FFFFFFFFFF80
7FFFFFFFFF80
3FFFFFFFFF80
00FE00003F80
00FE00003F80
00FE00003F80
00FE00003F80
00FE00003F80
00FE00003F80
00FE00003F80
00FE00003F80
00FE00003F80
00FE00003F80
00FE00003F80
00FE00003F80
00FE00003F80
00FE00003F80
00FE00003F80
00FE00003F80
00FE00003F80
00FE00003F80
00FE00003F80
00FE00003F80
00FE00003F80
00FE00003F80
00FE00003F80
00FE00003F80
00FE00003F80
00FE00003F80
00FE00003F80
00FE00003F80
00FE00003F80
00FE00003F80
00FE00003F80
00FE00003F80
00FE00003F80
00FE00003F80
00FE00003F80
00FE00003F80
00FE00003F80
00FE00003F80
00FE00003F80
00FE00003F80
00FE00003F80
00FE00003F80
00FE00003F80
00FE00003F80
00FE00003F80
00FE00003F80
00FE00003F80
007C00001F00
003800000E00
ENDCHAR
STARTCHAR 00C2
ENCODING 194
SWIDTH 255 0
DWIDTH 46 0
BBX 41 150 0 0
BITMAP
000007E00000
00001FF80000
00007FFE0000
0000FFFF8000
0003FFFFC000
000FFFFFF000
001FFFFFFC00
003FFC3FFE00
007FF00FFE00
007FC003FE00
007F0000FE00
003C00001C00
000000000000
000000000000
000000000000
000000000000
000000000000
000000000000
000000000000
000000000000
000000000000
000000000000
00000FF80000
00007FFF8000
0001FFFFE000
0007FFFFF000
000FFFFFF800
000FFFFFFC00
001FFFFFFC00
003FC003FE00
003F8001FE00
007F0000FF00
007F00007F00
007F00007F00
007E00007F00
00FE00003F80
00FE00003F80
00FE00003F80
00FE00003F80
00FE00003F80
00FE00003F80
00FE00003F80
00FE00003F80
00FE00003F80
00FE00003F80
00FE00003F80
00FE00003F80
00FE00003F80
00FE00003F80
00FE00003F80
00FE00003F80
00FE00003F80
00FE00003F80
00FE00003F80
00FE00003F80
00FE00003F80
00FE00003F80
00FE00003F80
00FE00003F80
00FE00003F80
00FE00003F80
00FE00003F80
00FE00003F80
00FE00003F80
00FE00003F80
00FE00003F80
00FE00003F80
00FE00003F80
00FE00003F80
00FE00003F80
00FE00003F80
00FE00003F80
00FE00003F80
00FE00003F80
00FE00003F80
00FE00003F80
00FE00003F80
00FE00003F80
00FE00003F80
00FE00003F80
00FE00003F80
00FE00003F80
00FE00003F80
00FE00003F80
00FE00003F80
00FE00003F80
00FE00003F80
00FE00003F80
00FE00003F80
00FE00003F80
00FE00003F80
00FE00003F80
00FE00003F80
00FE00003F80
3FFFFFFFFF80
7FFFFFFFFF80
FFFFFFFFFF80
FFFFFFFFFF80
FFFFFFFFFF80
7FFFFFFFFF80
3FFFFFFFFF80
00FE00003F80
00FE00003F80
00FE00003F80
00FE00003F80
00FE00003F80
00FE00003F80
00FE00003F80
00FE00003F80
00FE00003F80
00FE00003F80
00FE00003F80
00FE00003F80
00FE00003F80
00FE00003F80
00FE00003F80
00FE00003F80
00FE00003F80
00FE00003F80
00FE00003F80
00FE00003F80
00FE00003F80
00FE00003F80
00FE00003F80
00FE00003F80
00FE00003F80
00FE00003F80
00FE00003F80
00FE00003F80
00FE00003F80
00FE00003F80
00FE00003F80
00FE00003F80
00FE00003F80
00FE00003F80
00FE00003F80
00FE00003F80
00FE00003F80
00FE00003F80
00FE00003F80
00FE00003F80
00FE00003F80
00FE00003F80
00FE00003F80
00FE00003F80
00FE00003F80
00FE00003F80
00FE00003F80
007C00001F00
003800000E00
ENDCHAR
STARTCHAR 00C3
ENCODING 195
SWIDTH 255 0
DWIDTH 46 0
BBX 41 151 0 0
BITMAP
0001FE000000
0007FF807C00
0007FFC07E00
000FFFF0FE00
001FFFF9FE00
001FFFFFFE00
001FFFFFFC00
001FE3FFFC00
001FC1FFF800
001F80FFF800
001F003FF000
000E000FC000
000000000000
000000000000
000000000000
000000000000
000000000000
000000000000
000000000000
000000000000
000000000000
000000000000
000000000000
00000FF80000
00007FFF8000
0001FFFFE000
0007FFFFF000
000FFFFFF800
000FFFFFFC00
001FFFFFFC00
003FC003FE00
003F8001FE00
007F0000FF00
007F00007F00
007F00007F00
007E00007F00
00FE00003F80
00FE00003F80
00FE00003F80
00FE00003F80
00FE00003F80
00FE00003F80
00FE00003F80
00FE00003F80
00FE00003F80
00FE00003F80
00FE00003F80
00FE00003F80
00FE00003F80
00FE00003F80
00FE00003F80
00FE00003F80
00FE00003F80
00FE00003F80
00FE00003F80
00FE00003F80
00FE00003F80
00FE00003F80
00FE00003F80
00FE00003F80
00FE00003F80
00FE00003F80
00FE00003F80
00FE00003F80
00FE00003F80
00FE00003F80
00FE00003F80
00FE00003F80
00FE00003F80
00FE00003F80
00FE00003F80
00FE00003F80
00FE00003F80
00FE00003F80
00FE00003F80
00FE00003F80
00FE00003F80
00FE00003F80
00FE00003F80
00FE00003F80
00FE00003F80
00FE00003F80
00FE00003F80
00FE00003F80
00FE00003F80
00FE00003F80
00FE00003F80
00FE00003F80
00FE00003F80
00FE00003F80
00FE00003F80
00FE00003F80
00FE00003F80
00FE00003F80
00FE00003F80
3FFFFFFFFF80
7FFFFFFFFF80
FFFFFFFFFF80
FFFFFFFFFF80
FFFFFFFFFF80
7FFFFFFFFF80
3FFFFFFFFF80
00FE00003F80
00FE00003F80
00FE00003F80
00FE00003F80
00FE00003F80
00FE00003F80
00FE00003F80
00FE00003F80
00FE00003F80
00FE00003F80
00FE00003F80
00FE00003F80
00FE00003F80
00FE00003F80
00FE00003F80
00FE00003F80
00FE00003F80
00FE00003F80
00FE00003F80
00FE00003F80
00FE00003F80
00FE00003F80
00FE00003F80
00FE00003F80
00FE00003F80
00FE00003F80
00FE00003F80
00FE00003F80
00FE00003F80
00FE00003F80
00FE00003F80
00FE00003F80
00FE00003F80
00FE00003F80
00FE00003F80
00FE00003F80
00FE00003F80
00FE00003F80
00FE00003F80
00FE00003F80
00FE00003F80
00FE00003F80
00FE00003F80
00FE00003F80
00FE00003F80
00FE00003F80
00FE00003F80
007C00001F00
003800000E00
ENDCHAR
STARTCHAR 00C4
ENCODING 196
SWIDTH 255 0
DWIDTH 46 0
BBX 41 151 0 0
BITMAP
0003E001F000
0007F807FC00
000FF807FC00
001FFC0FFE00
001FFC0FFE00
001FFC0FFE00
001FFC0FFE00
001FFC0FFE00
001FFC0FFE00
000FF807FC00
000FF803FC00
0003E000F000
000000000000
000000000000
000000000000
000000000000
000000000000
000000000000
000000000000
000000000000
000000000000
000000000000
000000000000
00000FF80000
00007FFF8000
0001FFFFE000
0007FFFFF000
000FFFFFF800
000FFFFFFC00
001FFFFFFC00
003FC003FE00
003F8001FE00
007F0000FF00
007F00007F00
007F00007F00
007E00007F00
00FE00003F80
00FE00003F80
00FE00003F80
00FE00003F80
00FE00003F80
00FE00003F80
00FE00003F80
00FE00003F80
00FE00003F80
00FE00003F80
00FE00003F80
00FE00003F80
00FE00003F80
00FE00003F80
00FE00003F80
00FE00003F80
00FE00003F80
00FE00003F80
00FE00003F80
00FE00003F80
00FE00003F80
00FE00003F80
00FE00003F80
00FE00003F80
00FE00003F80
00FE00003F80
00FE00003F80
00FE00003F80
00FE00003F80
00FE00003F80
00FE00003F80
00FE00003F80
00FE00003F80
00FE00003F80
00FE00003F80
00FE00003F80
00FE00003F80
00FE00003F80
00FE00003F80
00FE00003F80
00FE00003F80
00FE00003F80
00FE00003F80
00FE00003F80
00FE00003F80
00FE00003F80
00FE00003F80
00FE00003F80
00FE00003F80
00FE00003F80
00FE00003F80
00FE00003F80
00FE00003F80
00FE00003F80
00FE00003F80
00FE00003F80
00FE00003F80
00FE00003F80
00FE00003F80
3FFFFFFFFF80
7FFFFFFFFF80
FFFFFFFFFF80
FFFFFFFFFF80
FFFFFFFFFF80
7FFFFFFFFF80
3FFFFFFFFF80
00FE00003F80
00FE00003F80
00FE00003F80
00FE00003F80
00FE00003F80
00FE00003F80
00FE00003F80
00FE00003F80
00FE00003F80
00FE00003F80
00FE00003F80
00FE00003F80
00FE00003F80
00FE00003F80
00FE00003F80
00FE00003F80
00FE00003F80
00FE00003F80
00FE00003F80
00FE00003F80
00FE00003F80
00FE00003F80
00FE00003F80
00FE00003F80
00FE00003F80
00FE00003F80
00FE00003F80
00FE00003F80
00FE00003F80
00FE00003F80
00FE00003F80
00FE00003F80
00FE00003F80
00FE00003F80
00FE00003F80
00FE00003F80
00FE00003F80
00FE00003F80
00FE00003F80
00FE00003F80
00FE00003F80
00FE00003F80
00FE00003F80
00FE00003F80
00FE00003F80
00FE00003F80
00FE00003F80
007C00001F00
003800000E00
ENDCHAR
STARTCHAR 00C5
ENCODING 197
SWIDTH 255 0
DWIDTH 46 0
BBX 41 159 0 0
BITMAP
000007FE0000
00001FFF0000
00003FFFC000
00007FFFE000
0000FFFFE000
0000FFFFF000
0001FE07F000
0001FC03F800
0001F801F800
0003F801F800
0003F001F800
0003F001F800
0003F801F800
0001F801F800
0001F801F800
0001FC03F800
0001FE0FF000
0000FFFFF000
0000FFFFE000
00007FFFC000
00003FFF8000
00000FFF0000
000003FC0000
000000000000
000000000000
000000000000
000000000000
000000000000
000000000000
000000000000
000000000000
00000FF80000
00007FFF8000
0001FFFFE000
0007FFFFF000
000FFFFFF800
000FFFFFFC00
001FFFFFFC00
003FC003FE00
003F8001FE00
007F0000FF00
007F00007F00
007F00007F00
007E00007F00
00FE00003F80
00FE00003F80
00FE00003F80
00FE00003F80
00FE00003F80
00FE00003F80
00FE00003F80
00FE00003F80
00FE00003F80
00FE00003F80
00FE00003F80
00FE00003F80
00FE00003F80
00FE00003F80
00FE00003F80
00FE00003F80
00FE00003F80
00FE00003F80
00FE00003F80
00FE00003F80
00FE00003F80
00FE00003F80
00FE00003F80
00FE00003F80
00FE00003F80
00FE00003F80
00FE00003F80
00FE00003F80
00FE00003F80
00FE00003F80
00FE00003F80
00FE00003F80
00FE00003F80
00FE00003F80
00FE00003F80
00FE00003F80
00FE00003F80
00FE00003F80
00FE00003F80
00FE00003F80
00FE00003F80
00FE00003F80
00FE00003F80
00FE00003F80
00FE00003F80
00FE00003F80
00FE00003F80
00FE00003F80
00FE00003F80
00FE00003F80
00FE00003F80
00FE00003F80
00FE00003F80
00FE00003F80
00FE00003F80
00FE00003F80
00FE00003F80
00FE00003F80
00FE00003F80
3FFFFFFFFF80
7FFFFFFFFF80
FFFFFFFFFF80
FFFFFFFFFF80
FFFFFFFFFF80
7FFFFFFFFF80
3FFFFFFFFF80
00FE00003F80
00FE00003F80
00FE00003F80
00FE00003F80
00FE00003F80
00FE00003F80
00FE00003F80
00FE00003F80
00FE00003F80
00FE00003F80
00FE00003F80
00FE00003F80
00FE00003F80
00FE00003F80
00FE00003F80
00FE00003F80
00FE00003F80
00FE00003F80
00FE00003F80
00FE00003F80
00FE00003F80
00FE00003F80
00FE00003F80
00FE00003F80
00FE00003F80
00FE00003F80
00FE00003F80
00FE00003F80
00FE00003F80
00FE00003F80
00FE00003F80
00FE00003F80
00FE00003F80
00FE00003F80
00FE00003F80
00FE00003F80
00FE00003F80
00FE00003F80
00FE00003F80
00FE00003F80
00FE00003F80
00FE00003F80
00FE00003F80
00FE00003F80
00FE00003F80
00FE00003F80
00FE00003F80
007C00001F00
003800000E00
ENDCHAR
STARTCHAR 00C6
ENCODING 198
SWIDTH 383 0
DWIDTH 69 0
BBX 67 128 1 0
BITMAP
00001FFFC000000000
0000FFFFFFFFFFFF80
0001FFFFFFFFFFFFC0
0007FFFFFFFFFFFFE0
000FFFFFFFFFFFFFE0
001FFFFFFFFFFFFFE0
001FFFFFFFFFFFFFC0
003FE001FFFFFFFF80
003FC000FFC0000000
007F80007FC0000000
007F00003FC0000000
007F00003FC0000000
007F00003FC0000000
00FE00001FC0000000
00FE00001FC0000000
00FE00001FC0000000
00FE00001FC0000000
00FE00001FC0000000
00FE00001FC0000000
00FE00001FC0000000
00FE00001FC0000000
00FE00001FC0000000
00FE00001FC0000000
00FE00001FC0000000
00FE00001FC0000000
00FE00001FC0000000
00FE00001FC0000000
00FE00001FC0000000
00FE00001FC0000000
00FE00001FC0000000
00FE00001FC0000000
00FE00001FC0000000
00FE00001FC0000000
00FE00001FC0000000
00FE00001FC0000000
00FE00001FC0000000
00FE00001FC0000000
00FE00001FC0000000
00FE00001FC0000000
00FE00001FC0000000
00FE00001FC0000000
00FE00001FC0000000
00FE00001FC0000000
00FE00001FC0000000
00FE00001FC0000000
00FE00001FC0000000
00FE00001FC0000000
00FE00001FC0000000
00FE00001FC0000000
00FE00001FC0000000
00FE00001FC0000000
00FE00001FC0000000
00FE00001FC0000000
00FE00001FC0000000
00FE00001FC0000000
00FE00001FC0000000
00FE00001FC0000000
00FE00001FC0000000
00FE00001FC0000000
00FE00001FC0000000
00FE00001FC0000000
00FE00001FC0000000
00FE00001FC0000000
00FE00001FC0000000
00FE00001FC0000000
00FE00001FC0000000
00FE00001FC0000000
00FE00001FC0000000
00FE00001FC0000000
00FE00001FC0000000
00FE00001FC0000000
00FE00001FC0000000
3FFFFFFFFFFFFFFF80
7FFFFFFFFFFFFFFFC0
FFFFFFFFFFFFFFFFE0
FFFFFFFFFFFFFFFFE0
FFFFFFFFFFFFFFFFE0
7FFFFFFFFFFFFFFFC0
3FFFFFFFFFFFFFFF80
00FE00001FC0000000
00FE00001FC0000000
00FE00001FC0000000
00FE00001FC0000000
00FE00001FC0000000
00FE00001FC0000000
00FE00001FC0000000
00FE00001FC0000000
00FE00001FC0000000
00FE00001FC0000000
00FE00001FC0000000
00FE00001FC0000000
00FE00001FC0000000
00FE00001FC0000000
00FE00001FC0000000
00FE00001FC0000000
00FE00001FC0000000
00FE00001FC0000000
00FE00001FC0000000
00FE00001FC0000000
00FE00001FC0000000
00FE00001FC0000000
00FE00001FC0000000
00FE00001FC0000000
00FE00001FC0000000
00FE00001FC0000000
00FE00001FC0000000
00FE00001FC0000000
00FE00001FC0000000
00FE00001FC0000000
00FE00001FC0000000
00FE00001FC0000000
00FE00001FC0000000
00FE00001FC0000000
00FE00001FC0000000
00FE00001FC0000000
00FE00001FC0000000
00FE00001FC0000000
00FE00001FC0000000
00FE00001FC0000000
00FE00001FC0000000
00FE00001FC0000000
00FE00001FFFFFFF80
00FE00001FFFFFFFC0
00FE00001FFFFFFFE0
00FE00001FFFFFFFE0
00FE00001FFFFFFFE0
007C00000FFFFFFFC0
0038000007FFFFFF80
ENDCHAR
STARTCHAR 00C7
ENCODING 199
SWIDTH 227 0
DWIDTH 41 0
BBX 34 150 4 -24
BITMAP
000FFC0000
007FFF8000
01FFFFE000
07FFFFF800
0FFFFFFC00
1FFFFFFC00
1FFFFFFE00
3FF807FF00
3FC000FF00
7F80007F80
7F00003F80
7F00003F80
7F00003F80
FE00001FC0
FE00001FC0
FE00001FC0
FE00001FC0
FE00001FC0
FE00001FC0
FE00001FC0
FE00001FC0
FE00001FC0
FE00001FC0
FE00001FC0
FE00001FC0
FE00001FC0
FE00001FC0
FE00001FC0
FE00001FC0
FE00001FC0
FE00001FC0
FE00000F80
FE00000700
FE00000000
FE00000000
FE00000000
FE00000000
FE00000000
FE00000000
FE00000000
FE00000000
FE00000000
FE00000000
FE00000000
FE00000000
FE00000000
FE00000000
FE00000000
FE00000000
FE00000000
FE00000000
FE00000000
FE00000000
FE00000000
FE00000000
FE00000000
FE00000000
FE00000000
FE00000000
FE00000000
FE00000000
FE00000000
FE00000000
FE00000000
FE00000000
FE00000000
FE00000000
FE00000000
FE00000000
FE00000000
FE00000000
FE00000000
FE00000000
FE00000000
FE00000000
FE00000000
FE00000000
FE00000000
FE00000000
FE00000000
FE00000000
FE00000000
FE00000000
FE00000000
FE00000000
FE00000000
FE00000000
FE00000000
FE00000000
FE00000000
FE00000000
FE00000000
FE00000000
FE00000000
FE00000000
FE00000000
FE00000000
FE00000700
FE00000F80
FE00001FC0
FE00001FC0
FE00001FC0
FE00001FC0
FE00001FC0
FE00001FC0
FE00001FC0
FE00001FC0
FE00001FC0
FE00001FC0
FE00001FC0
FE00001FC0
FE00001FC0
FE00001FC0
FE00001FC0
FE00001FC0
FE00001FC0
FE00003FC0
7F00003F80
7F00003F80
7F00007F80
3F80007F80
3FC001FF00
3FF807FF00
1FFFFFFE00
0FFFFFFC00
07FFFFFC00
03FFFFF000
00FFFFE000
003FFF0000
0007E00000
000FE00000
000FF00000
000FF80000
001FFC0000
001FFE0000
0007FE0000
00007F0000
00003F0000
00003F0000
00003F0000
00003F0000
00003F0000
00003F0000
00003F0000
00607F0000
00FFFE0000
00FFFE0000
00FFFC0000
007FF00000
003FC00000
ENDCHAR
STARTCHAR 00C8
ENCODING 200
SWIDTH 227 0
DWIDTH 41 0
BBX 39 155 0 0
BITMAP
000F800000
000FC00000
001FE00000
001FF80000
000FFC0000
0007FE0000
0003FF8000
0001FFC000
0000FFE000
00003FF000
00001FFC00
00000FFE00
000007FF00
000001FFC0
000000FFE0
0000007FE0
0000001FE0
0000000FE0
00000007E0
00000003E0
0000000000
0000000000
0000000000
0000000000
0000000000
0000000000
0000000000
0000000000
003FFFFFFC
007FFFFFFE
00FFFFFFFE
00FFFFFFFE
00FFFFFFFE
00FFFFFFFE
00FFFFFFFC
00FE000000
00FE000000
00FE000000
00FE000000
00FE000000
00FE000000
00FE000000
00FE000000
00FE000000
00FE000000
00FE000000
00FE000000
00FE000000
00FE000000
00FE000000
00FE000000
00FE000000
00FE000000
00FE000000
00FE000000
00FE000000
00FE000000
00FE000000
00FE000000
00FE000000
00FE000000
00FE000000
00FE000000
00FE000000
00FE000000
00FE000000
00FE000000
00FE000000
00FE000000
00FE000000
00FE000000
00FE000000
00FE000000
00FE000000
00FE000000
00FE000000
00FE000000
00FE000000
00FE000000
00FE000000
00FE000000
00FE000000
00FE000000
00FE000000
00FE000000
00FE000000
00FE000000
00FE000000
00FE000000
00FE000000
00FE000000
00FE000000
00FE000000
00FE000000
00FE000000
00FE000000
00FE000000
00FE000000
00FE000000
3FFFFFFFF8
7FFFFFFFFE
FFFFFFFFFE
FFFFFFFFFE
FFFFFFFFFE
7FFFFFFFFE
3FFFFFFFFC
00FE000000
00FE000000
00FE000000
00FE000000
00FE000000
00FE000000
00FE000000
00FE000000
00FE000000
00FE000000
00FE000000
00FE000000
00FE000000
00FE000000
00FE000000
00FE000000
00FE000000
00FE000000
00FE000000
00FE000000
00FE000000
00FE000000
00FE000000
00FE000000
00FE000000
00FE000000
00FE000000
00FE000000
00FE000000
00FE000000
00FE000000
00FE000000
00FE000000
00FE000000
00FE000000
00FE000000
00FE000000
00FE000000
00FE000000
00FE000000
00FE000000
00FE000000
00FFFFFFFC
00FFFFFFFE
00FFFFFFFE
00FFFFFFFE
00FFFFFFFE
007FFFFFFE
003FFFFFFC
ENDCHAR
STARTCHAR 00C9
ENCODING 201
SWIDTH 227 0
DWIDTH 41 0
BBX 39 156 0 0
BITMAP
00000000F0
00000003F8
00000007F8
0000000FF8
0000001FF0
0000007FF0
000000FFE0
000001FF80
000007FF00
00000FFE00
00001FFC00
00003FF000
0000FFE000
0001FFC000
0003FF0000
0007FE0000
0007FC0000
0007F00000
0003E00000
0001C00000
0000000000
0000000000
0000000000
0000000000
0000000000
0000000000
0000000000
0000000000
0000000000
003FFFFFFC
007FFFFFFE
00FFFFFFFE
00FFFFFFFE
00FFFFFFFE
00FFFFFFFE
00FFFFFFFC
00FE000000
00FE000000
00FE000000
00FE000000
00FE000000
00FE000000
00FE000000
00FE000000
00FE000000
00FE000000
00FE000000
00FE000000
00FE000000
00FE000000
00FE000000
00FE000000
00FE000000
00FE000000
00FE000000
00FE000000
00FE000000
00FE000000
00FE000000
00FE000000
00FE000000
00FE000000
00FE000000
00FE000000
00FE000000
00FE000000
00FE000000
00FE000000
00FE000000
00FE000000
00FE000000
00FE000000
00FE000000
00FE000000
00FE000000
00FE000000
00FE000000
00FE000000
00FE000000
00FE000000
00FE000000
00FE000000
00FE000000
00FE000000
00FE000000
00FE000000
00FE000000
00FE000000
00FE000000
00FE000000
00FE000000
00FE000000
00FE000000
00FE000000
00FE000000
00FE000000
00FE000000
00FE000000
00FE000000
00FE000000
3FFFFFFFF8
7FFFFFFFFE
FFFFFFFFFE
FFFFFFFFFE
FFFFFFFFFE
7FFFFFFFFE
3FFFFFFFFC
00FE000000
00FE000000
00FE000000
00FE000000
00FE000000
00FE000000
00FE000000
00FE000000
00FE000000
00FE000000
00FE000000
00FE000000
00FE000000
00FE000000
00FE000000
00FE000000
00FE000000
00FE000000
00FE000000
00FE000000
00FE000000
00FE000000
00FE000000
00FE000000
00FE000000
00FE000000
00FE000000
00FE000000
00FE000000
00FE000000
00FE000000
00FE000000
00FE000000
00FE000000
00FE000000
00FE000000
00FE000000
00FE000000
00FE000000
00FE000000
00FE000000
00FE000000
00FFFFFFFC
00FFFFFFFE
00FFFFFFFE
00FFFFFFFE
00FFFFFFFE
007FFFFFFE
003FFFFFFC
ENDCHAR
STARTCHAR 00CA
ENCODING 202
SWIDTH 227 0
DWIDTH 41 0
BBX 39 149 0 0
BITMAP
00001FC000
00007FF000
0001FFFC00
0007FFFF00
000FFFFFC0
003FFFFFF0
007FFCFFF8
00FFF03FFC
00FFC00FFC
00FF0003FC
00FC0000F8
0020000000
0000000000
0000000000
0000000000
0000000000
0000000000
0000000000
0000000000
0000000000
0000000000
0000000000
003FFFFFFC
007FFFFFFE
00FFFFFFFE
00FFFFFFFE
00FFFFFFFE
00FFFFFFFE
00FFFFFFFC
00FE000000
00FE000000
00FE000000
00FE000000
00FE000000
00FE000000
00FE000000
00FE000000
00FE000000
00FE000000
00FE000000
00FE000000
00FE000000
00FE000000
00FE000000
00FE000000
00FE000000
00FE000000
00FE000000
00FE000000
00FE000000
00FE000000
00FE000000
00FE000000
00FE000000
00FE000000
00FE000000
00FE000000
00FE000000
00FE000000
00FE000000
00FE000000
00FE000000
00FE000000
00FE000000
00FE000000
00FE000000
00FE000000
00FE000000
00FE000000
00FE000000
00FE000000
00FE000000
00FE000000
00FE000000
00FE000000
00FE000000
00FE000000
00FE000000
00FE000000
00FE000000
00FE000000
00FE000000
00FE000000
00FE000000
00FE000000
00FE000000
00FE000000
00FE000000
00FE000000
00FE000000
00FE000000
00FE000000
00FE000000
3FFFFFFFF8
7FFFFFFFFE
FFFFFFFFFE
FFFFFFFFFE
FFFFFFFFFE
7FFFFFFFFE
3FFFFFFFFC
00FE000000
00FE000000
00FE000000
00FE000000
00FE000000
00FE000000
00FE000000
00FE000000
00FE000000
00FE000000
00FE000000
00FE000000
00FE000000
00FE000000
00FE000000
00FE000000
00FE000000
00FE000000
00FE000000
00FE000000
00FE000000
00FE000000
00FE000000
00FE000000
00FE000000
00FE000000
00FE000000
00FE000000
00FE000000
00FE000000
00FE000000
00FE000000
00FE000000
00FE000000
00FE000000
00FE000000
00FE000000
00FE000000
00FE000000
00FE000000
00FE000000
00FE000000
00FFFFFFFC
00FFFFFFFE
00FFFFFFFE
00FFFFFFFE
00FFFFFFFE
007FFFFFFE
003FFFFFFC
ENDCHAR
STARTCHAR 00CB
ENCODING 203
SWIDTH 227 0
DWIDTH 41 0
BBX 39 152 0 0
BITMAP
000F8007E0
001FE01FF0
003FE01FF8
007FF03FF8
007FF03FF8
007FF03FF8
007FF03FF8
007FF03FF8
007FF01FF8
003FE01FF0
001FE00FF0
000F800380
0000000000
0000000000
0000000000
0000000000
0000000000
0000000000
0000000000
0000000000
0000000000
0000000000
0000000000
0000000000
0000000000
003FFFFFFC
007FFFFFFE
00FFFFFFFE
00FFFFFFFE
00FFFFFFFE
00FFFFFFFE
00FFFFFFFC
00FE000000
00FE000000
00FE000000
00FE000000
00FE000000
00FE000000
00FE000000
00FE000000
00FE000000
00FE000000
00FE000000
00FE000000
00FE000000
00FE000000
00FE000000
00FE000000
00FE000000
00FE000000
00FE000000
00FE000000
00FE000000
00FE000000
00FE000000
00FE000000
00FE000000
00FE000000
00FE000000
00FE000000
00FE000000
00FE000000
00FE000000
00FE000000
00FE000000
00FE000000
00FE000000
00FE000000
00FE000000
00FE000000
00FE000000
00FE000000
00FE000000
00FE000000
00FE000000
00FE000000
00FE000000
00FE000000
00FE000000
00FE000000
00FE000000
00FE000000
00FE000000
00FE000000
00FE000000
00FE000000
00FE000000
00FE000000
00FE000000
00FE000000
00FE000000
00FE000000
00FE000000
00FE000000
00FE000000
00FE000000
3FFFFFFFF8
7FFFFFFFFE
FFFFFFFFFE
FFFFFFFFFE
FFFFFFFFFE
7FFFFFFFFE
3FFFFFFFFC
00FE000000
00FE000000
00FE000000
00FE000000
00FE000000
00FE000000
00FE000000
00FE000000
00FE000000
00FE000000
00FE000000
00FE000000
00FE000000
00FE000000
00FE000000
00FE000000
00FE000000
00FE000000
00FE000000
00FE000000
00FE000000
00FE000000
00FE000000
00FE000000
00FE000000
00FE000000
00FE000000
00FE000000
00FE000000
00FE000000
00FE000000
00FE000000
00FE000000
00FE000000
00FE000000
00FE000000
00FE000000
00FE000000
00FE000000
00FE000000
00FE000000
00FE000000
00FFFFFFFC
00FFFFFFFE
00FFFFFFFE
00FFFFFFFE
00FFFFFFFE
007FFFFFFE
003FFFFFFC
ENDCHAR
STARTCHAR 00CC
ENCODING 204
SWIDTH 88 0
DWIDTH 16 0
BBX 24 155 -13 0
BITMAP
F80000
FC0000
FF0000
FF8000
FFC000
7FE000
3FF800
1FFC00
0FFE00
03FF80
01FFC0
00FFE0
003FF8
001FFC
000FFE
0007FE
0001FF
0000FF
00007E
00001E
000000
000000
000000
000000
000000
000000
000000
000000
00001C
00003E
00007F
00007F
00007F
00007F
00007F
00007F
00007F
00007F
00007F
00007F
00007F
00007F
00007F
00007F
00007F
00007F
00007F
00007F
00007F
00007F
00007F
00007F
00007F
00007F
00007F
00007F
00007F
00007F
00007F
00007F
00007F
00007F
00007F
00007F
00007F
00007F
00007F
00007F
00007F
00007F
00007F
00007F
00007F
00007F
00007F
00007F
00007F
00007F
00007F
00007F
00007F
00007F
00007F
00007F
00007F
00007F
00007F
00007F
00007F
00007F
00007F
00007F
00007F
00007F
00007F
00007F
00007F
00007F
00007F
00007F
00007F
00007F
00007F
00007F
00007F
00007F
00007F
00007F
00007F
00007F
00007F
00007F
00007F
00007F
00007F
00007F
00007F
00007F
00007F
00007F
00007F
00007F
00007F
00007F
00007F
00007F
00007F
00007F
00007F
00007F
00007F
00007F
00007F
00007F
00007F
00007F
00007F
00007F
00007F
00007F
00007F
00007F
00007F
00007F
00007F
00007F
00007F
00007F
00007F
00007F
00007F
00007F
00007F
00003E
00001C
ENDCHAR
STARTCHAR 00CD
ENCODING 205
SWIDTH 88 0
DWIDTH 16 0
BBX 24 156 4 -1
BITMAP
00001C
00007E
0000FF
0001FF
0003FE
000FFE
001FFC
003FF8
007FE0
01FFC0
03FF80
07FE00
0FFC00
3FF800
7FE000
FFC000
FF8000
FE0000
FC0000
F80000
200000
000000
000000
000000
000000
000000
000000
000000
000000
380000
7C0000
FE0000
FE0000
FE0000
FE0000
FE0000
FE0000
FE0000
FE0000
FE0000
FE0000
FE0000
FE0000
FE0000
FE0000
FE0000
FE0000
FE0000
FE0000
FE0000
FE0000
FE0000
FE0000
FE0000
FE0000
FE0000
FE0000
FE0000
FE0000
FE0000
FE0000
FE0000
FE0000
FE0000
FE0000
FE0000
FE0000
FE0000
FE0000
FE0000
FE0000
FE0000
FE0000
FE0000
FE0000
FE0000
FE0000
FE0000
FE0000
FE0000
FE0000
FE0000
FE0000
FE0000
FE0000
FE0000
FE0000
FE0000
FE0000
FE0000
FE0000
FE0000
FE0000
FE0000
FE0000
FE0000
FE0000
FE0000
FE0000
FE0000
FE0000
FE0000
FE0000
FE0000
FE0000
FE0000
FE0000
FE0000
FE0000
FE0000
FE0000
FE0000
FE0000
FE0000
FE0000
FE0000
FE0000
FE0000
FE0000
FE0000
FE0000
FE0000
FE0000
FE0000
FE0000
FE0000
FE0000
FE0000
FE0000
FE0000
FE0000
FE0000
FE0000
FE0000
FE0000
FE0000
FE0000
FE0000
FE0000
FE0000
FE0000
FE0000
FE0000
FE0000
FE0000
FE0000
FE0000
FE0000
FE0000
FE0000
FE0000
FE0000
FE0000
FE0000
7C0000
380000
ENDCHAR
STARTCHAR 00CE
ENCODING 206
SWIDTH 88 0
DWIDTH 16 0
BBX 30 151 -9 -1
BITMAP
000FC000
001FF000
007FFC00
01FFFF00
07FFFF80
0FFFFFE0
3FFFFFF8
7FF87FFC
FFE01FFC
FF8007FC
7E0001FC
78000038
00000000
00000000
00000000
00000000
00000000
00000000
00000000
00000000
00000000
00000000
00000000
00000000
0001C000
0003E000
0007F000
0007F000
0007F000
0007F000
0007F000
0007F000
0007F000
0007F000
0007F000
0007F000
0007F000
0007F000
0007F000
0007F000
0007F000
0007F000
0007F000
0007F000
0007F000
0007F000
0007F000
0007F000
0007F000
0007F000
0007F000
0007F000
0007F000
0007F000
0007F000
0007F000
0007F000
0007F000
0007F000
0007F000
0007F000
0007F000
0007F000
0007F000
0007F000
0007F000
0007F000
0007F000
0007F000
0007F000
0007F000
0007F000
0007F000
0007F000
0007F000
0007F000
0007F000
0007F000
0007F000
0007F000
0007F000
0007F000
0007F000
0007F000
0007F000
0007F000
0007F000
0007F000
0007F000
0007F000
0007F000
0007F000
0007F000
0007F000
0007F000
0007F000
0007F000
0007F000
0007F000
0007F000
0007F000
0007F000
0007F000
0007F000
0007F000
0007F000
0007F000
0007F000
0007F000
0007F000
0007F000
0007F000
0007F000
0007F000
0007F000
0007F000
0007F000
0007F000
0007F000
0007F000
0007F000
0007F000
0007F000
0007F000
0007F000
0007F000
0007F000
0007F000
0007F000
0007F000
0007F000
0007F000
0007F000
0007F000
0007F000
0007F000
0007F000
0007F000
0007F000
0007F000
0007F000
0007F000
0007F000
0007F000
0007F000
0007F000
0007F000
0007F000
0007F000
0003E000
0001C000
ENDCHAR
STARTCHAR 00CF
ENCODING 207
SWIDTH 88 0
DWIDTH 16 0
BBX 28 149 -7 -1
BITMAP
0E000F80
3F801FE0
7FC03FE0
7FE07FF0
FFE07FF0
FFE07FF0
FFE07FF0
FFE07FF0
FFE07FF0
7FE03FE0
7FC01FE0
1F800F80
00000000
00000000
00000000
00000000
00000000
00000000
00000000
00000000
00000000
00000000
00070000
000F8000
001FC000
001FC000
001FC000
001FC000
001FC000
001FC000
001FC000
001FC000
001FC000
001FC000
001FC000
001FC000
001FC000
001FC000
001FC000
001FC000
001FC000
001FC000
001FC000
001FC000
001FC000
001FC000
001FC000
001FC000
001FC000
001FC000
001FC000
001FC000
001FC000
001FC000
001FC000
001FC000
001FC000
001FC000
001FC000
001FC000
001FC000
001FC000
001FC000
001FC000
001FC000
001FC000
001FC000
001FC000
001FC000
001FC000
001FC000
001FC000
001FC000
001FC000
001FC000
001FC000
001FC000
001FC000
001FC000
001FC000
001FC000
001FC000
001FC000
001FC000
001FC000
001FC000
001FC000
001FC000
001FC000
001FC000
001FC000
001FC000
001FC000
001FC000
001FC000
001FC000
001FC000
001FC000
001FC000
001FC000
001FC000
001FC000
001FC000
001FC000
001FC000
001FC000
001FC000
001FC000
001FC000
001FC000
001FC000
001FC000
001FC000
001FC000
001FC000
001FC000
001FC000
001FC000
001FC000
001FC000
001FC000
001FC000
001FC000
001FC000
001FC000
001FC000
001FC000
001FC000
001FC000
001FC000
001FC000
001FC000
001FC000
001FC000
001FC000
001FC000
001FC000
001FC000
001FC000
001FC000
001FC000
001FC000
001FC000
001FC000
001FC000
001FC000
001FC000
000F8000
00070000
ENDCHAR
STARTCHAR 00D0
ENCODING 208
SWIDTH 244 0
DWIDTH 44 0
BBX 41 126 0 0
BITMAP
00FFFFFC0000
00FFFFFF8000
00FFFFFFE000
00FFFFFFF000
00FFFFFFF800
00FFFFFFFC00
00FFFFFFFC00
00FE000FFE00
00FE0001FE00
00FE0000FF00
00FE00007F00
00FE00007F00
00FE00007F00
00FE00003F80
00FE00003F80
00FE00003F80
00FE00003F80
00FE00003F80
00FE00003F80
00FE00003F80
00FE00003F80
00FE00003F80
00FE00003F80
00FE00003F80
00FE00003F80
00FE00003F80
00FE00003F80
00FE00003F80
00FE00003F80
00FE00003F80
00FE00003F80
00FE00003F80
00FE00003F80
00FE00003F80
00FE00003F80
00FE00003F80
00FE00003F80
00FE00003F80
00FE00003F80
00FE00003F80
00FE00003F80
00FE00003F80
00FE00003F80
00FE00003F80
00FE00003F80
00FE00003F80
00FE00003F80
00FE00003F80
00FE00003F80
00FE00003F80
00FE00003F80
00FE00003F80
00FE00003F80
00FE00003F80
00FE00003F80
00FE00003F80
00FE00003F80
00FE00003F80
00FE00003F80
00FE00003F80
00FE00003F80
00FE00003F80
00FE00003F80
00FE00003F80
00FE00003F80
00FE00003F80
00FE00003F80
00FE00003F80
00FE00003F80
00FE00003F80
00FE00003F80
3FFFFFC03F80
7FFFFFF03F80
FFFFFFF03F80
FFFFFFF03F80
FFFFFFF03F80
7FFFFFF03F80
3FFFFFE03F80
00FE00003F80
00FE00003F80
00FE00003F80
00FE00003F80
00FE00003F80
00FE00003F80
00FE00003F80
00FE00003F80
00FE00003F80
00FE00003F80
00FE00003F80
00FE00003F80
00FE00003F80
00FE00003F80
00FE00003F80
00FE00003F80
00FE00003F80
00FE00003F80
00FE00003F80
00FE00003F80
00FE00003F80
00FE00003F80
00FE00003F80
00FE00003F80
00FE00003F80
00FE00003F80
00FE00003F80
00FE00003F80
00FE00003F80
00FE00003F80
00FE00003F80
00FE00003F80
00FE00003F80
00FE00003F80
00FE00007F80
00FE00007F00
00FE00007F00
00FE0000FF00
00FE0000FF00
00FE0001FE00
00FE0007FE00
00FFFFFFFC00
00FFFFFFFC00
00FFFFFFF800
00FFFFFFF000
00FFFFFFC000
00FFFFFF8000
00FFFFFC0000
ENDCHAR
STARTCHAR 00D1
ENCODING 209
SWIDTH 244 0
DWIDTH 44 0
BBX 35 150 4 0
BITMAP
00FF800E00
03FFC03F00
07FFF03F00
07FFF87F00
0FFFFEFF00
0FFFFFFF00
0FF3FFFE00
0FE1FFFE00
0FE07FFC00
0FC03FF800
0F801FF000
060007E000
0000000000
0000000000
0000000000
0000000000
0000000000
0000000000
0000000000
0000000000
0000000000
0000000000
0007FE0000
383FFFC000
7CFFFFF000
FFFFFFFC00
FFFFFFFE00
FFFFFFFE00
FFFFFFFF00
FFFC03FF80
FFF0007F80
FFC0003FC0
FF80003FC0
FF80001FC0
FF00001FC0
FF00001FE0
FE00000FE0
FE00000FE0
FE00000FE0
FE00000FE0
FE00000FE0
FE00000FE0
FE00000FE0
FE00000FE0
FE00000FE0
FE00000FE0
FE00000FE0
FE00000FE0
FE00000FE0
FE00000FE0
FE00000FE0
FE00000FE0
FE00000FE0
FE00000FE0
FE00000FE0
FE00000FE0
FE00000FE0
FE00000FE0
FE00000FE0
FE00000FE0
FE00000FE0
FE00000FE0
FE00000FE0
FE00000FE0
FE00000FE0
FE00000FE0
FE00000FE0
FE00000FE0
FE00000FE0
FE00000FE0
FE00000FE0
FE00000FE0
FE00000FE0
FE00000FE0
FE00000FE0
FE00000FE0
FE00000FE0
FE00000FE0
FE00000FE0
FE00000FE0
FE00000FE0
FE00000FE0
FE00000FE0
FE00000FE0
FE00000FE0
FE00000FE0
FE00000FE0
FE00000FE0
FE00000FE0
FE00000FE0
FE00000FE0
FE00000FE0
FE00000FE0
FE00000FE0
FE00000FE0
FE00000FE0
FE00000FE0
FE00000FE0
FE00000FE0
FE00000FE0
FE00000FE0
FE00000FE0
FE00000FE0
FE00000FE0
FE00000FE0
FE00000FE0
FE00000FE0
FE00000FE0
FE00000FE0
FE00000FE0
FE00000FE0
FE00000FE0
FE00000FE0
FE00000FE0
FE00000FE0
FE00000FE0
FE00000FE0
FE00000FE0
FE00000FE0
FE00000FE0
FE00000FE0
FE00000FE0
FE00000FE0
FE00000FE0
FE00000FE0
FE00000FE0
FE00000FE0
FE00000FE0
FE00000FE0
FE00000FE0
FE00000FE0
FE00000FE0
FE00000FE0
FE00000FE0
FE00000FE0
FE00000FE0
FE00000FE0
FE00000FE0
FE00000FE0
FE00000FE0
FE00000FE0
FE00000FE0
FE00000FE0
FE00000FE0
FE00000FE0
FE00000FE0
FE00000FE0
FE00000FE0
7C000007E0
78000007C0
ENDCHAR
STARTCHAR 00D2
ENCODING 210
SWIDTH 244 0
DWIDTH 44 0
BBX 33 156 5 -1
BITMAP
0F80000000
0FC0000000
1FF0000000
0FF8000000
0FFC000000
07FF000000
03FF800000
01FFC00000
007FF00000
003FF80000
001FFC0000
000FFE0000
0003FF8000
0001FFC000
0000FFE000
00003FE000
00001FE000
00000FE000
000007E000
000001C000
0000000000
0000000000
0000000000
0000000000
0000000000
0000000000
0000000000
001FF80000
00FFFF0000
03FFFFC000
07FFFFE000
0FFFFFF000
1FFFFFF800
1FFFFFFC00
3FE003FE00
3FC001FE00
7F8000FE00
7F00007F00
7F00007F00
7F00007F00
FE00003F00
FE00003F80
FE00003F80
FE00003F80
FE00003F80
FE00003F80
FE00003F80
FE00003F80
FE00003F80
FE00003F80
FE00003F80
FE00003F80
FE00003F80
FE00003F80
FE00003F80
FE00003F80
FE00003F80
FE00003F80
FE00003F80
FE00003F80
FE00003F80
FE00003F80
FE00003F80
FE00003F80
FE00003F80
FE00003F80
FE00003F80
FE00003F80
FE00003F80
FE00003F80
FE00003F80
FE00003F80
FE00003F80
FE00003F80
FE00003F80
FE00003F80
FE00003F80
FE00003F80
FE00003F80
FE00003F80
FE00003F80
FE00003F80
FE00003F80
FE00003F80
FE00003F80
FE00003F80
FE00003F80
FE00003F80
FE00003F80
FE00003F80
FE00003F80
FE00003F80
FE00003F80
FE00003F80
FE00003F80
FE00003F80
FE00003F80
FE00003F80
FE00003F80
FE00003F80
FE00003F80
FE00003F80
FE00003F80
FE00003F80
FE00003F80
FE00003F80
FE00003F80
FE00003F80
FE00003F80
FE00003F80
FE00003F80
FE00003F80
FE00003F80
FE00003F80
FE00003F80
FE00003F80
FE00003F80
FE00003F80
FE00003F80
FE00003F80
FE00003F80
FE00003F80
FE00003F80
FE00003F80
FE00003F80
FE00003F80
FE00003F80
FE00003F80
FE00003F80
FE00003F80
FE00003F80
FE00003F80
FE00003F80
FE00003F80
FE00003F80
FE00003F80
FE00003F80
FE00003F80
FE00003F80
FE00003F80
FE00003F80
FE00003F80
FE00003F80
7F00007F00
7F00007F00
7F80007F00
7F8000FF00
3FC001FE00
3FF00FFE00
1FFFFFFC00
1FFFFFFC00
0FFFFFF800
07FFFFF000
03FFFFC000
00FFFF0000
001FF80000
ENDCHAR
ENDFONT
